<?xml version="1.0" standalone="no"?>
<!DOCTYPE svg PUBLIC "-//W3C//DTD SVG 1.1//EN" "http://www.w3.org/Graphics/SVG/1.1/DTD/svg11.dtd" >
<!--
2013-9-30: Created.
-->
<svg>
<metadata>
Created by iconfont
</metadata>
<defs>

<font id="iconfont" horiz-adv-x="1024" >
  <font-face
    font-family="iconfont"
    font-weight="500"
    font-stretch="normal"
    units-per-em="1024"
    ascent="896"
    descent="-128"
  />
    <missing-glyph />
    
    <glyph glyph-name="tongzhi1" unicode="&#58941;" d="M692.536187 501.841008c-3.150892 8.389064-9.48747 15.20326-17.551461 18.888186-6.601625 3.705392-14.417966 5.313006-22.445117 4.045129-19.093648-3.006474-32.117813-21.087271-29.074373-40.382733 1.722297-10.927887 8.228751-19.894096 17.01011-25.080212 33.708098-36.066427 54.456502-84.375689 54.456502-137.653103 0-58.293661-24.858174-110.659309-64.382988-147.531078-7.329227-6.325056-11.974208-15.668865-11.974208-26.103518 0-19.040658 15.435175-34.475186 34.477656-34.475186 9.745354 0 18.536947 4.050246 24.810077 10.556427 6.692703 3.882424 11.909737 10.027377 14.67278 17.407462 43.194544 47.705512 69.744315 110.718661 69.744315 180.146916C762.280502 391.101881 735.729708 454.09968 692.536187 501.841008L692.536187 501.841008zM813.147094 627.585897c-5.730755 11.675924-17.736687 19.715017-31.624559 19.715017-19.444657 0-35.208328-15.765055-35.208328-35.214013 0-12.767791 6.786852-23.944342 16.956895-30.116925 59.674559-62.445214 96.523315-146.868999 96.523315-240.063541 0-104.344486-46.17556-197.718107-118.963315-261.451664l0.133035-0.158612c-11.422623-5.668093-19.275805-17.445324-19.275805-31.05632 0-19.141966 15.51602-34.655288 34.658789-34.655288 11.368386 0 21.458608 5.471618 27.778813 13.928221 0.308028 0.361227 0.610939 0.727571 0.901571 1.098008l0.091078-0.085958c86.999005 76.142168 142.224042 187.692776 142.224042 312.381613C927.347743 452.668075 883.803213 553.131161 813.147094 627.585897L813.147094 627.585897zM442.674235 687.42782 269.534816 510.287377 164.010122 510.287377c-45.146071 0-67.352748-24.305569-67.352748-67.366294l0-224.478588c0-42.354644 22.912787-67.37141 67.352748-67.37141l105.525718 0 173.138396-177.12407c49.749096-46.719044 125.453396-26.130124 125.453396 51.438533L568.127631 636.00566C568.126607 714.374542 491.478779 733.165514 442.674235 687.42782L442.674235 687.42782zM500.77386 59.888364c0-50.993394-22.604759-22.402219-45.797945 0.487094-40.431502 39.900755-101.511119 104.377232-151.722768 158.067039l-94.342558 0c-34.136881 0-44.901491 11.44875-44.901491 44.899606L164.009098 398.032734c0 32.746822 11.468674 44.889373 44.901491 44.889373l95.393538 0c49.949672 53.978379 110.435747 118.337175 150.841665 157.876704 22.933254 22.439058 45.628069 51.67594 45.628069-1.416256C500.77386 489.698456 500.77386 167.360074 500.77386 59.888364L500.77386 59.888364zM500.77386 59.888364"  horiz-adv-x="1024" />

    
    <glyph glyph-name="fujian" unicode="&#58881;" d="M438.649 6.265c-45.31-62.982-133.877-78.715-197.829-35.174-63.953 43.542-79.055 129.903-33.746 192.865v0c2.915 3.989 4.413 6.143 6.847 9.513l382.842 532.105c2.395 3.366 5.514 5.897 8.751 8.16 78.826 89.215 214.15 109.036 314.128 40.956 99.982-68.080 127.182-198.572 67.987-301.138-1.066-3.747-2.474-7.456-4.869-10.823l-369.181-513.084c-2.435-3.386-5.5-7.638-6.85-9.51v0c-105.725-146.927-312.381-183.678-461.628-82.062-149.209 101.616-184.477 303.098-78.751 450.026v0c3.062 4.48 4.412 6.143 6.809 9.51l314.512 437.071c11.338 15.751 33.478 19.689 49.458 8.807 15.977-10.899 19.782-32.49 8.447-48.222l-314.512-437.089c-2.397-3.367-5.18-7.285-6.81-9.492v0 0c-83.088-115.467-55.355-273.767 61.859-353.602 117.253-79.837 279.664-50.978 362.713 64.482v0c2.701 3.606 4.415 6.127 6.85 9.493l362.333 503.591c52.882 73.484 35.231 174.225-39.374 225.033-74.605 50.789-177.934 32.432-230.814-41.031l-376.030-522.614c-2.397-3.366-5.381-7.409-6.81-9.493v0c-22.674-31.482-15.104-74.66 16.854-96.438 31.994-21.781 76.278-13.906 98.914 17.594M380.746 45.696l277.001 384.95c11.338 15.751 33.479 19.689 49.458 8.788 15.977-10.88 19.782-32.47 8.445-48.202l-277.001-384.969z"  horiz-adv-x="1024" />

    
    <glyph glyph-name="jia" unicode="&#58932;" d="M740.828151 410.820855 538.820344 410.820855 538.820344 612.814336c0 14.81645-11.989055 26.820855-26.820855 26.820855-14.769378 0-26.790156-12.004405-26.790156-26.820855l-0.013303-201.99348L283.200502 410.820855c-14.801101 0-26.820855-12.019755-26.820855-26.820855 0-14.81645 12.019755-26.819832 26.820855-26.819832l201.991434 0-0.013303-201.994504c0-14.800078 12.051477-26.821879 26.820855-26.821879 14.8318 0 26.820855 12.021801 26.820855 26.821879L538.820344 357.180168l201.979154 0c14.8318 0 26.820855 12.003382 26.820855 26.819832S755.631298 410.820855 740.828151 410.820855z"  horiz-adv-x="1024" />

    
    <glyph glyph-name="qiandai" unicode="&#58982;" d="M387.016962 634.845095l242.128573 0c74.925457 0 132.079154 162.481581 132.079154 162.481581 0 48.660256-4.871961 85.47472-88.069825 88.068801-83.172281 2.619664-103.098099-58.158584-162.871461-58.158584-61.266365 0-91.911316 47.780213-167.301354 58.158584-75.365478 10.426467-88.044242-39.408545-88.044242-88.068801C254.937808 797.325653 312.066947 634.845095 387.016962 634.845095zM642.362558 584.618157l-255.345596 0c-282.762015 0-352.203574-555.509956-352.203574-555.509956 0-72.966848 59.137889-146.252968 132.079154-146.252968l695.569876 0c72.942289 0 132.078131 73.28612 132.078131 146.252968C994.541573 29.107177 925.076478 584.618157 642.362558 584.618157zM671.344636 157.687648c17.036002 0 30.842449-13.829983 30.842449-30.867008 0-17.034978-13.805424-30.864962-30.842449-30.864962l-125.201513 0 0-80.97115c0-17.034978-13.805424-30.867008-30.816866-30.867008-17.036002 0-30.840402 13.83203-30.840402 30.867008L484.485855 95.955678l-126.009925 0c-17.034978 0-30.840402 13.829983-30.840402 30.864962 0 17.037025 13.805424 30.867008 30.840402 30.867008l126.009925 0 0 39.161928-126.009925 0c-17.034978 0-30.840402 13.806447-30.840402 30.842449 0 17.036002 13.805424 30.890544 30.840402 30.890544l85.181031 0-87.212294 154.989957c-8.518001 14.784728-3.451612 33.631982 11.283997 42.148959 14.759145 8.519024 33.607422 3.476171 42.125423-11.258415l105.007589-185.880501 5.310959 0 105.007589 185.880501c8.516977 14.734586 27.365254 19.778462 42.100864 11.258415 14.760169-8.516977 19.827581-27.364231 11.308557-42.148959l-87.212294-154.989957 79.967286 0c17.036002 0 30.842449-13.853519 30.842449-30.890544 0-17.034978-13.805424-30.842449-30.842449-30.842449l-125.201513 0 0-39.161928L671.344636 157.687648z"  horiz-adv-x="1024" />

    
    <glyph glyph-name="rizhi" unicode="&#58965;" d="M768.5 808.5V888.6h-63.1v-80.1H326.7V888.6h-63.1v-80.1H86V-119h860V808.5H768.5zM883-55.39999999999998H149.1V745.8h114.4v-76.1h63.1v76.1h378.5v-76.1h63.1v76.1H883v-801.2zM291.1 526.3H736v-62.7H291.1zM291.1 370.70000000000005H736V308H291.1zM291.1 215H736v-62.7H291.1z"  horiz-adv-x="1024" />

    
    <glyph glyph-name="sanjiaoxing" unicode="&#59002;" d="M958.432679 658.058796L512 109.941204 65.566298 658.058796z"  horiz-adv-x="1024" />

    
    <glyph glyph-name="shuqian" unicode="&#58919;" d="M938.253184 864.318867C938.253184 881.815622 924.068806 896 906.57205 896H220.62838c-17.496756 0-31.682117-14.183394-31.682117-31.681133v-838.832643c0-17.496756 14.185362-31.682117 31.682117-31.682117s31.681133 14.185362 31.681133 31.682117V832.635765h654.261553c17.496756 0 31.681133 14.183394 31.681134 31.682118zM936.666864 780.299014H321.045783c-17.496756 0-31.681133-14.184378-31.681133-31.682118v-820.50238a31.678181 31.678181 0 1 1 51.832908-24.446254l290.868308 239.778372 283.78596-247.336026a31.667356 31.667356 0 0 1 20.819958-7.797767 31.683101 31.683101 0 0 1 31.677197 31.681133V748.616896c0 17.49774-14.185362 31.682117-31.682117 31.682118z m-31.682118-790.66441L653.452648 208.858717a31.611264 31.611264 0 0 1-20.816022 7.797767 31.614216 31.614216 0 0 1-20.151775-7.235863L352.726916-4.708964V716.935763h552.25783v-727.301159z"  horiz-adv-x="1160" />

    
    <glyph glyph-name="shangyiye" unicode="&#58886;" d="M512-64a448 448 0 1 0 448 448 448 448 0 0 0-448-448m0-64a512 512 0 0 1 512 512A512 512 0 0 1 0 384a512 512 0 0 1 512-512zM576 636.16l44.8-45.44L414.08 384l207.36-206.72-45.44-45.44L323.84 384 576 636.16z"  horiz-adv-x="1024" />

    
    <glyph glyph-name="neirongweikong" unicode="&#58930;" d="M978.682 62.178h-105.764v6.603h105.764v-6.603zM855.182 62.178h-663.581v6.603h663.71v-6.603h-0.13zM165.063 62.178h-77.154v6.603h77.154v-6.603zM70.303 62.178h-28.609v6.603h28.609v-6.603zM328.305 207.684h-15.405v-15.405h-6.732v15.405h-15.405v6.603h15.405v15.405h6.603v-15.405h15.405v-6.603h0.13zM784.629 514.231h-15.405v-15.405h-6.603v15.405h-15.405v6.603h15.405v15.405h6.603v-15.405h15.405v-6.603zM341.509 633.198h-15.405v-15.405h-6.603v15.405h-15.405v6.603h15.405v15.405h6.603v-15.405h15.405v-6.603zM46.096 302.574h-4.402v-4.402h-2.201v4.402h-4.402v2.201h4.402v4.402h2.201v-4.402h4.402v-2.201zM275.358 428.273h-4.402v-4.402h-2.201v4.402h-4.402v2.201h4.402v4.402h2.201v-4.402h4.402v-2.201zM925.734 249.628h-4.402v-4.402h-2.201v4.402h-4.402v2.201h4.402v4.402h2.201v-4.402h4.402v-2.201zM90.11 516.432h-4.402v-4.402h-2.201v4.402h-4.402v2.201h4.402v4.402h2.201v-4.402h4.402v-2.201zM727.411 106.322h-4.402v-4.402h-2.201v4.402h-4.402v2.201h4.402v4.402h2.201v-4.402h4.402v-2.201zM520.156 699.35h-4.402v-4.402h-2.201v4.402h-4.402v2.201h4.402v4.402h2.201v-4.402l4.402-2.201zM987.484 628.798h-15.405v-13.204h-6.603v13.204h-15.405v8.932h15.405v13.204h6.603v-13.204h15.405v-8.932zM729.613 454.683v-4.402c-2.201-11.004-4.402-22.006-11.004-30.81-11.004-15.405-24.208-24.208-39.743-28.609-2.201 0-4.402-2.201-6.603-2.201 0 0-2.201 0-2.201-2.201l-17.606-17.606c-2.201-2.201-2.201-2.201-4.402 0l-13.204 13.204c-2.201 2.201-4.402 4.402-8.803 4.402-11.004 2.201-19.807 6.603-28.609 13.204-8.803 6.603-15.405 15.405-22.006 26.409-4.402 6.603-6.603 15.405-6.603 24.208-2.201 15.405 0 28.609 6.603 39.743 4.402 6.603 8.803 13.204 15.405 19.807 8.803 8.803 19.807 13.204 33.010 17.606 4.402 2.201 11.004 2.201 17.606 2.201h19.807c17.606 0 30.81-4.402 44.144-15.405 13.204-11.004 22.006-24.208 26.409-41.943v-11.004c-2.201 0-2.201-4.402-2.201-6.603zM623.718 430.474h52.946v4.402h-24.208v15.405h17.606v4.402h-41.943v-4.402h19.807v-15.405h-24.208v-4.402zM647.926 478.89h-24.208v-11.004h4.402v8.803h44.144v-8.803h4.402v11.004h-22.006c0 2.201-2.201 4.402-2.201 6.603h-4.53c-2.201-2.201-2.201-4.402 0-6.603zM672.263 461.283c-6.603 4.402-11.004 6.603-17.606 11.004 0-2.201-2.201-2.201-2.201-2.201 6.603-4.402 11.004-6.603 17.606-11.004 0 0 2.201 0 2.201 2.201zM628.121 456.882c6.603 2.201 11.004 6.603 17.606 11.004l-2.201 2.201c-6.603-2.201-11.004-6.603-17.606-8.803 0-2.201 0-2.201 2.201-4.402zM612.715 606.789c2.201 0 6.603-2.201 8.803-2.201 8.803-4.402 15.405-13.204 15.405-24.208v-22.006c0-4.402-2.201-4.402-4.402-4.402-4.402 0-6.603 2.201-6.603 4.402v19.807c0 8.803-6.603 17.606-15.405 17.606h-258.001c-6.603 0-13.204-2.201-17.606-8.803-2.201-2.201-2.201-4.402-2.201-6.603v-297.614c0-8.803 4.402-15.405 11.004-22.006 4.402-4.402 8.803-6.603 15.405-6.603h273.407c-2.201 2.201-2.201 4.402-4.402 6.603-2.201 4.402-4.402 11.004-4.402 17.606v74.954c0 4.402 4.402 8.803 8.803 4.402 2.201 0 2.201-2.201 2.201-4.402v-63.95h57.347v-13.204c0-4.402 0-6.603-2.201-11.004-4.402-11.004-13.204-19.807-24.208-22.006h-302.145c-6.603 0-13.204 2.201-17.606 6.603-8.803 4.402-15.405 13.204-17.606 22.006-2.201 4.402-2.201 6.603-2.201 11.004v299.814c2.201 8.803 6.603 17.606 15.405 22.006 2.201 2.201 6.603 2.201 11.004 4.402-4.402-2.201 260.202-2.201 260.202-2.201zM636.923 276.035c0-17.606 15.405-26.409 28.609-22.006 11.004 2.201 17.606 13.204 17.606 22.006h-46.215zM398.858 481.090h127.901v-11.004h-127.901v11.004zM398.858 423.743h127.901v-11.004h-127.901v11.004zM398.858 364.323h163.111v-11.004h-163.111v11.004z"  horiz-adv-x="1024" />

    
    <glyph glyph-name="zhifubao" unicode="&#58892;" d="M933.875 216.231V631.629c0 89.578-72.64 162.247-162.247 162.247H252.371c-89.578 0-162.247-72.64-162.247-162.247v-519.257c0-89.578 72.64-162.247 162.247-162.247h519.257c79.833 0 146.234 57.694 159.739 133.674-43.01 18.503-229.54 99.03-326.659 145.483-73.909-89.539-151.342-143.264-268.058-143.264-116.716 0-194.602 71.798-185.212 159.831 6.163 57.78 45.78 152.112 217.775 135.887 90.651-8.552 132.162-25.462 206.163-49.822 19.016 35.045 34.979 73.643 46.962 114.726H294.577v32.452H456.72v58.413H258.901v35.697H456.72v84.151s1.864 13.205 16.339 13.205h81.13v-97.356h210.937v-35.697H554.188v-58.413h171.995c-15.769-64.437-39.718-123.547-69.793-175.278 50.03-18.048 277.485-87.583 277.485-87.583z m-610.096-74.638c-123.318 0-142.788 77.885-136.298 110.337s42.188 74.64 110.743 74.64c78.833 0 149.316-20.114 234.033-61.377-59.424-77.44-132.575-123.6-208.477-123.6z"  horiz-adv-x="1025" />

    
    <glyph glyph-name="ZCSZ-1" unicode="&#58946;" d="M939 405.5l-426.5 426.5-0.5-0.5-0.5 0.5-426.5-426.5 37.4-37.4 389.6 389.7 389.6-389.7zM917.7 207.3c-3.2 16.8-13.7 27.4-27 27.1h-1.9c-29.2 0-53 23.8-53 53 0 9.3 4.6 20.1 4.6 20.1 6.5 14.5 1.5 32.3-11.5 41.4l-0.9 0.6-58 32.2-1.2 0.6c-4.3 1.9-9 2.8-13.9 2.8-10.1 0-20-4.1-26.6-10.9-7.6-7.8-27.9-24-42.2-24-14.4 0-34.8 16.5-42.4 24.5-6.6 7-16.6 11.1-26.8 11.1-4.9 0-9.5-0.9-13.7-2.7l-0.9-0.4-60.1-33-1.2-0.8c-13.1-9.1-18.1-26.9-11.6-41.3 0-0.1 4.7-10.8 4.7-20.2 0-29.2-23.8-53-53-53h-1.9c-13.2 0.3-23.8-10.4-27-27.2-0.5-2.7-5-26.9-5-46.5s4.4-43.8 5-46.5c3.1-16.5 13.5-27.2 26.5-27.2h2.3c29.2 0 53-23.8 53-53 0-9.3-4.6-20.1-4.6-20.1-6.4-14.5-1.5-32.3 11.5-41.4l0.8-0.6 56.9-31.8 1.2-0.6c4.3-1.9 9-2.9 13.9-2.9 10.2 0 20.3 4.3 26.8 11.4 7.4 8 28.4 25.5 43.1 25.5 14.8 0 35.6-17.6 43.4-26 6.6-7.3 16.7-11.6 27-11.6 4.8 0 9.4 0.9 13.7 2.8l0.9 0.4 59 32.6 1.2 0.8c13 9.1 18 26.9 11.6 41.3 0 0.1-4.7 10.9-4.7 20.2 0 29.2 23.8 53 53 53h2.3c13 0 23.4 10.6 26.6 27.1 0.2 1.1 5 26.3 5 46.6 0.1 19.7-4.4 43.9-4.9 46.6zM866.4 129.6c-44.5-5-78.6-42.6-78.6-87.9 0-11.3 3-21.9 5.3-28.5l-42.9-23.7c-3.4 3.4-9.5 9.2-17.3 15-17.2 12.8-33.8 19.2-49.3 19.2-15.3 0-31.8-6.3-48.9-18.9-6.1-4.5-11.8-9.4-17.2-14.7l-41.2 23c2.3 6.6 5.3 17.3 5.3 28.6 0 45.3-34.1 83-78.6 87.9-1.2 7.2-3.1 20.6-3.1 31.1s1.9 23.7 3 31.1c44.5 5 78.6 42.6 78.6 87.9 0 11.2-3 21.9-5.3 28.5l44.2 24.3c3.3-3.2 9.5-8.8 17.3-14.3 16.9-12 33-18.1 48.1-18.1 14.9 0 30.9 6 47.7 17.8 7.7 5.5 13.9 11 17.2 14.1l42.4-23.6c-2.3-6.6-5.3-17.3-5.3-28.6 0-45.3 34.1-83 78.6-87.9 1.2-7.4 3.1-20.6 3.1-31.1-0.1-10.5-2-24-3.1-31.2zM684.8 240.2c-43.8 0-79.3-35.5-79.3-79.3s35.5-79.3 79.3-79.3 79.3 35.5 79.3 79.3-35.5 79.3-79.3 79.3zM684.8 121.3c-21.9 0-39.6 17.7-39.6 39.6s17.7 39.6 39.6 39.6c21.9 0 39.6-17.7 39.6-39.6 0.1-21.8-17.7-39.6-39.6-39.6zM560 12.8c0 18.3-9.3 34.4-23.4 44h-280.9v278.6l256.3 256.3 216.8-216.8c6.6 6.5 16.2 10.4 26 10.4 4.9 0 9.6-0.9 13.9-2.8l1.2-0.6 47.2-26.2v5.6l-304.6 304.6-0.5-0.5-0.5 0.5-305.5-305.4h-0.5v-356.5h353.4c0.6 2.8 1.1 5.8 1.1 8.8z"  horiz-adv-x="1024" />

    
    <glyph glyph-name="rotate" unicode="&#58880;" d="M607.164-128c-143.769 0-273.539 59.301-366.501 154.622l42.785 45.931c82.423-85.727 198.194-139.050 326.547-139.050 250.259 0 453.328 202.912 453.328 453.328 0 250.259-202.912 453.328-453.328 453.328-237.046 0-431.464-182.149-451.284-414.162h109.95l-134.331-223.833-134.331 223.833h97.052c21.392 263 241.45 470.002 510.112 470.002 282.819 0 512-229.181 512-512 0-282.819-229.181-512-512-512v0zM562.178 503.073c-20.134 20.291-47.818 30.516-82.266 30.516v0c-1.573 0-3.146 0-4.719 0 0 0-0.157 0-0.157 0-36.335-1.73-64.649-12.584-84.311-32.56-19.505-19.977-30.516-49.076-32.718-86.513 0-0.315 0-0.472 0-0.786 1.573-34.763 11.483-61.818 29.1-80.536 17.932-18.718 43.728-29.1 76.918-30.673 0.157 0 0.315 0 0.315 0 0 0 0.157 0 0.157 0 31.145 0.786 56.469 10.696 75.817 29.257-2.045-29.414-7.708-52.222-16.988-68.109-10.853-18.561-26.426-27.684-47.661-27.684-0.472 0-1.101 0-1.573 0 0 0-0.157 0-0.157 0-25.639 0-42.155 14.157-50.492 43.257-0.944 3.303-4.090 5.505-7.393 5.505-0.472 0-1.101 0-1.573-0.157l-43.886-9.438c-2.045-0.472-3.775-1.73-4.876-3.461-1.101-1.73-1.416-3.932-0.944-5.977 6.764-26.269 19.19-46.402 37.437-59.773 17.932-13.213 41.684-19.977 70.312-19.977 0.786 0 1.416 0 2.202 0 42.47 0 74.873 15.572 96.423 46.245 20.763 29.729 31.459 74.559 31.459 133.073 0.315 31.617-2.831 59.143-9.28 81.794-7.078 23.28-17.303 41.998-31.145 55.998v0zM538.269 409.639c-2.989-35.864-22.965-53.481-62.761-55.526-35.549 2.045-53.009 22.022-54.896 63.076 2.045 41.054 19.977 61.031 56.627 63.076 20.291-0.472 34.92-6.292 44.987-17.775 10.067-11.64 15.415-29.414 16.044-52.852v0zM841.693 487.658c-20.449 29.886-51.121 45.301-91.232 45.773 0 0 0 0-0.157 0-0.157 0-0.157 0-0.315 0-39.953-1.73-70.783-17.617-91.389-47.346-20.134-28.943-30.987-71.57-31.931-126.938 0 0 0-0.157 0-0.157 0.472-55.84 11.011-98.782 31.145-127.567 20.763-29.572 51.908-44.829 92.49-45.459 0.786 0 1.416 0 2.202 0 39.953 0 70.469 15.1 90.603 44.672 19.505 28.785 29.414 71.884 29.414 128.354 0 0 0 0 0 0-0.629 56.469-11.011 99.726-30.83 128.669v0zM806.774 357.574c0-0.157 0-0.157 0 0 0-41.684-5.033-73.143-14.943-93.591-9.123-18.718-22.179-27.841-40.111-27.841-0.472 0-0.944 0-1.258 0 0 0-0.157 0-0.157 0 0 0-0.157 0-0.157 0-0.472 0-0.944 0-1.258 0-17.932 0-30.987 9.123-40.111 27.841-9.91 20.291-14.943 51.751-14.943 93.434 0 42.155 5.033 74.087 14.943 94.692 9.123 19.033 22.179 28.313 40.111 28.313 0.472 0 0.786 0 1.258 0 0 0 0.157 0 0.157 0 0.157 0 0.315 0 0.315 0 0.944 0 1.73 0 2.674 0 11.483 0 20.92-3.775 28.471-11.483 17.303-17.46 25.797-55.054 25.010-111.366v0zM842.165 660.999c-32.403 0-58.829-26.269-58.829-58.829s26.269-58.829 58.829-58.829c32.403 0 58.829 26.269 58.829 58.829s-26.426 58.829-58.829 58.829v0zM842.165 577.003c-13.842 0-25.167 11.325-25.167 25.167s11.325 25.167 25.167 25.167c13.842 0 25.167-11.325 25.167-25.167 0-13.842-11.168-25.167-25.167-25.167v0z"  horiz-adv-x="1120" />

    
    <glyph glyph-name="JZ-" unicode="&#58906;" d="M1078.613 636.587c-6.827 3.413-10.24-1.707-10.24-1.707-11.947-17.067-32.427-42.667-61.44-40.96-80.213 170.667-252.587 288.427-452.267 288.427-259.413 0-472.747-197.973-496.64-450.56h51.2c23.893 225.28 215.040 399.36 445.44 399.36 218.453 0 399.36-155.307 440.32-360.107 3.413-18.773 5.12-29.013 5.12-30.72 0-3.413 3.413-6.827 10.24-6.827 6.827 0 10.24 6.827 10.24 6.827l63.147 187.733s1.707 5.12-5.12 8.533zM554.667-63.147c-216.747 0-399.36 155.307-440.32 361.813-3.413 18.773-5.12 29.013-5.12 30.72 0 3.413-3.413 6.827-10.24 6.827-6.827 0-10.24-6.827-10.24-6.827l-63.147-187.733s-3.413-5.12 5.12-8.533c6.827-3.413 10.24 1.707 10.24 1.707 11.947 17.067 32.427 42.667 61.44 40.96 80.213-168.96 252.587-286.72 452.267-286.72 259.413 0 472.747 197.973 496.64 450.56h-51.2c-23.893-228.693-215.040-402.773-445.44-402.773zM554.667 740.693c-197.973 0-358.4-160.427-358.4-358.4s160.427-358.4 358.4-358.4 358.4 160.427 358.4 358.4-160.427 358.4-358.4 358.4zM745.813 421.547h-165.547v-76.8h136.533v-51.2h-136.533v-155.307h-51.2v155.307h-138.24v51.2h138.24v76.8h-165.547v51.2h133.12l-75.093 128 44.373 25.6 88.747-153.6 88.747 153.6 44.373-25.6-75.093-128h133.12v-51.2z"  horiz-adv-x="1109" />

    
    <glyph glyph-name="ZCSZ-" unicode="&#58908;" d="M580.266667 783.36l424.96-426.666667 47.786666 49.493334L580.266667 878.933333 107.52 406.186667l47.786667-49.493334zM242.346667-23.893332999999984h226.986666c-29.013333 46.08-46.08 98.986667-46.08 157.013333 0 162.133333 131.413333 293.546667 293.546667 293.546667 76.8 0 148.48-30.72 199.68-80.213334h1.706667L580.266667 684.373333 242.346667 346.45333300000004v-370.346666zM918.186667 344.746667v3.413333h-3.413334l3.413334-3.413333zM715.093333 220.15999999999997c-47.786667 0-85.333333-39.253333-85.333333-85.333333 0-47.786667 39.253333-85.333333 85.333333-85.333334 47.786667 0 85.333333 39.253333 85.333334 85.333334 1.706667 46.08-37.546667 85.333333-85.333334 85.333333z m0-129.706667c-23.893333 0-42.666667 18.773333-42.666666 42.666667s18.773333 42.666667 42.666666 42.666667 42.666667-18.773333 42.666667-42.666667-18.773333-42.666667-42.666667-42.666667zM967.68 184.32000000000005c-3.413333 17.066667-13.653333 29.013333-29.013333 29.013333h-1.706667c-32.426667 0-58.026667 25.6-58.026667 58.026667 0 10.24 5.12 22.186667 5.12 22.186667 6.826667 15.36 1.706667 35.84-11.946666 44.373333H870.4l-63.146667 35.84h-1.706666c-5.12 1.706667-10.24 3.413333-15.36 3.413333-10.24 0-22.186667-5.12-29.013334-11.946666-8.533333-8.533333-30.72-25.6-46.08-25.6-15.36 0-37.546667 18.773333-46.08 27.306666-6.826667 6.826667-18.773333 11.946667-29.013333 11.946667-5.12 0-10.24-1.706667-15.36-3.413333h-1.706667l-64.853333-35.84-1.706667-1.706667c-13.653333-10.24-18.773333-29.013333-11.946666-44.373333 0 0 5.12-11.946667 5.12-22.186667 0-32.426667-25.6-58.026667-58.026667-58.026667h-1.706667c-13.653333 0-25.6-11.946667-29.013333-29.013333 0-3.413333-5.12-29.013333-5.12-51.2 0-20.48 5.12-47.786667 5.12-51.2 3.413333-18.773333 15.36-29.013333 29.013333-29.013333h1.706667c32.426667 0 58.026667-25.6 58.026667-58.026667 0-10.24-5.12-22.186667-5.12-22.186667-6.826667-15.36-1.706667-35.84 11.946666-44.373333h1.706667l61.44-34.133333h1.706667c5.12-1.706667 10.24-3.413333 15.36-3.413334 11.946667 0 22.186667 5.12 29.013333 11.946667 8.533333 8.533333 30.72 27.306667 46.08 27.306667 15.36 0 39.253333-18.773333 47.786667-29.013334 6.826667-8.533333 18.773333-11.946667 29.013333-11.946666 5.12 0 10.24 1.706667 15.36 3.413333h1.706667l64.853333 35.84 1.706667 1.706667c13.653333 10.24 18.773333 29.013333 11.946666 44.373333 0 0-5.12 11.946667-5.12 22.186667 0 32.426667 25.6 58.026667 58.026667 58.026666h1.706667c13.653333 0 25.6 11.946667 29.013333 29.013334 0 1.706667 5.12 29.013333 5.12 51.2 1.706667 20.48-3.413333 46.08-5.12 49.493333z m-54.613333-85.333333c-47.786667-5.12-85.333333-46.08-85.333334-95.573334 0-11.946667 3.413333-23.893333 5.12-30.72l-46.08-25.6c-3.413333 3.413333-10.24 10.24-18.773333 17.066667-18.773333 13.653333-35.84 20.48-52.906667 20.48s-34.133333-6.826667-52.906666-20.48c-6.826667-5.12-13.653333-10.24-18.773334-15.36L597.333333-27.306666999999948c1.706667 6.826667 5.12 18.773333 5.12 30.72 0 49.493333-37.546667 90.453333-85.333333 95.573334-1.706667 8.533333-3.413333 22.186667-3.413333 34.133333s1.706667 25.6 3.413333 34.133333c47.786667 5.12 85.333333 46.08 85.333333 95.573334 0 11.946667-3.413333 23.893333-5.12 30.72l47.786667 25.6c3.413333-3.413333 10.24-10.24 18.773333-15.36 18.773333-13.653333 35.84-20.48 52.906667-20.48 15.36 0 34.133333 6.826667 51.2 18.773333 8.533333 5.12 15.36 11.946667 18.773333 15.36l46.08-25.6c-1.706667-6.826667-5.12-18.773333-5.12-30.72 0-49.493333 37.546667-90.453333 85.333334-95.573333 1.706667-8.533333 3.413333-22.186667 3.413333-34.133334 0-10.24-3.413333-23.893333-3.413333-32.426666z"  horiz-adv-x="1109" />

    
    <glyph glyph-name="FZHSSZ-" unicode="&#58909;" d="M375.467 151.893c0 174.080 141.653 315.733 315.733 315.733 81.92 0 155.307-30.72 211.627-81.92v419.84c0 40.96-32.427 73.387-73.387 73.387h-580.267c-40.96 0-73.387-32.427-73.387-73.387v-837.973c0-20.48 17.067-37.547 37.547-37.547l172.373 145.067c-6.827 25.6-10.24 51.2-10.24 76.8zM336.213 744.107h404.48v-49.493h-404.48v49.493zM336.213 616.107h404.48v-49.493h-404.48v49.493zM689.493 245.76c-51.2 0-92.16-40.96-92.16-92.16 0-51.2 40.96-92.16 92.16-92.16 51.2 0 92.16 40.96 92.16 92.16 1.707 49.493-40.96 92.16-92.16 92.16zM689.493 105.813c-25.6 0-46.080 20.48-46.080 46.080s20.48 46.080 46.080 46.080c25.6 0 46.080-20.48 46.080-46.080 1.707-25.6-20.48-46.080-46.080-46.080zM962.56 206.507c-3.413 18.773-15.36 32.427-30.72 32.427h-1.707c-34.133 0-61.44 27.307-61.44 61.44 0 10.24 5.12 23.893 5.12 23.893 6.827 17.067 1.707 37.547-13.653 47.787h-1.707l-68.267 37.547h-1.707c-5.12 1.707-10.24 3.413-17.067 3.413-11.947 0-23.893-5.12-30.72-11.947-8.533-8.533-32.427-27.307-49.493-27.307s-40.96 18.773-49.493 29.013c-8.533 8.533-18.773 13.653-30.72 13.653-5.12 0-10.24-1.707-15.36-3.413h-1.707l-69.973-39.253-1.707-1.707c-15.36-10.24-20.48-30.72-13.653-47.787 0 0 5.12-11.947 5.12-23.893 0-34.133-27.307-61.44-61.44-61.44h-1.707c-15.36 0-27.307-11.947-30.72-32.427 0-3.413-5.12-30.72-5.12-54.613 0-22.187 5.12-51.2 5.12-54.613 3.413-18.773 15.36-32.427 30.72-32.427h1.707c34.133 0 61.44-27.307 61.44-61.44 0-10.24-5.12-23.893-5.12-23.893-6.827-17.067-1.707-37.547 13.653-47.787h1.707l66.56-37.547h1.707c5.12-1.707 10.24-3.413 17.067-3.413 11.947 0 23.893 5.12 30.72 13.653 8.533 8.533 32.427 30.72 51.2 30.72 17.067 0 40.96-20.48 51.2-30.72 8.533-8.533 18.773-13.653 32.427-13.653 5.12 0 10.24 1.707 15.36 3.413h1.707l68.267 37.547 1.707 1.707c15.36 10.24 20.48 30.72 13.653 47.787 0 0-5.12 13.653-5.12 23.893 0 34.133 27.307 61.44 61.44 61.44h1.707c15.36 0 27.307 11.947 30.72 32.427 0 1.707 5.12 30.72 5.12 54.613-1.707 22.187-6.827 49.493-6.827 52.907zM902.827 116.053c-51.2-5.12-92.16-49.493-92.16-102.4 0-13.653 3.413-25.6 6.827-34.133l-49.493-27.307c-3.413 3.413-11.947 10.24-20.48 17.067-20.48 15.36-39.253 22.187-58.027 22.187s-37.547-6.827-58.027-22.187c-6.827-5.12-13.653-10.24-20.48-17.067l-47.787 27.307c3.413 8.533 6.827 20.48 6.827 34.133 0 52.907-39.253 97.28-92.16 102.4-1.707 8.533-3.413 23.893-3.413 35.84 0 11.947 1.707 27.307 3.413 35.84 51.2 5.12 92.16 49.493 92.16 102.4 0 13.653-3.413 25.6-6.827 34.133l51.2 29.013c3.413-3.413 10.24-10.24 20.48-17.067 20.48-13.653 39.253-20.48 56.32-20.48s35.84 6.827 56.32 20.48c8.533 6.827 17.067 13.653 20.48 17.067l49.493-27.307c-3.413-8.533-6.827-20.48-6.827-34.133 0-52.907 39.253-97.28 92.16-102.4 1.707-8.533 3.413-23.893 3.413-35.84 0-13.653-1.707-29.013-3.413-37.547z"  horiz-adv-x="1109" />

    
    <glyph glyph-name="KMSZ-" unicode="&#58910;" d="M812.373 650.24v-199.68c25.6-10.24 49.493-25.6 71.68-42.667l-40.96 283.307c-1.707 15.36-11.947 29.013-25.6 35.84l-233.813 128 208.213-160.427c13.653-11.947 20.48-27.307 20.48-44.373zM372.053 155.307c0 175.787 143.36 319.147 319.147 319.147 32.427 0 63.147-5.12 92.16-13.653v170.667c0 15.36-6.827 30.72-18.773 39.253l-256 197.973c-18.773 13.653-42.667 13.653-61.44 0l-256-196.267c-11.947-10.24-20.48-23.893-20.48-39.253v-633.173c0-40.96 34.133-75.093 75.093-75.093h225.28c-59.733 56.32-98.987 138.24-98.987 230.4zM486.4 737.28c25.6-3.413 47.787-25.6 51.2-51.2 6.827-42.667-29.013-78.507-71.68-71.68-25.6 3.413-47.787 25.6-51.2 51.2-5.12 42.667 30.72 78.507 71.68 71.68zM691.2 249.173c-51.2 0-93.867-42.667-93.867-93.867s42.667-93.867 93.867-93.867 93.867 42.667 93.867 93.867-42.667 93.867-93.867 93.867zM691.2 107.52c-25.6 0-46.080 20.48-46.080 46.080s20.48 46.080 46.080 46.080c25.6 0 46.080-20.48 46.080-46.080 0-23.893-20.48-46.080-46.080-46.080zM965.973 209.92c-3.413 20.48-17.067 32.427-32.427 32.427h-1.707c-34.133 0-63.147 27.307-63.147 63.147 0 10.24 5.12 23.893 5.12 23.893 6.827 17.067 1.707 37.547-13.653 49.493h-1.707l-68.267 37.547h-1.707c-5.12 1.707-10.24 3.413-17.067 3.413-11.947 0-23.893-5.12-30.72-13.653-8.533-8.533-32.427-29.013-49.493-29.013s-40.96 18.773-49.493 29.013c-8.533 8.533-20.48 13.653-32.427 13.653-5.12 0-11.947-1.707-17.067-3.413h-1.707l-71.68-39.253-1.707-1.707c-15.36-10.24-22.187-32.427-13.653-49.493 0 0 5.12-13.653 5.12-23.893 0-34.133-27.307-63.147-63.147-63.147h-1.707c-15.36 0-29.013-11.947-32.427-32.427 0-3.413-5.12-32.427-5.12-54.613 0-23.893 5.12-51.2 5.12-54.613 3.413-18.773 15.36-32.427 30.72-32.427h1.707c34.133 0 63.147-27.307 63.147-63.147 0-10.24-5.12-23.893-5.12-23.893-6.827-17.067-1.707-37.547 13.653-49.493h1.707l66.56-37.547h1.707c5.12-1.707 10.24-3.413 17.067-3.413 11.947 0 23.893 5.12 32.427 13.653 8.533 10.24 34.133 30.72 51.2 30.72s42.667-20.48 51.2-30.72c8.533-8.533 20.48-13.653 32.427-13.653 5.12 0 11.947 1.707 15.36 3.413h1.707l69.973 39.253 1.707 1.707c15.36 10.24 20.48 32.427 13.653 49.493 0 0-5.12 13.653-5.12 23.893 0 34.133 27.307 63.147 63.147 63.147h1.707c15.36 0 27.307 11.947 30.72 32.427 0 1.707 5.12 30.72 5.12 54.613 5.12 22.187 0 51.2-1.707 54.613zM906.24 117.76c-52.907-5.12-92.16-51.2-92.16-104.107 0-13.653 3.413-25.6 6.827-34.133l-51.2-27.307c-3.413 3.413-11.947 10.24-20.48 17.067-20.48 15.36-39.253 22.187-58.027 22.187s-37.547-6.827-58.027-22.187c-6.827-5.12-13.653-11.947-20.48-17.067l-49.493 27.307c3.413 8.533 6.827 20.48 6.827 34.133 0 52.907-40.96 98.987-92.16 104.107-1.707 8.533-3.413 23.893-3.413 37.547 0 11.947 1.707 27.307 3.413 37.547 52.907 5.12 92.16 51.2 92.16 104.107 0 13.653-3.413 25.6-6.827 34.133l52.907 29.013c3.413-3.413 11.947-10.24 20.48-17.067 20.48-13.653 39.253-22.187 56.32-22.187s35.84 6.827 56.32 20.48c8.533 6.827 17.067 13.653 20.48 17.067l49.493-27.307c-3.413-8.533-6.827-20.48-6.827-34.133 0-52.907 40.96-98.987 92.16-104.107 1.707-8.533 3.413-23.893 3.413-37.547 1.707-11.947 0-29.013-1.707-37.547z"  horiz-adv-x="1109" />

    
    <glyph glyph-name="SLMXB-" unicode="&#58922;" d="M164.96666666 136.29999999999995zM867.26666666 316.9v-176.8h126.3V316.9H867.26666666z m82-132.7h-37.9v88.4h37.9v-88.4zM667.56666666 65.10000000000002v-44.2H749.66666666V-6h-82.1V-121.20000000000005h126.3v44.3h-82v26.8h82V65.10000000000002zM761.66666666 181.10000000000002V316.9h-77.6v-44.3h33.3v-91.5h-49.8v-44.2h126.3v44.2zM952.36666666 65.10000000000002v-62.7h-44.1v62.7h-44.3v-107h88.4v-79.3H996.66666666V65.10000000000002zM921.06666666 889.2H188.16666666C146.46666666 889.2 112.66666666 855.4 112.66666666 813.6v-859.1c0-41.7 33.8-75.6 75.5-75.6h442V350.20000000000005H996.66666666V813.6c0 41.7-33.8 75.6-75.6 75.6zM403.26666666 181.60000000000002H212.96666666v79.3h190.4v-79.3z m5.3 238.1H218.16666666V499h190.4v-79.3z m1 233.2H219.26666666v79.3H409.66666666v-79.3z m238.2-233.2H457.46666666V499h190.4v-79.3z m1 233.2H458.46666666v79.3h190.4v-79.3z m239.2 0H697.66666666v79.3h190.4v-79.3z"  horiz-adv-x="1109" />

    
    <glyph glyph-name="ZCMXB-" unicode="&#58911;" d="M900.46666666 38.200000000000045L779.86666666 158.79999999999995 659.46666666 38.200000000000045h-0.5v-161.4h0.2v-0.2h241.4v0.2h0.2V38.200000000000045h-0.3z m-43.6-18.7v-98.8H703.16666666v98.7l76.8 76.8 76.9-76.7zM779.86666666 217.20000000000005l187.1-187 31.2 31-218.3 218.3L561.66666666 61.200000000000045l31.2-31zM931.56666666 891.5h-752c-36.5 0-66.4-29.8-66.4-66.4V-57c0-36.4 29.8-66.4 66.4-66.4H610.66666666l0.2 130.9-33.6-33.7-82.4 82.2 285 285 151.9-153.5 66.2-62.2V825.1c0 36.4-29.8 66.4-66.4 66.4zM404.16666666 183.89999999999998H213.86666666v79.3h190.4v-79.3z m5.3 238.1H219.06666666v79.3h190.4V422z m1 233.2H220.06666666v79.3h190.4v-79.3zM648.66666666 422H458.26666666v79.3H648.66666666V422z m1 233.2H459.36666666v79.3H649.66666666v-79.3z m239.2 0H698.56666666v79.3h190.4v-79.3z"  horiz-adv-x="1109" />

    
    <glyph glyph-name="HSMXB-" unicode="&#58912;" d="M676.69999999 282h87.6v-212.2h-87.6zM790.89999999 282h87.6v-212.2h-87.6zM905.09999999 282h87.6v-212.2h-87.6zM658.29999999 38.5v-93.1l178.6-59.1s18.2-9.3 40.9 7c22.7 16.2 167 119.8 167 119.8s13.9 13.6 3.1 27.8c-10.8 14.3-36 3.1-36 3.1l-146.1-85.8s-17.4-12.8-42.6-4.6c-25.2 8.1-69.6 29.8-69.6 29.8s-5 19.7 11.9 12.8c17-7 53.7-23.5 74.6-20.5 20.9 3.1 25.2 11.9 25.9 15.1 0.8 3.1-7.3 15.4-22.4 21.2-15.1 5.8-82.7 36.3-82.7 36.3s-3.1 7.4-27 4.3-75.6-14.1-75.6-14.1zM941.69999999 891.6H192.19999999c-36.3 0-66.1-29.7-66.1-66.1v-878.6c0-36.3 29.7-66.1 66.1-66.1l445.1 2.8-0.3 26.8 0.3 109.5V309.29999999999995h370.4V825.5c0.1 36.3-29.6 66.1-66 66.1zM416.39999999 184H226.09999999v79.3h190.4V184z m5.3 238.1H231.29999999v79.3h190.4v-79.3z m1 233.1H232.39999999v79.3h190.4v-79.3z m238.2-233.1H470.59999999v79.3H660.99999999v-79.3z m1 233.1H471.59999999v79.3H661.99999999v-79.3z m239.2 0H710.79999999v79.3h190.4v-79.3z"  horiz-adv-x="1109" />

    
    <glyph glyph-name="KMMXB-" unicode="&#58913;" d="M585.66666666 215.29999999999995h112.4v-331.4H585.66666666zM733.36666666 215.29999999999995h112.4v-331.4H733.36666666zM881.26666666 215.29999999999995H993.66666666v-331.4H881.26666666zM928.46666666 890.4H177.86666666C141.56666666 890.4 111.66666666 860.6 111.66666666 824.2v-879.9c0-36.4 29.7-66.2 66.2-66.2H541.66666666V259h453V824.2c0 36.3-29.7 66.2-66.2 66.2zM403.26666666 182.79999999999995H212.96666666v79.3h190.4v-79.3z m5.3 238H218.16666666v79.3h190.4v-79.3z m1 233.2H219.26666666v79.3H409.66666666V654z m238.2-233.2H457.46666666v79.3h190.4v-79.3z m1 233.2H458.46666666v79.3h190.4V654z m239.2 0H697.66666666v79.3h190.4V654z"  horiz-adv-x="1109" />

    
    <glyph glyph-name="SLYEB-" unicode="&#58923;" d="M869.26666666 316.9v-176.8h126.3V316.9H869.26666666z m82-132.7h-37.9v88.4h37.9v-88.4zM669.56666666 65.10000000000002v-44.2H751.66666666V-6h-82.1V-121.20000000000005h126.3v44.3h-82v26.8h82V65.10000000000002zM763.66666666 181.10000000000002V316.9h-77.6v-44.3h33.3v-91.5h-49.8v-44.2h126.3v44.2zM954.36666666 65.10000000000002v-62.7h-44.1v62.7h-44.3v-107h88.4v-79.3H998.66666666V65.10000000000002zM923.06666666 889.2H190.16666666C148.46666666 889.2 114.66666666 855.4 114.66666666 813.6v-859.1c0-41.7 33.8-75.6 75.5-75.6h442V350.20000000000005H998.66666666V813.6c0 41.7-33.8 75.6-75.6 75.6zM533.26666666 181.70000000000005h-313V261h313v-79.3z m162.7 238H221.26666666V499h474.7v-79.3z m196.6 233.2H221.26666666v79.3h671.3v-79.3z"  horiz-adv-x="1109" />

    
    <glyph glyph-name="ZCYEB-" unicode="&#58914;" d="M899.46666666 38.200000000000045L778.86666666 158.79999999999995 658.46666666 38.200000000000045h-0.5v-161.4h0.2v-0.2h241.4v0.2h0.2V38.200000000000045h-0.3z m-43.6-18.7v-98.8H702.16666666v98.7l76.8 76.8 76.9-76.7zM778.86666666 217.20000000000005l187.1-187 31.2 31-218.3 218.3L560.66666666 61.200000000000045l31.2-31zM930.56666666 891.5h-752c-36.5 0-66.4-29.8-66.4-66.4V-57c0-36.4 29.8-66.4 66.4-66.4H609.66666666l0.2 130.9-33.6-33.7-82.4 82.2 285 285 151.9-153.5 66.2-62.2V825.1c0 36.4-29.8 66.4-66.4 66.4zM531.26666666 184h-313v79.3h313V184z m162.7 238H219.26666666v79.3h474.7V422z m196.6 233.2H219.26666666v79.3h671.3v-79.3z"  horiz-adv-x="1109" />

    
    <glyph glyph-name="FZHSYEB-" unicode="&#58915;" d="M663.36666666 278h87.6v-212.2h-87.6zM777.56666666 278h87.6v-212.2h-87.6zM891.76666666 278h87.6v-212.2h-87.6zM644.96666666 34.5v-93.1l178.6-59.1s18.2-9.3 40.9 7c22.7 16.2 167 119.8 167 119.8s13.9 13.6 3.1 27.8c-10.8 14.3-36 3.1-36 3.1l-146.1-85.8s-17.4-12.8-42.6-4.6c-25.2 8.1-69.6 29.8-69.6 29.8s-5 19.7 11.9 12.8c17-7 53.7-23.5 74.6-20.5 20.9 3.1 25.2 11.9 25.9 15.1 0.8 3.1-7.3 15.4-22.4 21.2-15.1 5.8-82.7 36.3-82.7 36.3s-3.1 7.4-27 4.3-75.6-14.1-75.6-14.1zM928.36666666 887.6H178.86666666c-36.3 0-66.1-29.7-66.1-66.1v-878.6c0-36.3 29.7-66.1 66.1-66.1l445.1 2.8-0.3 26.8 0.3 109.5V305.29999999999995h370.4V821.5c0.1 36.3-29.6 66.1-66 66.1zM531.26666666 180h-313v79.3h313V180z m162.7 238.1H219.26666666v79.3h474.7v-79.3z m196.6 233.1H219.26666666v79.3h671.3v-79.3z"  horiz-adv-x="1109" />

    
    <glyph glyph-name="KMYEB-" unicode="&#58916;" d="M586.66666666 221.41111110999998h112.4v-331.4H586.66666666zM734.36666666 221.41111110999998h112.4v-331.4H734.36666666zM882.26666666 221.41111110999998H994.66666666v-331.4H882.26666666zM929.46666666 896.51111111H178.86666666C142.56666666 896.51111111 112.66666666 866.71111111 112.66666666 830.31111111v-879.9c0-36.4 29.7-66.2 66.2-66.2H542.66666666V265.11111111h453V830.31111111c0 36.3-29.7 66.2-66.2 66.2zM498.26666666 188.91111110999998H218.16666666v79.3h280.1v-79.3z m195.7 238.1H219.26666666v79.3h474.7v-79.3zM890.56666666 660.11111111H219.26666666v79.3h671.3V660.11111111z"  horiz-adv-x="1109" />

    
    <glyph glyph-name="XJLLB-" unicode="&#58924;" d="M1058.16666666 625.6c-6.8 2.7-9.5-1-9.5-1-12.1-16.3-30.9-40.9-59.4-38.7-76.9 163.1-242.5 276-434.8 276C305.26666666 861.9 100.36666666 672 76.36666666 429.1h49.6C149.66666666 644.8 332.46666666 812.7 554.56666666 812.7c209.4 0 383.7-149.3 422.9-347.1l0.1 0.1c3.5-17.4 4.6-28.3 4.7-29.4 0.3-2.8 3.6-6.9 10-7.2 6.6-0.3 9.8 7.2 9.8 7.2l61 180.7c0.2 0.2 2.8 5.6-4.9 8.6zM554.76666666-46.89999999999998c-209.4 0-383.7 149.3-422.9 347.1l-0.1-0.1c-3.5 17.4-4.6 28.3-4.7 29.4-0.3 2.8-3.6 6.9-10 7.2-6.6 0.3-9.8-7.2-9.8-7.2L46.06666666 148.70000000000005s-2.6-5.3 5.1-8.4c6.8-2.7 9.5 1 9.5 1 12.1 16.3 30.9 40.9 59.4 38.7 76.9-163.1 242.5-276 434.8-276 249.3 0 454.2 189.9 478.2 432.9h-49.6C959.66666666 121 776.86666666-46.89999999999998 554.76666666-46.89999999999998zM554.56666666 726.5c-190.6 0-345.1-154.5-345.1-345.1s154.5-345.1 345.1-345.1S899.66666666 190.79999999999995 899.66666666 381.4 745.16666666 726.5 554.56666666 726.5z m130.8-339.1v-57.1H592.66666666v-37.5h92.7v-57.1H592.66666666v-78.1h-67.3v78.1h-98.2v57.1h98.2v37.6h-98.2v57H502.66666666L400.86666666 562.6h76l84-154.1 84.1 154.1H720.66666666L619.06666666 387.4h66.3z"  horiz-adv-x="1109" />

    
    <glyph glyph-name="ZCFZB-" unicode="&#58918;" d="M340.56666666 111.03333333c25 5.5 48.3 14.6 71.6 27.4 23.3 12.8 43.3 29.2 58.3 49.3 15 21.9 23.3 45.7 23.3 71.3 0 3.7-5 18.3-16.7 43.8s-26.6 56.6-45 95-36.6 73.1-53.3 106c-16.7 32.9-33.3 65.8-50 100.5s-26.6 51.2-28.3 54.8c-6.7 12.8-15 18.3-28.3 18.3s-21.6-5.5-28.3-18.3c-1.7-1.8-10-20.1-28.3-54.8-16.7-31.1-33.3-65.8-50-98.7s-35-69.4-53.3-106c-18.3-36.5-35-69.4-46.6-95-11.7-25.6-16.7-40.2-16.7-43.8 0-27.4 8.3-51.2 23.3-71.3 15-21.9 35-38.4 58.3-49.3 23.3-12.8 48.3-21.9 71.6-27.4 25-5.5 48.3-9.1 69.9-9.1 21.9-1.8 45.2 1.8 68.5 7.3z m-259.8 148l191.5 383.7 191.5-383.7h-383z m961.3 45.7c-11.5 25.6-26.4 56.6-44.5 95s-36.3 73.1-52.8 106c-16.5 32.9-33 65.8-49.5 100.5s-26.4 51.2-28 54.8c-6.6 12.8-14.8 18.3-28 18.3s-21.4-5.5-28-18.3c-1.6-1.8-9.9-20.1-28-54.8-16.5-34.7-34.6-67.6-49.5-100.5-16.5-32.9-34.6-69.4-52.8-106-18.1-36.5-34.6-69.4-46.2-95-11.5-25.6-16.5-40.2-16.5-43.8 0-27.4 8.2-51.2 23.1-71.3 14.8-21.9 34.6-38.4 57.7-49.3 23.1-12.8 47.8-21.9 70.9-27.4 24.7-5.5 47.8-9.1 69.3-9.1 21.4 0 44.5 3.7 69.3 9.1 24.7 5.5 47.8 14.6 70.9 27.4 23.1 12.8 42.9 29.2 57.7 49.3 14.8 21.9 23.1 45.7 23.1 71.3-1.7 3.6-6.7 18.2-18.2 43.8z m-394.1-45.7l189.6 383.7 189.6-383.7H647.96666666zM634.66666666 849.43333333c-6.1 13.8-15.3 26.1-29.1 35.3-15.3 10.7-32.2 16.9-50.6 16.9s-35.3-6.1-50.6-16.9c-12.3-9.2-23-21.5-29.1-35.3H182.96666666v-69H473.66666666c4.6-10.7 10.7-19.9 19.9-29.1 7.7-7.7 14.9-13.8 25.6-18.4v-754.7H182.96666666v-69h743.4v69H595.16666666V732.93333333c10.7 4.6 13.4 10.7 22.6 18.4 9.2 9.2 15.3 18.4 19.9 29.1h288.7v69H634.66666666z m-81.3-64.4c-16.9 0-30.7 13.8-30.7 30.7s13.8 30.7 30.7 30.7 30.7-13.8 30.7-30.7-13.8-30.7-30.7-30.7z"  horiz-adv-x="1111" />

    
    <glyph glyph-name="LRB-" unicode="&#58917;" d="M530.26666666 412.5V883.2C265.76666666 870.4 55.16666666 652 55.16666666 384.4c0-124.5 45.7-238.3 121.1-325.9l354 354zM579.06666666 412.5l354-354c75.4 87.5 121.1 201.3 121.1 325.9 0 267.7-210.6 486.1-475.1 498.8v-470.7zM370.96666666 184.20000000000005L330.66666666 144l554.3-134.1c4.9 4.3 9.7 8.7 14.6 13.2l-43.7 43.7-484.9 117.4zM422.66666666 236.10000000000002l348.3-84.3L704.66666666 218l-241.5 58.5zM273.36666666-28.100000000000023c80.1-54.8 177-87.1 281.4-87.1 21.1 0 41.7 1.4 62 4l-343.4 83.1zM744.36666666-77.70000000000005c26.5 10.9 51.6 24.1 75.7 39.2L278.96666666 92.39999999999998l-46.2-46.2 511.6-123.9zM619.86666666 302.79999999999995L554.66666666 368.1l-39.8-39.9z"  horiz-adv-x="1109" />

    
    <glyph glyph-name="CXPZ-" unicode="&#58920;" d="M986.06222222 169.91999999999996l78.29333334-78.4c11.73333333-11.73333333 11.73333333-31.04 0-42.77333333s-31.04-11.73333333-42.77333334 0l-76.26666666 76.26666666 40.74666666 44.90666667zM839.07555556 252.05333333m-130.88 0a130.88 130.88 0 1 1 261.76 0 130.88 130.88 0 1 1-261.76 0ZM833.63555556 70.39999999999998c-71.68 2.66666667-132.69333333 46.93333333-159.89333334 109.33333333v-30.82666666h-44.48V530.66666667h44.48v-206.08c7.25333333 16.74666667 17.06666667 32.21333333 28.69333334 45.97333333V530.66666667h44.48v-122.56c8.74666667 5.22666667 18.02666667 9.92 27.73333333 13.54666666V530.66666667h44.48V432.74666667c6.93333333 0.85333333 14.08 1.17333333 21.22666667 1.17333333 2.13333333 0 4.37333333-0.10666667 6.4-0.10666667v96.74666667h44.48V426.66666667c29.86666667-8.64 56.64-24.85333333 77.97333333-46.29333334V694.50666667c0 18.45333333-15.14666667 33.49333333-33.49333333 33.49333333H85.90222222c-18.45333333 0-33.49333333-15.14666667-33.49333333-33.49333333v-590.82666667c0-18.45333333 15.14666667-33.49333333 33.49333333-33.49333333h747.73333334v0.21333333zM275.34222222 148.90666667000005H128.35555556V530.66666667H275.34222222v-381.76z m177.81333334 0H305.42222222V530.66666667h147.62666667l0.10666667-381.76z m70.93333333 0h-44.48V530.66666667h44.48v-381.76z m75.30666667 0h-44.48V530.66666667h44.48v-381.76zM315.87555556 590.6133333299999v71.68h378.66666666v-71.68H315.87555556z"  horiz-adv-x="1109" />

    
    <glyph glyph-name="LRPZ-" unicode="&#58921;" d="M660.02051282 145.72307692000004l22.86495726 23.30256411V517.47008547h48.68376069v-298.77606837l31.39829059 32.05470085V517.47008547h48.68376069v-216.94358975l30.1948718 30.96068377V517.47008547H890.52991453v-136.42393162l30.1948718 30.96068376V517.47008547h48.68376068v-55.7948718l27.35042735 28.00683761 57.76410256-54.59145299v261.47008547c0 20.23931624-16.51965812 36.54017094-36.54017094 36.54017094H89.05299146C68.92307692 732.99145299 52.51282051 716.58119658 52.51282051 696.45128205v-645.79829059c0-20.23931624 16.51965812-36.54017094 36.54017095-36.54017095h559.808547l11.15897436 131.61025641z m-9.51794872-45.5111111h-48.68376068V517.47008547h48.68376068v-417.25811965zM340.56752136 661.22393162h413.86666667v-78.44102564H340.56752136v78.44102564z m-44.41709401-561.0119658H135.54871795V517.47008547h160.6017094v-417.25811965z m194.18803419 0H329.08034188V517.47008547h161.25811966v-417.25811965z m77.78461538 0h-48.68376068V517.47008547h48.68376068v-417.25811965zM1004.85470085 419.66495726L946.32478633 360.36923076999994l80.19145298-80.84786325 60.06153846 60.06153846zM921.05299146 335.20683761L754.98119658 167.6034188l79.31623932-80.08205128 166.83760684 166.07179487zM732.00683761 140.90940171l-25.92820513-26.80341881-6.01709402-88.28717948 86.0991453 9.62735043 25.16239316 25.38119658zM1030.34529915 29.976068380000015H884.62222223c-10.83076923 0-19.91111111 8.86153846-19.91111112 19.91111111 0 10.83076923 8.86153846 19.91111111 19.91111112 19.9111111h145.83247862c10.83076923 0 19.91111111-8.86153846 19.91111112-19.9111111-0.10940171-11.04957265-9.08034188-19.91111111-20.02051282-19.91111111z"  horiz-adv-x="1109" />

    
    <glyph glyph-name="suoguan-" unicode="&#58975;" d="M1242.964 407.486c-2.891 36.855-33.242 65.039-70.097 65.039h-38.301v108.398h0.723c0 4.336 0 8.672-0.723 12.285v0.723c-6.504 112.734-99.726 202.343-213.183 202.343-116.347 0-211.015-93.945-213.183-210.292 0-1.445-0.723-3.613-0.723-5.059v-109.121h-42.637c-36.855-3.613-64.316-34.687-64.316-71.543v-359.159c0-39.746 31.797-71.543 71.543-71.543h498.631c39.023 0 70.82 31.074 71.543 70.097l0.723 367.831zM921.383 724.008c73.711 0 135.136-56.367 141.64-129.355-1.445-2.891-0.723-78.769 0-122.128h-284.003v108.398c0.723 79.492 64.316 143.085 142.363 143.085zM1171.421 97.468c0-30.351-24.57-54.922-54.922-54.922h-390.233c-30.351 0-54.922 24.57-54.922 54.922v249.315c0 30.351 24.57 54.922 54.922 54.922h390.233c30.351 0 54.922-24.57 54.922-54.922v-249.315z"  horiz-adv-x="1843" />

    
    <glyph glyph-name="yisuoding-" unicode="&#58978;" d="M763.845 620.669l16.621 13.73 21.68-1.445-8.672 19.512 8.672 19.512-21.68-1.445-16.621 13.73-5.059-20.234-18.789-10.84 18.789-10.84 5.059-21.68zM1070.25 643.794l15.898-15.898 6.504 20.234 18.789 9.394-17.344 13.008-3.613 20.957-17.344-12.285-21.68 4.336 7.227-20.957-9.394-18.789h20.957zM898.258 668.364l20.957 5.781 19.512-10.117v20.957l15.176 14.453-20.957 7.227-10.117 18.789-13.008-16.621-21.68-2.891 13.008-17.344-2.891-20.234zM672.068 542.622l14.453-15.176 7.227 20.234 19.512 10.117-17.344 12.285-2.891 20.957-16.621-13.008-21.68 2.891 5.781-20.234-10.117-18.066h21.68zM1083.98 129.987l-16.621-13.73-21.68 1.445 8.672-19.512-8.672-19.512 21.68 1.445 16.621-13.73 5.059 20.234 18.789 10.84-18.789 10.84-5.059 21.68zM951.012 93.132l-20.957-5.781-19.512 10.117v-20.957l-15.176-14.453 20.957-7.227 10.117-18.789 13.008 16.621 21.68 2.891-13.008 17.344 2.891 20.234zM789.86 116.98l-15.176 15.898-6.504-20.234-18.789-9.394 17.344-13.008 3.613-20.957 17.344 12.285 20.957-4.336-7.227 20.234 9.394 18.789-20.957 0.723zM922.106 838.91c-250.761 0-454.549-203.788-454.549-454.549s203.788-454.549 454.549-454.549 454.549 203.788 454.549 454.549c0 250.038-203.788 454.549-454.549 454.549zM922.106-40.559c-234.14 0-424.92 190.781-424.92 424.92s190.781 424.92 424.92 424.92 424.92-190.781 424.92-424.92c-0.723-234.862-190.781-424.92-424.92-424.92zM922.106 765.2c-210.292 0-381.561-171.269-381.561-381.561s171.269-381.561 381.561-381.561c210.292 0 381.561 171.269 381.561 381.561-0.723 210.292-171.269 381.561-381.561 381.561zM922.106 20.144c-200.898 0-364.217 163.32-364.217 364.217 0 200.898 163.32 364.217 364.217 364.217 200.898 0 364.217-163.32 364.217-364.217 0-72.265-20.957-142.363-61.426-201.62l-7.227 19.512 9.394 19.512-21.68-1.445-15.898 13.73-5.781-20.957-18.789-10.84 18.066-10.84 4.336-20.957 17.344 13.73 20.957-1.445c-66.484-98.281-177.773-162.597-303.514-162.597zM1071.695 566.47c-42.637 34.687-95.39 53.476-149.589 53.476-113.457 0-211.015-80.937-231.972-192.226l15.176-2.891c19.512 104.062 111.289 179.941 217.519 179.941 51.308 0 101.171-18.066 140.195-49.863l8.672 11.562zM922.106 162.507c-51.308 0-100.449 18.066-140.195 49.863l-9.394-11.562c42.637-34.687 95.39-53.476 149.589-53.476 113.457 0 211.015 80.937 231.972 192.226l-15.176 2.891c-19.512-104.062-111.289-179.941-216.796-179.941zM828.161 317.877l14.453-42.637c0.723-2.168 0.723-3.613 0-5.059l-2.168-4.336c-0.723-1.445-2.168-2.168-3.613-3.613-1.445-0.723-2.891-1.445-5.059-2.168l-118.515-40.469c-1.445-0.723-2.891-0.723-5.059-0.723-1.445 0-3.613 0-5.059 0.723l-4.336 2.168c-1.445 0.723-2.168 2.168-2.891 4.336l-36.855 107.675 26.738 9.394 8.672-24.57 85.273 28.906-15.898 46.972-115.625-39.746-7.227 20.957 141.64 48.418 26.738-77.324c0.723-2.168 0.723-3.613 0.723-5.781-0.723-2.168-1.445-3.613-2.168-5.059-0.723-1.445-2.168-2.891-3.613-4.336-1.445-1.445-2.891-2.168-5.059-2.891l-96.836-32.519 17.344-51.308 92.5 31.797-10.84 31.797 26.738 9.394zM846.95 446.51l1.445-10.117 26.016 8.672 7.227-20.957-30.351-10.117 1.445-12.285-26.016-8.672-5.781 44.805 26.016 8.672zM924.996 291.139l-27.461-9.394c-1.445-0.723-2.891-0.723-4.336-0.723-1.445 0-2.891 0-4.336 0.723-1.445 0.723-2.891 0.723-3.613 2.168-1.445 0.723-2.168 2.168-2.891 3.613l-14.453 41.914-17.344-5.781-7.227 20.957 17.344 5.781-7.949 23.125-15.176-5.059-7.227 20.957 55.644 18.789 7.227-20.957-14.453-5.059 7.949-23.125 16.621 5.781 7.227-20.957-16.621-5.781 10.117-30.351 15.898 5.781 5.059-22.402zM896.090 420.494l-20.234 34.687 24.57 8.672 20.957-34.687-25.293-8.672zM917.77 333.053l-22.402 66.484c-0.723 2.168-0.723 3.613-0.723 5.781 0.723 2.168 1.445 3.613 2.168 5.059 0.723 1.445 2.168 2.891 3.613 4.336 1.445 1.445 2.891 2.168 5.059 2.891l22.402 7.227-15.898 46.25 26.738 9.394 15.898-46.25 36.855 13.008 26.738-77.324-26.738-9.394-19.512 56.367-47.695-16.621 19.512-57.090-26.016-10.117zM1004.488 318.6l-28.906 21.68-6.504-28.183c-0.723-2.168-1.445-3.613-2.891-5.059-1.445-1.445-3.613-2.891-5.781-3.613l-25.293-8.672-10.117 19.512 18.789 6.504 7.949 34.687-14.453 41.191 26.016 7.227 15.176-43.359c0.723-2.168 0.723-3.613 0-5.059l-1.445-5.781 18.789 6.504 36.855-27.461-28.183-10.117zM956.793 441.451l-5.059 40.469 24.57 8.672 5.059-40.469-24.57-8.672zM1009.547 451.568l-8.672 25.293c-0.723 2.891-0.723 5.781 0.723 8.672 2.168 4.336 5.059 7.227 10.117 9.394l51.308 17.344-2.891 8.672 26.738 9.394 2.891-8.672 66.484 22.402 13.008-38.301-26.738-9.394-5.781 16.621-106.23-36.133 5.781-16.621-26.738-8.672zM1060.855 426.998l5.059-31.797 39.746-18.789 7.949 2.891-23.125 67.207-69.375-23.848-7.227 20.957 158.261 54.199 7.227-20.957-62.148-20.957 6.504-20.234 57.812 19.512 7.227-20.957-57.812-19.512 9.394-26.738 64.316 21.68 5.781-21.68-103.339-35.41c-2.168-0.723-4.336-0.723-6.504-0.723-2.168 0-3.613 0.723-5.781 2.168l-23.848 10.84 3.613-23.125-26.016-8.672-13.008 84.55 25.293 9.394z"  horiz-adv-x="1843" />

    
    <glyph glyph-name="yulan-" unicode="&#58981;" d="M5.908 892.062l1187.446-1016.123v1016.123h-1187.446zM1029.908 746.338l25.6-5.908-5.908-23.631h86.646v-23.631h-94.523c-7.877-19.692-15.754-35.446-25.6-49.231-5.908 3.938-17.723 9.846-23.631 13.785 15.754 21.662 29.538 55.138 37.415 88.615zM941.292 604.554v-68.923h-27.569v92.554h189.046v-90.585h-29.538v66.954h-131.938zM1083.077 634.092c-5.908 13.785-19.692 31.508-33.477 45.292l23.631 9.846c13.785-13.785 27.569-31.508 35.446-43.323l-25.6-11.815zM953.108 742.4h27.569v-106.338h-27.569v106.338zM892.062 728.615h25.6v-82.708h-25.6v82.708zM699.077 732.554h147.692v-23.631h-57.108c-3.938-9.846-5.908-17.723-9.846-25.6h55.138v-139.815h-27.569v114.215h-72.862v-116.185h-25.6v139.815h43.323c1.969 7.877 3.938 17.723 5.908 25.6h-59.077v25.6zM657.723 573.046c3.938 9.846 9.846 25.6 13.785 41.354h-25.6v-108.308c0-13.785-1.969-21.662-11.815-25.6-9.846-3.938-23.631-3.938-43.323-3.938-1.969 7.877-5.908 19.692-7.877 25.6h31.508c3.938 0 5.908 1.969 5.908 3.938v108.308h-45.292v23.631h66.954c-15.754 11.815-37.415 25.6-53.169 35.446l15.754 17.723c7.877-3.938 15.754-9.846 25.6-15.754 9.846 9.846 19.692 21.662 27.569 33.477h-74.831v23.631h90.585l5.908 1.969 15.754-11.815c-11.815-19.692-29.538-43.323-47.262-59.077 9.846-5.908 17.723-11.815 23.631-17.723l-5.908-9.846h21.662l17.723-3.938c-7.877-23.631-15.754-49.231-23.631-66.954l-23.631 7.877zM701.046 476.554c-3.938 5.908-11.815 15.754-17.723 19.692 66.954 21.662 74.831 61.046 74.831 90.585v55.138h25.6v-57.108c0-37.415-9.846-80.738-82.708-108.308zM827.077 474.585c-11.815 11.815-33.477 33.477-51.2 47.262l17.723 15.754c17.723-13.785 41.354-33.477 53.169-45.292l-19.692-17.723zM1100.8 478.523h-47.262c-31.508 0-39.385 5.908-39.385 31.508v29.538c-9.846-23.631-41.354-47.262-118.154-64.985-3.938 5.908-11.815 15.754-17.723 21.662 104.369 19.692 112.246 51.2 112.246 72.862v23.631h27.569v-23.631c0-5.908 0-9.846-1.969-15.754h23.631v-43.323c0-7.877 1.969-7.877 15.754-7.877h41.354c9.846 0 11.815 3.938 13.785 29.538 5.908-3.938 15.754-7.877 23.631-9.846-1.969-35.446-9.846-43.323-33.477-43.323z"  horiz-adv-x="1201" />

    
    <glyph glyph-name="yingjiaoshuifeibiao-" unicode="&#58986;" d="M551.99999999 379v50c-1.2 4.6-4 7.4-8.6 8.6H441.49999999c-5.8-1.2-8.6-4-8.6-8.6v-48.3c0-5.8 2.8-8.6 8.6-8.6h101.9c5.8-1.3 8.6 1.1 8.6 6.9zM975.69999999 831.2h-4.2v0.1H179.69999999c-28-0.8-50.7-23.9-50.7-52.1V-12.600000000000023h0.1c0.8-28 23.9-50.7 52.1-50.7h796.1v0.1c27.3 0.7 49.5 22.7 50.6 49.9V780.6c-0.9 28-24 50.6-52.2 50.6z m-642.9-511c-3.4 4.6-5.8 8.1-6.9 10.4v-152c-1.2-12.6-9.3-19.6-24.2-20.7-15 1.2-22.4 8.1-22.4 20.7V322c-15-36.8-30-53.5-44.9-50-24.2 4.6-27.7 20.7-10.4 48.3l1.8 1.8c18.4 25.3 34.4 58.1 48.3 98.4h-36.3c-11.6 0-17.9 7.4-19 22.4 1.2 15 8.1 23 20.7 24.2h39.7v39.7c-9.3-1.2-18.4-1.8-27.7-1.8-16.1-1.2-25.3 6.2-27.7 22.4 1.2 15 9.8 23 25.8 24.2 20.7 0 39.1 1.2 55.3 3.4 16 1.2 29.8 3.4 41.4 6.9 15 2.3 24.9-3.4 29.4-17.2 1.2-15-5.2-24.2-19-27.7-10.4-3.4-20.7-5.2-31.1-5.2v-44.9h24.2c12.6-1.2 19-9.3 19-24.2-1.2-15-8.1-22.4-20.7-22.4h-22.4v-12.1c4.6-8.1 9.3-15 13.8-20.7 28.8-33.5 42.1-52.8 39.7-58.7-1.2-16.1-8.6-24.2-22.4-24.2-7.8-1-16 4.1-24 15.6z m231.3-153.6h-24.2c-28.8 1.2-43.3 14.4-43.3 39.7V327h-20.7c0-80.5-29.4-134.6-88.1-162.2-18.4-8.1-32.3-5.8-41.4 6.9-8.1 13.8-3.4 25.4 13.8 34.4 47.2 18.4 70.2 58.7 69.1 120.8h-13.8c-21.8-1.2-32.3 9.3-31.1 31.1v93.2c0 20.7 11.4 31.1 34.4 31.1h15.6c-4.6 0-10.4 7.4-17.2 22.4v3.4c-5.8 10.4-10.4 18.4-13.8 24.2-5.8 8.1-8.1 14.4-6.9 19 2.3 15 13.8 20.7 34.4 17.2 9.3-4.6 19-16.1 29.4-34.4 13.8-28.8 15-46.1 3.4-51.9h57.1c-6.9 2.3-8.1 8.6-3.4 19 1.2 1.2 2.3 2.8 3.4 5.2 8.1 10.4 19 27.7 32.8 51.9 6.9 10.4 16.7 12.6 29.4 6.9 11.4-5.8 15-15 10.4-27.7-11.6-25.3-23-43.8-34.4-55.3h10.4c19.6-1.2 29.8-11.6 31.1-31.1v-89.8c1.2-25.3-9.3-36.8-31.1-34.4h-25.8v-100.1c0-8.1 2.8-12.1 8.6-12.1h10.4c9.3-3.4 14.4 14.4 15.6 53.5 1.2 11.4 8.6 17.2 22.4 17.2 13.8-2.4 20.7-9.3 20.7-20.7-0.2-69.9-19.1-102.7-57.2-98.1z m266.7 30.1H671.99999999v50.7h158.8v-50.7z m76 131.3H671.99999999v50.6h234.8V328z m73.7 137.7H670.99999999v50.7h309.5v-50.7z"  horiz-adv-x="1160" />

    
    <glyph glyph-name="zhichu" unicode="&#59000;" d="M339.382857 749.714286h724.845714c24.868571 0 38.765714 14.628571 39.497143 38.765714V857.234286c0 24.137143-14.628571 38.765714-39.497143 38.765714H337.92c-24.137143 0-38.765714-14.628571-38.765714-38.034286v-66.56c-0.731429-27.794286 13.165714-41.691429 40.228571-41.691428z m836.754286-774.582857c0 29.988571-13.165714 43.154286-42.422857 43.154285h-315.245715c-6.582857 0-10.971429-2.194286-14.628571-7.314285-21.211429-32.182857-45.348571-60.708571-73.874286-86.308572-20.48-18.285714-42.422857-35.108571-66.56-51.2 3.657143-0.731429 5.12-0.731429 5.851429-0.731428h470.308571c21.942857 0 36.571429 15.36 36.571429 36.571428v65.828572zM848.457143 457.142857c-0.731429-5.12 2.194286-8.777143 3.657143-12.434286 15.36-39.497143 25.6-80.457143 28.525714-122.88 0.731429-8.777143 2.925714-10.971429 11.702857-10.971428h244.297143c24.137143 0 38.765714 14.628571 38.765714 38.034286v68.754285c0 25.6-14.628571 39.497143-39.497143 39.497143H848.457143z m181.394286 111.177143v69.485714c0 24.137143-14.628571 38.765714-39.497143 38.765715H661.942857c3.657143-2.925714 5.12-3.657143 6.582857-5.12 54.125714-35.84 99.474286-80.457143 135.314286-135.314286 3.657143-5.851429 8.045714-6.582857 13.897143-6.582857h173.348571c24.137143 0.731429 38.765714 15.36 38.765715 38.765714zM1067.885714 237.714286h-178.468571c-6.582857 0-8.777143-2.194286-8.777143-8.777143-1.462857-18.285714-4.388571-36.571429-8.045714-54.857143-5.851429-27.794286-14.628571-54.857143-25.6-82.651429H1067.885714c19.017143 0 33.645714 15.36 34.377143 34.377143 0.731429 25.6 0.731429 51.931429 0 77.531429 0 19.017143-15.36 34.377143-34.377143 34.377143z m-261.851428 35.108571C806.034286 493.714286 626.834286 675.84 409.6 676.571429 182.857143 677.302857 1.462857 498.834286 1.462857 275.017143c0-222.354286 179.931429-403.017143 401.554286-403.017143 221.622857 0 403.017143 179.931429 403.017143 400.822857zM401.554286-54.857143c-180.662857 0.731429-327.68 149.211429-326.948572 331.337143C75.337143 457.142857 223.817143 604.16 404.48 603.428571c180.662857-0.731429 328.411429-148.48 327.68-329.142857 0-182.857143-147.017143-329.874286-330.605714-329.142857z m2.925714 621.714286c-159.451429 0.731429-292.571429-130.194286-293.302857-288.914286-0.731429-163.84 128.731429-295.497143 291.108571-296.228571 161.645714-0.731429 293.302857 130.194286 294.034286 291.84 0.731429 160.914286-130.194286 292.571429-291.84 293.302857z m138.971429-299.154286v-48.274286H449.097143v-27.062857h93.622857v-48.274285H449.097143v-59.245715H360.594286v59.245715H264.045714v48.274285h95.817143v27.062857H264.045714v48.274286h68.022857l-78.262857 138.971429h100.205715l50.468571-109.714286 49.737143 109.714286h100.937143l-77.531429-138.971429h65.828572z"  horiz-adv-x="1177" />

    
    <glyph glyph-name="SYB-" unicode="&#58996;" d="M580.99999999 693.7V888.1C471.69999999 882.9 384.79999999 792.6 384.79999999 682.1c0-51.4 18.9-98.4 50-134.5l146.2 146.1zM601.19999999 693.7l146.1-146.1c31.2 36.1 50 83.2 50 134.5 0 110.5-86.9 200.8-196.2 206l0.1-194.4zM515.19999999 599.5l-16.6-16.6 228.8-55.4c2.1 1.8 4 3.6 6 5.4L715.29999999 551l-200.1 48.5zM536.49999999 620.8L680.29999999 586l-27.3 27.5-99.7 24zM474.79999999 511.8c33.1-22.6 73-35.9 116.2-35.9 8.7 0 17.2 0.6 25.6 1.7L474.79999999 511.8zM669.29999999 491.3c10.9 4.5 21.4 9.9 31.3 16.2l-223.5 54-19.1-19.1 211.3-51.1zM617.99999999 648.4l-27 27-16.4-16.5zM627.69999999 482.2v-114.6h362.4v-251.2c47.5-16.7 81.2-61.8 81.2-114.6 0-67.4-54.4-122-122-122-67.1 0-122 54.5-122 122 0 52.8 34.1 97.9 81.2 114.6v170H627.69999999v-169.8c47.5-16.7 81.2-61.8 81.2-114.6 0-67.4-54.4-122-122-122-67.1 0-122 54.5-122 122 0 52.8 34.1 97.9 81.2 114.6V286.4H265.39999999v-169.8c47.5-16.7 81.2-61.8 81.2-114.6 0-67.4-54.4-122-122-122-67.1 0-122 54.5-122 122 0 52.8 34.1 97.9 81.2 114.6v251h362.4V482.2"  horiz-adv-x="1160" />

    
    <glyph glyph-name="WBSZ-1" unicode="&#59015;" d="M505.173333 764.586667c-206.506667 0-373.76-167.253333-373.76-373.76 0-206.506667 167.253333-373.76 373.76-373.76 22.186667 0 44.373333 1.706667 64.853334 5.12-11.946667 22.186667-20.48 46.08-25.6 71.68H460.8v35.84h-5.12c-63.146667 0-119.466667 46.08-119.466667 105.813333v47.786667H426.666667v-37.546667c0-17.066667 15.36-32.426667 35.84-35.84v148.48h-11.946667c-61.44 0-112.64 42.666667-112.64 95.573333v90.453334c0 59.733333 56.32 105.813333 119.466667 105.813333h3.413333v35.84h87.04v-35.84h5.12c63.146667 0 119.466667-47.786667 119.466667-105.813333v-47.786667h-88.746667v39.253333c0 17.066667-15.36 32.426667-35.84 35.84v-138.24h17.066667c29.013333 0 54.613333-10.24 75.093333-27.306666 56.32 51.2 133.12 83.626667 216.746667 83.626666h10.24C822.613333 646.826667 677.546667 764.586667 505.173333 764.586667zM547.84 261.12c8.533333 25.6 18.773333 49.493333 32.426667 73.386667-5.12 10.24-17.066667 18.773333-32.426667 22.186666v-95.573333zM426.666667 534.1866669999999v-69.973334c0-17.066667 15.36-29.013333 35.84-30.72v136.533334c-20.48-3.413333-35.84-17.066667-35.84-35.84zM856.746667 257.70666700000004c-52.906667 0-95.573333-42.666667-95.573334-95.573334s42.666667-95.573333 95.573334-95.573333 95.573333 42.666667 95.573333 95.573333-42.666667 95.573333-95.573333 95.573334z m0-143.36c-27.306667 0-47.786667 22.186667-47.786667 47.786666 0 27.306667 22.186667 47.786667 47.786667 47.786667S904.533333 187.73333300000002 904.533333 162.133333c0-27.306667-22.186667-47.786667-47.786666-47.786666zM1138.346667 218.45333300000004c-3.413333 20.48-17.066667 32.426667-32.426667 32.426667h-1.706667c-35.84 0-64.853333 29.013333-64.853333 64.853333 0 11.946667 5.12 23.893333 5.12 23.893334 8.533333 17.066667 1.706667 39.253333-13.653333 49.493333h-1.706667l-69.973333 39.253333h-1.706667c-5.12 1.706667-10.24 3.413333-17.066667 3.413334-11.946667 0-23.893333-5.12-32.426666-13.653334-8.533333-10.24-34.133333-29.013333-51.2-29.013333s-42.666667 20.48-51.2 29.013333-20.48 13.653333-32.426667 13.653334c-5.12 0-11.946667-1.706667-17.066667-3.413334h-1.706666L682.666667 390.826667l-1.706667-1.706667c-15.36-10.24-22.186667-32.426667-13.653333-49.493333 0 0 5.12-13.653333 5.12-23.893334 0-35.84-29.013333-64.853333-64.853334-64.853333h-1.706666c-15.36 0-29.013333-11.946667-32.426667-32.426667 0-3.413333-6.826667-32.426667-6.826667-56.32s5.12-52.906667 6.826667-56.32c3.413333-20.48 17.066667-32.426667 32.426667-32.426666h1.706666c35.84 0 64.853333-29.013333 64.853334-64.853334 0-11.946667-5.12-23.893333-5.12-23.893333-8.533333-17.066667-1.706667-39.253333 13.653333-49.493333h1.706667l68.266666-39.253334h1.706667c5.12-1.706667 10.24-3.413333 17.066667-3.413333 11.946667 0 23.893333 5.12 32.426666 13.653333 8.533333 10.24 34.133333 30.72 52.906667 30.72s42.666667-20.48 52.906667-30.72c8.533333-8.533333 20.48-13.653333 32.426666-13.653333 5.12 0 11.946667 1.706667 17.066667 3.413333h1.706667l71.68 39.253334 1.706666 1.706666c15.36 10.24 22.186667 32.426667 13.653334 49.493334 0 0-5.12 13.653333-5.12 23.893333 0 35.84 29.013333 64.853333 64.853333 64.853333h1.706667c15.36 0 29.013333 13.653333 32.426666 32.426667 0 1.706667 6.826667 32.426667 6.826667 56.32-3.413333 22.186667-8.533333 51.2-8.533333 54.613333z m-61.44-95.573333c-54.613333-6.826667-95.573333-51.2-95.573334-105.813333 0-13.653333 3.413333-27.306667 6.826667-34.133334l-51.2-29.013333c-3.413333 3.413333-11.946667 11.946667-20.48 18.773333-20.48 15.36-40.96 23.893333-59.733333 23.893334s-39.253333-8.533333-59.733334-22.186667c-6.826667-5.12-13.653333-11.946667-20.48-17.066667l-49.493333 27.306667c3.413333 8.533333 6.826667 20.48 6.826667 34.133333 0 54.613333-40.96 100.693333-95.573334 105.813334-3.413333 8.533333-6.826667 23.893333-6.826666 37.546666 0 11.946667 1.706667 29.013333 3.413333 37.546667 54.613333 6.826667 95.573333 51.2 95.573333 105.813333 0 13.653333-3.413333 27.306667-6.826666 34.133334l52.906666 29.013333c3.413333-3.413333 11.946667-10.24 20.48-17.066667 20.48-15.36 39.253333-22.186667 58.026667-22.186666s37.546667 6.826667 58.026667 22.186666c10.24 6.826667 17.066667 13.653333 20.48 17.066667l51.2-29.013333c-3.413333-8.533333-6.826667-20.48-6.826667-34.133334 0-54.613333 40.96-100.693333 95.573333-105.813333 1.706667-8.533333 3.413333-25.6 3.413334-37.546667 3.413333-13.653333 0-29.013333 0-39.253333zM609.28-37.54666699999996c-32.426667-8.533333-68.266667-11.946667-104.106667-11.946666-242.346667 0-440.32 196.266667-440.32 440.32 0 242.346667 196.266667 440.32 440.32 440.32 213.333333 0 390.826667-150.186667 431.786667-351.573334 18.773333-5.12 35.84-10.24 52.906667-18.773333C955.733333 696.3199999999999 750.933333 878.933333 505.173333 878.933333 235.52 878.933333 17.066667 660.48 17.066667 390.826667s218.453333-488.106667 488.106666-488.106667c49.493333 0 97.28 6.826667 143.36 20.48-15.36 11.946667-27.306667 25.6-39.253333 39.253333z"  horiz-adv-x="1160" />

    
    <glyph glyph-name="WBYEB-1" unicode="&#59016;" d="M928.66666666 208.60000000000002s-113.9 45.7-187.7 0c0 0-31.2-35 27-49.6 0 0 101.9-7.6 112.8-20.6 0 0 30.2-21.1-69.6-20 0 0-44.2 3.9-62.9 16.3l-29.1-16.3s67-45.1 178.8-16.3c0 0 52.8 16.3 24.6 49.4 0 0-30.2 28.5-111.2 27.4 0 0-55.8 10.5-25.3 20.3 0 0 47.5 18.8 113.6-10.1l29 19.5zM814.36666666 246.29999999999995h33.3v-169.1h-33.3zM825.06666666 298.20000000000005c-107.9 0-195.4-61.1-195.4-136.4s87.4-136.4 195.4-136.4 195.4 61.1 195.4 136.4-87.5 136.4-195.4 136.4z m0.5-239.1c-90 0-163.1 46-163.1 102.7s73 102.7 163.1 102.7 163.1-46 163.1-102.7-73.1-102.7-163.1-102.7zM1014.26666666 127.70000000000005c-0.1-0.2-0.2-0.5-0.2-0.7-0.3-0.8-0.6-1.5-0.8-2.3-0.1-0.3-0.3-0.8-0.6-1.1-0.2-0.6-0.6-1.1-0.7-1.8-0.2-0.5-0.3-0.8-0.6-1.2-0.3-0.6-0.6-1.2-0.8-1.8-0.2-0.3-0.3-0.7-0.6-1.1-0.5-0.9-0.8-1.7-1.3-2.6-0.2-0.5-0.6-0.9-0.7-1.5-0.2-0.5-0.6-0.9-0.7-1.4-0.3-0.6-0.6-1-0.8-1.6-0.2-0.3-0.5-0.8-0.6-1.1-0.3-0.6-0.6-1.1-0.9-1.7-0.1-0.1-0.1-0.2-0.2-0.3-0.8-1.4-1.7-2.7-2.6-4.1-0.1-0.1-0.2-0.3-0.3-0.5-0.5-0.7-0.9-1.2-1.4-1.9-0.1-0.2-0.2-0.3-0.5-0.6-2.1-2.9-4.3-5.9-6.7-8.7l-0.1-0.1c-0.6-0.7-1.3-1.5-1.8-2.1 0-0.9 0.1-1.8 0.1-2.6 0-56.7-73-102.7-163.1-102.7-88 0-159.6 43.9-163.1 98.8-2.1 2-4 4.1-5.9 6.2-0.2 0.2-0.5 0.5-0.6 0.7-0.6 0.6-1 1.1-1.6 1.7-0.2 0.2-0.5 0.5-0.6 0.8-0.6 0.6-0.9 1.1-1.5 1.8-0.1 0.2-0.3 0.3-0.5 0.6-0.9 1.2-1.8 2.5-2.8 3.6-0.1 0.2-0.3 0.5-0.5 0.6-0.5 0.6-0.8 1.1-1.1 1.6-0.2 0.3-0.6 0.7-0.7 1-0.3 0.6-0.7 1-1 1.6-0.3 0.5-0.6 0.8-0.8 1.2l-0.9 1.5c-0.3 0.5-0.6 0.9-0.8 1.4-0.5 0.7-0.8 1.5-1.3 2.1-0.3 0.6-0.7 1.1-1 1.8-0.2 0.5-0.6 0.9-0.7 1.4-0.3 0.6-0.6 1-0.8 1.6-0.2 0.5-0.6 0.9-0.7 1.4-0.3 0.6-0.6 1-0.8 1.6-0.2 0.5-0.5 0.9-0.6 1.4-0.3 0.6-0.6 1.2-0.8 1.8-0.2 0.3-0.3 0.7-0.6 1-4-10.8-6.2-22.2-6.2-34 0-75.3 87.4-136.4 195.4-136.4S1023.26666666 12.100000000000023 1023.26666666 87.39999999999998c-0.2 13.9-3.3 27.5-9 40.3zM1014.26666666 59.700000000000045c-0.1-0.2-0.2-0.5-0.2-0.7-0.3-0.8-0.6-1.5-0.8-2.3-0.1-0.3-0.3-0.8-0.6-1.1-0.2-0.6-0.6-1.1-0.7-1.8-0.2-0.5-0.3-0.8-0.6-1.2-0.3-0.6-0.6-1.2-0.8-1.8-0.2-0.3-0.3-0.7-0.6-1.1-0.5-0.9-0.8-1.7-1.3-2.6-0.2-0.5-0.6-0.9-0.7-1.5-0.2-0.5-0.6-0.9-0.7-1.4-0.3-0.6-0.6-1-0.8-1.6-0.2-0.3-0.5-0.8-0.6-1.1-0.3-0.6-0.6-1.1-0.9-1.7-0.1-0.1-0.1-0.2-0.2-0.3-0.8-1.4-1.7-2.7-2.6-4.1-0.1-0.1-0.2-0.3-0.3-0.5-0.5-0.7-0.9-1.2-1.4-1.9-0.1-0.2-0.2-0.3-0.5-0.6-2.1-2.9-4.3-5.9-6.7-8.7l-0.1-0.1c-0.6-0.7-1.3-1.5-1.8-2.1 0-0.9 0.1-1.8 0.1-2.6 0-56.7-73-102.7-163.1-102.7-88 0-159.6 43.9-163.1 98.8-2.1 2-4 4.1-5.9 6.2-0.2 0.2-0.5 0.5-0.6 0.7-0.6 0.6-1 1.1-1.6 1.7-0.2 0.2-0.5 0.5-0.6 0.8-0.6 0.6-0.9 1.1-1.5 1.8-0.1 0.2-0.3 0.3-0.5 0.6-0.9 1.2-1.8 2.5-2.8 3.6-0.1 0.2-0.3 0.5-0.5 0.6-0.5 0.6-0.8 1.1-1.1 1.6-0.2 0.3-0.6 0.7-0.7 1-0.3 0.6-0.7 1-1 1.6-0.3 0.5-0.6 0.8-0.8 1.2l-0.9 1.5c-0.3 0.5-0.6 0.9-0.8 1.4-0.5 0.7-0.8 1.5-1.3 2.1-0.3 0.6-0.7 1.1-1 1.8-0.2 0.5-0.6 0.9-0.7 1.4-0.3 0.6-0.6 1-0.8 1.6-0.2 0.5-0.6 0.9-0.7 1.4-0.3 0.6-0.6 1-0.8 1.6-0.2 0.5-0.5 0.9-0.6 1.4-0.3 0.6-0.6 1.2-0.8 1.8-0.2 0.3-0.3 0.7-0.6 1-4-10.8-6.2-22.2-6.2-34 0-75.3 87.4-136.4 195.4-136.4S1023.26666666-55.89999999999998 1023.26666666 19.399999999999977c-0.2 13.9-3.3 27.6-9 40.3zM949.66666666 890.4H215.96666666c-41.8 0-75.6-33.9-75.6-75.8v-861.7c0-41.8 33.9-75.8 75.6-75.8h438.9c-37.6 28.3-60.5 65.4-60.5 106.1L591.56666666 179c0 88.8 108.3 160.9 241.7 160.9 78.4 0 147.8-24.9 192-63.5V814.6c0.1 41.8-33.9 75.8-75.6 75.8zM559.36666666 182.89999999999998h-313v79.3h313v-79.3z m162.7 238H247.36666666v79.3h474.7v-79.3z m196.6 233.2H247.36666666v79.3h671.3v-79.3z"  horiz-adv-x="1160" />

    
    <glyph glyph-name="WBMXB-1" unicode="&#59017;" d="M928.93333332 209.60000000000002s-113.9 45.7-187.7 0c0 0-31.2-35 27-49.6 0 0 101.9-7.6 112.8-20.6 0 0 30.2-21.1-69.6-20 0 0-44.2 3.9-62.9 16.3l-29.1-16.3s67-45.1 178.8-16.3c0 0 52.8 16.3 24.6 49.4 0 0-30.2 28.5-111.2 27.4 0 0-55.8 10.5-25.3 20.3 0 0 47.5 18.8 113.6-10.1l29 19.5zM814.63333332 247.29999999999995h33.3v-169.1h-33.3zM825.33333332 299.20000000000005c-107.9 0-195.4-61.1-195.4-136.4s87.4-136.4 195.4-136.4 195.4 61.1 195.4 136.4-87.5 136.4-195.4 136.4z m0.5-239.1c-90 0-163.1 46-163.1 102.7s73 102.7 163.1 102.7 163.1-46 163.1-102.7-73.1-102.7-163.1-102.7zM1014.53333332 128.70000000000005c-0.1-0.2-0.2-0.5-0.2-0.7-0.3-0.8-0.6-1.5-0.8-2.3-0.1-0.3-0.3-0.8-0.6-1.1-0.2-0.6-0.6-1.1-0.7-1.8-0.2-0.5-0.3-0.8-0.6-1.2-0.3-0.6-0.6-1.2-0.8-1.8-0.2-0.3-0.3-0.7-0.6-1.1-0.5-0.9-0.8-1.7-1.3-2.6-0.2-0.5-0.6-0.9-0.7-1.5-0.2-0.5-0.6-0.9-0.7-1.4-0.3-0.6-0.6-1-0.8-1.6-0.2-0.3-0.5-0.8-0.6-1.1-0.3-0.6-0.6-1.1-0.9-1.7-0.1-0.1-0.1-0.2-0.2-0.3-0.8-1.4-1.7-2.7-2.6-4.1-0.1-0.1-0.2-0.3-0.3-0.5-0.5-0.7-0.9-1.2-1.4-1.9-0.1-0.2-0.2-0.3-0.5-0.6-2.1-2.9-4.3-5.9-6.7-8.7l-0.1-0.1c-0.6-0.7-1.3-1.5-1.8-2.1 0-0.9 0.1-1.8 0.1-2.6 0-56.7-73-102.7-163.1-102.7-88 0-159.6 43.9-163.1 98.8-2.1 2-4 4.1-5.9 6.2-0.2 0.2-0.5 0.5-0.6 0.7-0.6 0.6-1 1.1-1.6 1.7-0.2 0.2-0.5 0.5-0.6 0.8-0.6 0.6-0.9 1.1-1.5 1.8-0.1 0.2-0.3 0.3-0.5 0.6-0.9 1.2-1.8 2.5-2.8 3.6-0.1 0.2-0.3 0.5-0.5 0.6-0.5 0.6-0.8 1.1-1.1 1.6-0.2 0.3-0.6 0.7-0.7 1-0.3 0.6-0.7 1-1 1.6-0.3 0.5-0.6 0.8-0.8 1.2l-0.9 1.5c-0.3 0.5-0.6 0.9-0.8 1.4-0.5 0.7-0.8 1.5-1.3 2.1-0.3 0.6-0.7 1.1-1 1.8-0.2 0.5-0.6 0.9-0.7 1.4-0.3 0.6-0.6 1-0.8 1.6-0.2 0.5-0.6 0.9-0.7 1.4-0.3 0.6-0.6 1-0.8 1.6-0.2 0.5-0.5 0.9-0.6 1.4-0.3 0.6-0.6 1.2-0.8 1.8-0.2 0.3-0.3 0.7-0.6 1-4-10.8-6.2-22.2-6.2-34 0-75.3 87.4-136.4 195.4-136.4S1023.53333332 13.100000000000023 1023.53333332 88.39999999999998c-0.2 13.9-3.3 27.5-9 40.3zM1014.53333332 60.700000000000045c-0.1-0.2-0.2-0.5-0.2-0.7-0.3-0.8-0.6-1.5-0.8-2.3-0.1-0.3-0.3-0.8-0.6-1.1-0.2-0.6-0.6-1.1-0.7-1.8-0.2-0.5-0.3-0.8-0.6-1.2-0.3-0.6-0.6-1.2-0.8-1.8-0.2-0.3-0.3-0.7-0.6-1.1-0.5-0.9-0.8-1.7-1.3-2.6-0.2-0.5-0.6-0.9-0.7-1.5-0.2-0.5-0.6-0.9-0.7-1.4-0.3-0.6-0.6-1-0.8-1.6-0.2-0.3-0.5-0.8-0.6-1.1-0.3-0.6-0.6-1.1-0.9-1.7-0.1-0.1-0.1-0.2-0.2-0.3-0.8-1.4-1.7-2.7-2.6-4.1-0.1-0.1-0.2-0.3-0.3-0.5-0.5-0.7-0.9-1.2-1.4-1.9-0.1-0.2-0.2-0.3-0.5-0.6-2.1-2.9-4.3-5.9-6.7-8.7l-0.1-0.1c-0.6-0.7-1.3-1.5-1.8-2.1 0-0.9 0.1-1.8 0.1-2.6 0-56.7-73-102.7-163.1-102.7-88 0-159.6 43.9-163.1 98.8-2.1 2-4 4.1-5.9 6.2-0.2 0.2-0.5 0.5-0.6 0.7-0.6 0.6-1 1.1-1.6 1.7-0.2 0.2-0.5 0.5-0.6 0.8-0.6 0.6-0.9 1.1-1.5 1.8-0.1 0.2-0.3 0.3-0.5 0.6-0.9 1.2-1.8 2.5-2.8 3.6-0.1 0.2-0.3 0.5-0.5 0.6-0.5 0.6-0.8 1.1-1.1 1.6-0.2 0.3-0.6 0.7-0.7 1-0.3 0.6-0.7 1-1 1.6-0.3 0.5-0.6 0.8-0.8 1.2l-0.9 1.5c-0.3 0.5-0.6 0.9-0.8 1.4-0.5 0.7-0.8 1.5-1.3 2.1-0.3 0.6-0.7 1.1-1 1.8-0.2 0.5-0.6 0.9-0.7 1.4-0.3 0.6-0.6 1-0.8 1.6-0.2 0.5-0.6 0.9-0.7 1.4-0.3 0.6-0.6 1-0.8 1.6-0.2 0.5-0.5 0.9-0.6 1.4-0.3 0.6-0.6 1.2-0.8 1.8-0.2 0.3-0.3 0.7-0.6 1-4-10.8-6.2-22.2-6.2-34 0-75.3 87.4-136.4 195.4-136.4S1023.53333332-54.89999999999998 1023.53333332 20.399999999999977c-0.2 13.9-3.3 27.6-9 40.3zM949.93333332 891.4H216.23333332c-41.8 0-75.6-33.9-75.6-75.8v-861.7c0-41.8 33.9-75.8 75.6-75.8h438.9c-37.6 28.3-60.5 65.4-60.5 106.1L591.83333332 180c0 88.8 108.3 160.9 241.7 160.9 78.4 0 147.8-24.9 192-63.5V815.6c0.1 41.8-33.9 75.8-75.6 75.8zM431.13333332 183.79999999999995H240.73333332v79.3h190.4v-79.3z m5.2 238.1H246.03333332v79.3h190.4v-79.3h-0.1z m1 233.2H247.03333332v79.3h190.4v-79.3h-0.1zM675.53333332 421.9H485.23333332v79.3H675.53333332v-79.3z m1 233.2H486.23333332v79.3H676.53333332v-79.3z m239.3 0H725.43333332v79.3h190.4v-79.3z"  horiz-adv-x="1160" />

    
    <glyph glyph-name="icon--1" unicode="&#59185;" d="M793.6 10.24h-51.2v179.2c0 99.84-79.36 179.2-179.2 179.2 99.84 0 179.2 79.36 179.2 179.2v179.2h51.2c15.36 0 25.6 10.24 25.6 25.6s-10.24 25.6-25.6 25.6H281.6c-15.36 0-25.6-10.24-25.6-25.6s10.24-25.6 25.6-25.6h51.2v-179.2c0-99.84 79.36-179.2 179.2-179.2-99.84 0-179.2-79.36-179.2-179.2v-179.2h-51.2c-15.36 0-25.6-10.24-25.6-25.6s10.24-25.6 25.6-25.6h512c15.36 0 25.6 10.24 25.6 25.6s-12.8 25.6-25.6 25.6z m-409.6 537.6v179.2h307.2v-179.2c0-71.68-61.44-128-135.68-128h-38.4c-74.24 0-133.12 58.88-133.12 128z m307.2-537.6H384v179.2c0 71.68 61.44 128 135.68 128h38.4c74.24 0 135.68-56.32 135.68-128-2.56-40.96-2.56-179.2-2.56-179.2z"  horiz-adv-x="1024" />

    
    <glyph glyph-name="icon--" unicode="&#59259;" d="M486.4 606.72l263.68-263.68c10.24-10.24 25.6-10.24 35.84 0 10.24 10.24 10.24 25.6 0 35.84L506.88 657.92c-5.12 5.12-12.8 7.68-20.48 7.68-7.68 0-15.36-2.56-20.48-7.68l-279.04-279.04c-10.24-10.24-10.24-25.6 0-35.84 10.24-10.24 25.6-10.24 35.84 0L486.4 606.72z m0-309.76l212.48-212.48c10.24-10.24 25.6-10.24 35.84-1e-8 10.24 10.24 10.24 25.6 0 35.84000001l-227.84 227.84c-5.12 5.12-12.8 7.68-20.48 7.68-7.68 0-15.36-2.56-20.48-7.68l-227.84-227.84c-10.24-10.24-10.24-25.6 0-35.84 10.24-10.24 25.6-10.24 35.84-1e-8L486.4 296.96000000000004z"  horiz-adv-x="1024" />

    
    <glyph glyph-name="LRCGDJ-" unicode="&#59023;" d="M901.12 465.92c-129.706667 0-233.813333-104.106667-233.813333-233.813333s104.106667-233.813333 233.813333-233.813334 233.813333 104.106667 233.813333 233.813334c0 128-104.106667 233.813333-233.813333 233.813333z m52.906667-98.986667c10.24 10.24 25.6 10.24 35.84 0l35.84-35.84c10.24-10.24 10.24-25.6 0-35.84l-8.533334-8.533333-69.973333 69.973333 6.826667 10.24z m78.506666-256H769.706667v69.973334l167.253333 167.253333 69.973333-69.973333-128-128h153.6V110.933333zM1008.64 771.413333H98.986667c-40.96 0-73.386667-32.426667-73.386667-73.386666v-626.346667c0-40.96 32.426667-73.386667 73.386667-73.386667h631.466666c-71.68 52.906667-119.466667 138.24-119.466666 233.813334 0 160.426667 129.706667 290.133333 290.133333 290.133333 68.266667 0 131.413333-23.893333 182.613333-64.853333v238.933333c0 40.96-34.133333 75.093333-75.093333 75.093333zM378.88 590.506667c6.826667 6.826667 15.36 10.24 23.893333 10.24 8.533333 0 17.066667-3.413333 23.893334-10.24l61.44-61.44h-168.96l59.733333 61.44z m-87.04-395.946667c-1.706667-5.12-5.12-10.24-8.533333-13.653333-3.413333-3.413333-8.533333-6.826667-13.653334-8.533334-5.12-1.706667-10.24-3.413333-17.066666-3.413333s-11.946667 1.706667-17.066667 3.413333c-5.12 1.706667-10.24 5.12-13.653333 8.533334-3.413333 3.413333-6.826667 8.533333-8.533334 13.653333-1.706667 5.12-3.413333 10.24-3.413333 17.066667 0 5.12 1.706667 11.946667 3.413333 17.066666 1.706667 5.12 5.12 10.24 8.533334 13.653334 3.413333 3.413333 8.533333 6.826667 13.653333 8.533333 5.12 1.706667 10.24 3.413333 17.066667 3.413333 5.12 0 11.946667-1.706667 17.066666-3.413333 5.12-1.706667 10.24-5.12 13.653334-8.533333 3.413333-3.413333 6.826667-8.533333 8.533333-13.653334 1.706667-5.12 3.413333-10.24 3.413333-17.066666s-1.706667-11.946667-3.413333-17.066667z m192.853333-1.706667c-1.706667-5.12-5.12-10.24-8.533333-13.653333-3.413333-3.413333-8.533333-6.826667-13.653333-8.533333-5.12-1.706667-10.24-3.413333-17.066667-3.413334-5.12 0-11.946667 1.706667-17.066667 3.413334-5.12 1.706667-10.24 5.12-13.653333 8.533333-3.413333 3.413333-6.826667 8.533333-8.533333 13.653333-1.706667 5.12-3.413333 10.24-3.413334 17.066667 0 5.12 1.706667 11.946667 3.413334 17.066667 1.706667 5.12 5.12 10.24 8.533333 13.653333 3.413333 3.413333 8.533333 6.826667 13.653333 8.533333 5.12 1.706667 10.24 3.413333 17.066667 3.413334 5.12 0 11.946667-1.706667 17.066667-3.413334 5.12-1.706667 10.24-5.12 13.653333-8.533333 3.413333-3.413333 6.826667-8.533333 8.533333-13.653333s3.413333-10.24 3.413334-17.066667-1.706667-11.946667-3.413334-17.066667z m68.266667 288.426667c-1.706667-3.413333-3.413333-8.533333-6.826667-17.066667s-6.826667-18.773333-10.24-29.013333l-10.24-30.72c-3.413333-10.24-6.826667-18.773333-8.533333-23.893333-3.413333-11.946667-8.533333-20.48-15.36-25.6-6.826667-5.12-13.653333-6.826667-22.186667-6.826667H238.933333l6.826667-40.96H477.866667c15.36 0 22.186667-6.826667 22.186666-18.773333 0-6.826667-1.706667-11.946667-5.12-15.36-3.413333-5.12-8.533333-6.826667-17.066666-6.826667H237.226667c-6.826667 0-11.946667 1.706667-15.36 3.413333l-10.24 10.24c-3.413333 5.12-5.12 8.533333-6.826667 15.36-1.706667 5.12-3.413333 10.24-3.413333 15.36 0 1.706667-1.706667 6.826667-1.706667 13.653334-1.706667 6.826667-3.413333 15.36-5.12 27.306666-1.706667 10.24-3.413333 22.186667-6.826667 35.84-1.706667 13.653333-5.12 25.6-6.826666 39.253334-5.12 30.72-11.946667 66.56-20.48 104.106666h-34.133334c-5.12 0-8.533333 1.706667-11.946666 3.413334-3.413333 1.706667-5.12 5.12-6.826667 8.533333-1.706667 3.413333-3.413333 6.826667-3.413333 10.24 0 3.413333-1.706667 6.826667-1.706667 10.24 0 6.826667 1.706667 11.946667 6.826667 15.36 3.413333 3.413333 10.24 6.826667 17.066666 6.826667h46.08c6.826667 0 10.24-1.706667 15.36-3.413334 3.413333-1.706667 6.826667-3.413333 8.533334-6.826666 1.706667-3.413333 3.413333-5.12 5.12-8.533334 1.706667-3.413333 1.706667-5.12 1.706666-8.533333 0-1.706667 1.706667-5.12 1.706667-10.24s1.706667-8.533333 1.706667-13.653333c1.706667-5.12 1.706667-11.946667 3.413333-17.066667h315.733333c8.533333 0 15.36-1.706667 20.48-3.413333 5.12-1.706667 8.533333-5.12 10.24-8.533334 1.706667-3.413333 3.413333-6.826667 3.413334-10.24-5.12-6.826667-5.12-10.24-6.826667-13.653333z"  horiz-adv-x="1160" />

    
    <glyph glyph-name="ZCCGDJ-" unicode="&#59024;" d="M1134.933333 17.066667l-80.213333 80.213333c30.72 35.84 51.2 81.92 51.2 133.12 0 112.64-90.453333 203.093333-203.093333 203.093333C790.186667 433.493333 699.733333 343.04 699.733333 230.4c0-112.64 90.453333-203.093333 203.093334-203.093333 40.96 0 78.506667 11.946667 110.933333 32.426666l83.626667-83.626666 37.546666 40.96z m-232.106666 68.266666c-80.213333 0-145.066667 64.853333-145.066667 145.066667s64.853333 145.066667 145.066667 145.066667 145.066667-64.853333 145.066666-145.066667-64.853333-145.066667-145.066666-145.066667zM1058.133333 790.186667H102.4c-42.666667 0-76.8-34.133333-76.8-76.8v-657.066667c0-42.666667 34.133333-76.8 76.8-76.8h756.053333c-121.173333 20.48-213.333333 126.293333-213.333333 252.586667 0 141.653333 114.346667 256 256 256 102.4 0 191.146667-61.44 232.106667-148.48V711.68c1.706667 42.666667-32.426667 78.506667-75.093334 78.506667zM395.946667 600.746667c6.826667 6.826667 15.36 11.946667 23.893333 11.946666 8.533333 0 17.066667-3.413333 23.893333-10.24l64.853334-64.853333H332.8l63.146667 63.146667z m-90.453334-416.426667c-1.706667-5.12-5.12-10.24-10.24-13.653333-3.413333-3.413333-8.533333-6.826667-13.653333-10.24-5.12-1.706667-11.946667-3.413333-17.066667-3.413334-6.826667 0-11.946667 1.706667-18.773333 3.413334-5.12 1.706667-10.24 5.12-13.653333 10.24-3.413333 3.413333-6.826667 8.533333-10.24 13.653333-1.706667 5.12-3.413333 11.946667-3.413334 17.066667s1.706667 11.946667 3.413334 17.066666c1.706667 5.12 5.12 10.24 10.24 13.653334 3.413333 3.413333 8.533333 6.826667 13.653333 10.24 5.12 1.706667 11.946667 3.413333 18.773333 3.413333 6.826667 0 11.946667-1.706667 17.066667-3.413333 5.12-1.706667 10.24-5.12 13.653333-10.24 3.413333-3.413333 6.826667-8.533333 10.24-13.653334s3.413333-11.946667 3.413334-17.066666-1.706667-11.946667-3.413334-17.066667z m201.386667 0c-1.706667-5.12-5.12-10.24-10.24-13.653333-3.413333-3.413333-8.533333-6.826667-15.36-10.24-5.12-1.706667-11.946667-3.413333-17.066667-3.413334-6.826667 0-11.946667 1.706667-17.066666 3.413334-5.12 1.706667-10.24 5.12-13.653334 10.24-3.413333 3.413333-6.826667 8.533333-10.24 13.653333-1.706667 5.12-3.413333 11.946667-3.413333 17.066667 0 6.826667 1.706667 11.946667 3.413333 17.066666 1.706667 5.12 5.12 10.24 10.24 13.653334 3.413333 3.413333 8.533333 6.826667 13.653334 10.24 5.12 1.706667 11.946667 3.413333 17.066666 3.413333 6.826667 0 11.946667-1.706667 17.066667-3.413333 5.12-1.706667 10.24-5.12 15.36-10.24 3.413333-3.413333 6.826667-8.533333 10.24-13.653334 1.706667-5.12 3.413333-11.946667 3.413333-17.066666 0-6.826667-1.706667-11.946667-3.413333-17.066667zM578.56 486.4c-1.706667-3.413333-3.413333-8.533333-6.826667-18.773333-3.413333-8.533333-6.826667-18.773333-10.24-29.013334-3.413333-10.24-6.826667-22.186667-11.946666-32.426666-3.413333-10.24-6.826667-18.773333-8.533334-25.6-3.413333-13.653333-10.24-22.186667-15.36-27.306667-6.826667-5.12-13.653333-6.826667-23.893333-6.826667H249.173333l6.826667-44.373333h244.053333c15.36 0 23.893333-6.826667 23.893334-20.48 0-6.826667-1.706667-11.946667-5.12-17.066667-3.413333-5.12-8.533333-6.826667-18.773334-6.826666H247.466667c-6.826667 0-11.946667 1.706667-17.066667 5.12-5.12 3.413333-8.533333 6.826667-10.24 11.946666-3.413333 5.12-5.12 10.24-6.826667 15.36-1.706667 5.12-3.413333 10.24-3.413333 15.36 0 1.706667-1.706667 6.826667-3.413333 13.653334s-3.413333 17.066667-5.12 27.306666c-1.706667 11.946667-5.12 23.893333-6.826667 37.546667-3.413333 13.653333-5.12 27.306667-8.533333 40.96-6.826667 32.426667-13.653333 68.266667-20.48 109.226667H128c-5.12 0-8.533333 1.706667-11.946667 3.413333-3.413333 1.706667-5.12 5.12-8.533333 8.533333l-5.12 10.24c0 3.413333-1.706667 6.826667-1.706667 10.24 0 6.826667 1.706667 11.946667 6.826667 15.36 5.12 3.413333 10.24 6.826667 17.066667 6.826667h49.493333c6.826667 0 11.946667-1.706667 15.36-3.413333 3.413333-1.706667 6.826667-5.12 8.533333-6.826667 1.706667-3.413333 3.413333-6.826667 5.12-8.533333s1.706667-6.826667 1.706667-8.533334c0-3.413333 1.706667-6.826667 1.706667-10.24 0-5.12 1.706667-10.24 1.706666-13.653333 1.706667-5.12 1.706667-11.946667 3.413334-18.773333H546.133333c8.533333 0 15.36-1.706667 20.48-3.413334 5.12-1.706667 8.533333-5.12 10.24-8.533333 1.706667-3.413333 3.413333-6.826667 3.413334-11.946667 0-1.706667 0-5.12-1.706667-8.533333z"  horiz-adv-x="1160" />

    
    <glyph glyph-name="LRXSDJ-" unicode="&#59025;" d="M901.12 465.92c-129.706667 0-233.813333-104.106667-233.813333-233.813333s104.106667-233.813333 233.813333-233.813334 233.813333 104.106667 233.813333 233.813334c0 128-104.106667 233.813333-233.813333 233.813333z m52.906667-98.986667c10.24 10.24 25.6 10.24 35.84 0l35.84-35.84c10.24-10.24 10.24-25.6 0-35.84l-8.533334-8.533333-69.973333 69.973333 6.826667 10.24z m78.506666-256H769.706667v69.973334l167.253333 167.253333 69.973333-69.973333-128-128h153.6V110.933333zM217.617067 305.885867l187.050666 187.050666 30.173867-30.173866-187.050667-187.050667zM382.293333 307.2m-32.426666 0a32.426667 32.426667 0 1 1 64.853333 0 32.426667 32.426667 0 1 1-64.853333 0ZM273.066667 460.8m-32.426667 0a32.426667 32.426667 0 1 1 64.853333 0 32.426667 32.426667 0 1 1-64.853333 0ZM1008.64 771.413333H98.986667c-40.96 0-73.386667-32.426667-73.386667-73.386666v-626.346667c0-40.96 32.426667-73.386667 73.386667-73.386667h631.466666c-71.68 52.906667-119.466667 138.24-119.466666 233.813334 0 160.426667 129.706667 290.133333 290.133333 290.133333 68.266667 0 131.413333-23.893333 182.613333-64.853333v238.933333c0 40.96-34.133333 75.093333-75.093333 75.093333zM484.693333 267.946667l-13.653333-83.626667-85.333333 13.653333-59.733334-59.733333-59.733333 61.44-83.626667-13.653333-13.653333 85.333333-76.8 39.253333L131.413333 384l-39.253333 75.093333 76.8 39.253334 13.653333 83.626666 83.626667-13.653333 59.733333 61.44 59.733334-59.733333 85.333333 13.653333 13.653333-83.626667 76.8-39.253333-37.546666-76.8 39.253333-76.8-78.506667-39.253333z"  horiz-adv-x="1160" />

    
    <glyph glyph-name="ZCXSDJ-" unicode="&#59026;" d="M1134.933333 17.066667l-80.213333 80.213333c30.72 35.84 51.2 81.92 51.2 133.12 0 112.64-90.453333 203.093333-203.093333 203.093333C790.186667 433.493333 699.733333 343.04 699.733333 230.4c0-112.64 90.453333-203.093333 203.093334-203.093333 40.96 0 78.506667 11.946667 110.933333 32.426666l83.626667-83.626666 37.546666 40.96z m-232.106666 68.266666c-80.213333 0-145.066667 64.853333-145.066667 145.066667s64.853333 145.066667 145.066667 145.066667 145.066667-64.853333 145.066666-145.066667-64.853333-145.066667-145.066666-145.066667zM285.013333 464.213333m-34.133333 0a34.133333 34.133333 0 1 1 68.266667 0 34.133333 34.133333 0 1 1-68.266667 0ZM228.010667 301.397333l196.693333 196.727467 32.580267-32.597333-196.7104-196.693334zM399.36 303.786667m-34.133333 0a34.133333 34.133333 0 1 1 68.266666 0 34.133333 34.133333 0 1 1-68.266666 0ZM1058.133333 790.186667H102.4c-42.666667 0-76.8-34.133333-76.8-76.8v-657.066667c0-42.666667 34.133333-76.8 76.8-76.8h756.053333c-121.173333 20.48-213.333333 126.293333-213.333333 252.586667 0 141.653333 114.346667 256 256 256 102.4 0 191.146667-61.44 232.106667-148.48V711.68c1.706667 42.666667-32.426667 78.506667-75.093334 78.506667zM506.88 262.826667l-13.653333-88.746667-88.746667 13.653333-63.146667-61.44-63.146666 63.146667-88.746667-15.36-13.653333 90.453333-80.213334 40.96L136.533333 384l-40.96 78.506667 80.213334 40.96 13.653333 87.04 88.746667-15.36L341.333333 640l63.146667-63.146667 88.746667 13.653334 13.653333-88.746667 80.213333-40.96-39.253333-76.8 40.96-80.213333-81.92-40.96z"  horiz-adv-x="1160" />

    
    <glyph glyph-name="LRKCDJ-" unicode="&#59027;" d="M901.12 465.92c-129.706667 0-233.813333-104.106667-233.813333-233.813333s104.106667-233.813333 233.813333-233.813334 233.813333 104.106667 233.813333 233.813334c0 128-104.106667 233.813333-233.813333 233.813333z m52.906667-98.986667c10.24 10.24 25.6 10.24 35.84 0l35.84-35.84c10.24-10.24 10.24-25.6 0-35.84l-8.533334-8.533333-69.973333 69.973333 6.826667 10.24z m78.506666-256H769.706667v69.973334l167.253333 167.253333 69.973333-69.973333-128-128h153.6V110.933333zM245.76 399.36l-69.973333 42.666667c-5.12 3.413333-11.946667 1.706667-13.653334-3.413334l-3.413333-3.413333c-3.413333-5.12-1.706667-11.946667 3.413333-13.653333l69.973334-42.666667c5.12-3.413333 11.946667-1.706667 13.653333 3.413333l1.706667 1.706667c5.12 5.12 3.413333 11.946667-1.706667 15.36zM336.213333 380.586667V179.2l182.613334 105.813333v204.8l-177.493334-102.4c-3.413333-1.706667-5.12-3.413333-5.12-6.826666zM1008.64 771.413333H98.986667c-40.96 0-73.386667-32.426667-73.386667-73.386666v-626.346667c0-40.96 32.426667-73.386667 73.386667-73.386667h631.466666c-71.68 52.906667-119.466667 138.24-119.466666 233.813334 0 160.426667 129.706667 290.133333 290.133333 290.133333 68.266667 0 131.413333-23.893333 182.613333-64.853333v238.933333c0 40.96-34.133333 75.093333-75.093333 75.093333zM549.546667 279.893333v-1.706666c0-5.12-1.706667-11.946667-6.826667-13.653334l-206.506667-119.466666c-1.706667-1.706667-3.413333-1.706667-6.826666-1.706667h-1.706667c-1.706667 0-1.706667 0-3.413333 1.706667L109.226667 273.066667c-1.706667 1.706667-3.413333 3.413333-3.413334 6.826666V510.293333c0 3.413333 1.706667 6.826667 5.12 6.826667L322.56 622.933333c1.706667 1.706667 5.12 1.706667 6.826667 0l215.04-105.813333c3.413333-1.706667 5.12-5.12 5.12-8.533333v-228.693334z"  horiz-adv-x="1160" />

    
    <glyph glyph-name="ZCKCDJ-" unicode="&#59028;" d="M1134.933333 17.066667l-80.213333 80.213333c30.72 35.84 51.2 81.92 51.2 133.12 0 112.64-90.453333 203.093333-203.093333 203.093333C790.186667 433.493333 699.733333 343.04 699.733333 230.4c0-112.64 90.453333-203.093333 203.093334-203.093333 40.96 0 78.506667 11.946667 110.933333 32.426666l83.626667-83.626666 37.546666 40.96z m-232.106666 68.266666c-80.213333 0-145.066667 64.853333-145.066667 145.066667s64.853333 145.066667 145.066667 145.066667 145.066667-64.853333 145.066666-145.066667-64.853333-145.066667-145.066666-145.066667zM351.573333 380.586667v-211.626667l191.146667 110.933333V494.933333l-187.733333-105.813333c-1.706667-3.413333-3.413333-5.12-3.413334-8.533333zM1058.133333 790.186667H102.4c-42.666667 0-76.8-34.133333-76.8-76.8v-657.066667c0-42.666667 34.133333-76.8 76.8-76.8h756.053333c-121.173333 20.48-213.333333 126.293333-213.333333 252.586667 0 141.653333 114.346667 256 256 256 102.4 0 191.146667-61.44 232.106667-148.48V711.68c1.706667 42.666667-32.426667 78.506667-75.093334 78.506667zM575.146667 274.773333v-1.706666c0-5.12-1.706667-11.946667-6.826667-15.36l-215.04-124.586667c-1.706667-1.706667-5.12-1.706667-6.826667-1.706667h-1.706666c-1.706667 0-1.706667 0-3.413334 1.706667L114.346667 266.24c-3.413333 1.706667-3.413333 5.12-3.413334 6.826667V517.12c0 3.413333 1.706667 6.826667 5.12 8.533333l221.866667 110.933334c1.706667 1.706667 5.12 1.706667 8.533333 0l225.28-110.933334c3.413333-1.706667 5.12-5.12 5.12-8.533333v-242.346667zM256 399.36l-73.386667 44.373333c-5.12 3.413333-11.946667 1.706667-15.36-3.413333l-1.706666-1.706667c-3.413333-5.12-1.706667-11.946667 3.413333-15.36l73.386667-44.373333c5.12-3.413333 11.946667-1.706667 15.36 3.413333l1.706666 1.706667c3.413333 5.12 1.706667 11.946667-3.413333 15.36z"  horiz-adv-x="1160" />

    
    <glyph glyph-name="CGYEB-" unicode="&#59030;" d="M675.84-29.013333l-37.546667 184.32c-1.706667 8.533333-10.24 15.36-18.773333 13.653333h-8.533333c-8.533333 0-17.066667 6.826667-18.773334 15.36l-11.946666 78.506667c-1.706667 10.24 6.826667 20.48 17.066666 20.48h116.053334c6.826667 0 13.653333-5.12 17.066666-11.946667l10.24-29.013333c1.706667-6.826667 8.533333-11.946667 17.066667-11.946667 5.12 0 8.533333 1.706667 11.946667 5.12l87.04 80.213333c6.826667 6.826667 17.066667 6.826667 23.893333 0l85.333333-80.213333c3.413333-3.413333 6.826667-5.12 11.946667-5.12h15.36V790.186667C993.28 829.44 960.853333 861.866667 921.6 861.866667H233.813333c-39.253333 0-71.68-32.426667-71.68-71.68v-812.373334c0-39.253333 32.426667-71.68 71.68-71.68h469.333334c-15.36 11.946667-25.6 56.32-27.306667 64.853334zM305.493333 696.32h532.48v-47.786667H305.493333v47.786667z m0-223.573333h334.506667v-47.786667H305.493333v47.786667z m143.36-269.653334h-143.36v47.786667h143.36v-47.786667zM853.333333 256c5.12 5.12 11.946667 8.533333 18.773334 8.533333s13.653333-3.413333 18.773333-8.533333l51.2-51.2H802.133333l51.2 51.2zM781.653333-71.68c-1.706667-5.12-5.12-8.533333-6.826666-11.946667-3.413333-3.413333-6.826667-5.12-11.946667-6.826666-5.12-1.706667-8.533333-3.413333-13.653333-3.413334-5.12 0-10.24 1.706667-13.653334 3.413334-5.12 1.706667-8.533333 5.12-11.946666 6.826666-3.413333 3.413333-5.12 6.826667-6.826667 11.946667-1.706667 5.12-3.413333 8.533333-3.413333 13.653333s1.706667 10.24 3.413333 13.653334c1.706667 5.12 5.12 8.533333 6.826667 11.946666 3.413333 3.413333 6.826667 5.12 11.946666 6.826667 5.12 1.706667 8.533333 3.413333 13.653334 3.413333 5.12 0 10.24-1.706667 13.653333-3.413333 5.12-1.706667 8.533333-3.413333 11.946667-6.826667 3.413333-3.413333 5.12-6.826667 6.826666-11.946666 1.706667-5.12 3.413333-8.533333 3.413334-13.653334s-1.706667-8.533333-3.413334-13.653333zM940.373333-71.68c-1.706667-5.12-5.12-8.533333-6.826666-11.946667-3.413333-3.413333-6.826667-5.12-11.946667-6.826666-5.12-1.706667-8.533333-3.413333-13.653333-3.413334-5.12 0-10.24 1.706667-13.653334 3.413334-5.12 1.706667-8.533333 5.12-11.946666 6.826666-3.413333 3.413333-5.12 6.826667-6.826667 11.946667-1.706667 5.12-3.413333 8.533333-3.413333 13.653333 0 5.12 1.706667 10.24 3.413333 13.653334 1.706667 5.12 5.12 8.533333 6.826667 11.946666 3.413333 3.413333 6.826667 5.12 11.946666 6.826667 5.12 1.706667 8.533333 3.413333 13.653334 3.413333 5.12 0 10.24-1.706667 13.653333-3.413333 5.12-1.706667 8.533333-3.413333 11.946667-6.826667 3.413333-3.413333 5.12-6.826667 6.826666-11.946666 1.706667-5.12 3.413333-8.533333 3.413334-13.653334 0-5.12-1.706667-10.24-3.413334-13.653333zM996.693333 165.546667c0-1.706667-1.706667-6.826667-5.12-13.653334-1.706667-6.826667-5.12-15.36-6.826666-23.893333-3.413333-8.533333-5.12-17.066667-8.533334-25.6s-5.12-15.36-6.826666-20.48c-3.413333-10.24-6.826667-17.066667-11.946667-20.48-5.12-3.413333-11.946667-5.12-18.773333-5.12H737.28l5.12-34.133333h192.853333c11.946667 0 18.773333-5.12 18.773334-15.36 0-5.12-1.706667-10.24-3.413334-13.653334-1.706667-3.413333-6.826667-5.12-13.653333-5.12H735.573333c-5.12 0-8.533333 1.706667-11.946666 3.413334-3.413333 1.706667-6.826667 5.12-8.533334 8.533333-1.706667 3.413333-3.413333 8.533333-5.12 11.946667-1.706667 5.12-1.706667 8.533333-3.413333 11.946666 0 1.706667-1.706667 5.12-1.706667 10.24-1.706667 5.12-1.706667 13.653333-3.413333 22.186667s-3.413333 18.773333-5.12 29.013333c-1.706667 10.24-3.413333 22.186667-6.826667 32.426667-5.12 25.6-10.24 54.613333-17.066666 85.333333h-29.013334c-3.413333 0-6.826667 1.706667-10.24 3.413334-1.706667 1.706667-5.12 3.413333-6.826666 6.826666-1.706667 3.413333-3.413333 5.12-3.413334 8.533334s-1.706667 5.12-1.706666 8.533333c0 5.12 1.706667 8.533333 5.12 11.946667s8.533333 5.12 13.653333 5.12h39.253333c5.12 0 8.533333 0 11.946667-1.706667 3.413333-1.706667 5.12-3.413333 6.826667-5.12 1.706667-1.706667 3.413333-5.12 3.413333-6.826667 0-1.706667 1.706667-5.12 1.706667-6.826666 0-1.706667 1.706667-5.12 1.706666-8.533334s1.706667-6.826667 1.706667-11.946666c0-5.12 1.706667-10.24 1.706667-13.653334h261.12c6.826667 0 11.946667-1.706667 17.066666-3.413333 3.413333-1.706667 6.826667-3.413333 8.533334-6.826667s1.706667-5.12 1.706666-8.533333c1.706667-3.413333 1.706667-5.12 0-8.533333z"  horiz-adv-x="1160" />

    
    <glyph glyph-name="CGMXB-" unicode="&#59031;" d="M675.84-29.013333l-37.546667 184.32c-1.706667 8.533333-10.24 15.36-18.773333 13.653333h-8.533333c-8.533333 0-17.066667 6.826667-18.773334 15.36l-11.946666 78.506667c-1.706667 10.24 6.826667 20.48 17.066666 20.48h116.053334c6.826667 0 13.653333-5.12 17.066666-11.946667l10.24-29.013333c1.706667-6.826667 8.533333-11.946667 17.066667-11.946667 5.12 0 8.533333 1.706667 11.946667 5.12l87.04 80.213333c6.826667 6.826667 17.066667 6.826667 23.893333 0l85.333333-80.213333c3.413333-3.413333 6.826667-5.12 11.946667-5.12h15.36V790.186667C993.28 829.44 960.853333 861.866667 921.6 861.866667H233.813333c-39.253333 0-71.68-32.426667-71.68-71.68v-812.373334c0-39.253333 32.426667-71.68 71.68-71.68h469.333334c-13.653333 6.826667-25.6 56.32-27.306667 64.853334z m27.306667 725.333333h143.36v-47.786667h-143.36v47.786667z m-194.56 0h143.36v-47.786667h-143.36v47.786667z m-51.2-493.226667h-143.36v47.786667h143.36v-47.786667z m0 226.986667h-143.36v47.786667h143.36v-47.786667z m0 218.453333h-143.36v47.786667h143.36v-47.786667z m51.2-170.666666h143.36v-47.786667h-143.36v47.786667zM853.333333 256c5.12 5.12 11.946667 8.533333 18.773334 8.533333 6.826667 0 13.653333-3.413333 18.773333-8.533333l51.2-51.2H802.133333l51.2 51.2zM781.653333-71.68c-1.706667-5.12-5.12-8.533333-6.826666-11.946667-3.413333-3.413333-6.826667-5.12-11.946667-6.826666-5.12-1.706667-8.533333-3.413333-13.653333-3.413334-5.12 0-10.24 1.706667-13.653334 3.413334-5.12 1.706667-8.533333 5.12-11.946666 6.826666-3.413333 3.413333-5.12 6.826667-6.826667 11.946667-1.706667 5.12-3.413333 8.533333-3.413333 13.653333s1.706667 10.24 3.413333 13.653334c1.706667 5.12 5.12 8.533333 6.826667 11.946666 3.413333 3.413333 6.826667 5.12 11.946666 6.826667 5.12 1.706667 8.533333 3.413333 13.653334 3.413333 5.12 0 10.24-1.706667 13.653333-3.413333 5.12-1.706667 8.533333-3.413333 11.946667-6.826667 3.413333-3.413333 5.12-6.826667 6.826666-11.946666 1.706667-5.12 3.413333-8.533333 3.413334-13.653334s-1.706667-8.533333-3.413334-13.653333zM940.373333-71.68c-1.706667-5.12-5.12-8.533333-6.826666-11.946667-3.413333-3.413333-6.826667-5.12-11.946667-6.826666-5.12-1.706667-8.533333-3.413333-13.653333-3.413334-5.12 0-10.24 1.706667-13.653334 3.413334-5.12 1.706667-8.533333 5.12-11.946666 6.826666-3.413333 3.413333-5.12 6.826667-6.826667 11.946667-1.706667 5.12-3.413333 8.533333-3.413333 13.653333 0 5.12 1.706667 10.24 3.413333 13.653334 1.706667 5.12 5.12 8.533333 6.826667 11.946666 3.413333 3.413333 6.826667 5.12 11.946666 6.826667 5.12 1.706667 8.533333 3.413333 13.653334 3.413333 5.12 0 10.24-1.706667 13.653333-3.413333 5.12-1.706667 8.533333-3.413333 11.946667-6.826667 3.413333-3.413333 5.12-6.826667 6.826666-11.946666 1.706667-5.12 3.413333-8.533333 3.413334-13.653334 0-5.12-1.706667-10.24-3.413334-13.653333zM996.693333 165.546667c0-1.706667-1.706667-6.826667-5.12-13.653334-1.706667-6.826667-5.12-15.36-6.826666-23.893333-3.413333-8.533333-5.12-17.066667-8.533334-25.6s-5.12-15.36-6.826666-20.48c-3.413333-10.24-6.826667-17.066667-11.946667-20.48-5.12-3.413333-11.946667-5.12-18.773333-5.12H737.28l5.12-34.133333h192.853333c11.946667 0 18.773333-5.12 18.773334-15.36 0-5.12-1.706667-10.24-3.413334-13.653334-1.706667-3.413333-6.826667-5.12-13.653333-5.12H735.573333c-5.12 0-8.533333 1.706667-11.946666 3.413334-3.413333 1.706667-6.826667 5.12-8.533334 8.533333-1.706667 3.413333-3.413333 8.533333-5.12 11.946667-1.706667 5.12-1.706667 8.533333-3.413333 11.946666 0 1.706667-1.706667 5.12-1.706667 10.24-1.706667 5.12-1.706667 13.653333-3.413333 22.186667s-3.413333 18.773333-5.12 29.013333c-1.706667 10.24-3.413333 22.186667-6.826667 32.426667-5.12 25.6-10.24 54.613333-17.066666 85.333333h-29.013334c-3.413333 0-6.826667 1.706667-10.24 3.413334-1.706667 1.706667-5.12 3.413333-6.826666 6.826666-1.706667 3.413333-3.413333 5.12-3.413334 8.533334s-1.706667 5.12-1.706666 8.533333c0 5.12 1.706667 8.533333 5.12 11.946667 3.413333 3.413333 8.533333 5.12 13.653333 5.12h39.253333c5.12 0 8.533333 0 11.946667-1.706667 3.413333-1.706667 5.12-3.413333 6.826667-5.12 1.706667-1.706667 3.413333-5.12 3.413333-6.826667 0-1.706667 1.706667-5.12 1.706667-6.826666 0-1.706667 1.706667-5.12 1.706666-8.533334s1.706667-6.826667 1.706667-11.946666c0-5.12 1.706667-10.24 1.706667-13.653334h261.12c6.826667 0 11.946667-1.706667 17.066666-3.413333 3.413333-1.706667 6.826667-3.413333 8.533334-6.826667s1.706667-5.12 1.706666-8.533333c1.706667-3.413333 1.706667-5.12 0-8.533333z"  horiz-adv-x="1160" />

    
    <glyph glyph-name="XSYEB-" unicode="&#59032;" d="M525.653333 131.413333c0 136.533333 110.933333 245.76 245.76 245.76 100.693333 0 187.733333-61.44 225.28-148.48V790.186667c0 39.253333-32.426667 71.68-71.68 71.68H233.813333c-39.253333 0-71.68-32.426667-71.68-71.68v-812.373334c0-39.253333 32.426667-71.68 71.68-71.68h442.026667c-88.746667 37.546667-150.186667 124.586667-150.186667 225.28zM305.493333 696.32h532.48v-47.786667H305.493333v47.786667z m0-223.573333h334.506667v-47.786667H305.493333v47.786667z m143.36-269.653334h-143.36v47.786667h143.36v-47.786667zM942.08 131.413333l34.133333 66.56-66.56 34.133334-11.946666 73.386666-73.386667-11.946666-52.906667 52.906666-52.906666-52.906666-73.386667 11.946666-11.946667-71.68-66.56-34.133333 34.133334-64.853333-34.133334-66.56 66.56-34.133334 11.946667-73.386666 73.386667 11.946666 52.906666-52.906666 52.906667 51.2 73.386667-11.946667 11.946666 73.386667 66.56 34.133333-34.133333 64.853333z m-245.76 121.173334c23.893333 0 42.666667-18.773333 42.666667-42.666667s-18.773333-42.666667-42.666667-42.666667-42.666667 18.773333-42.666667 42.666667 20.48 42.666667 42.666667 42.666667z m153.6-247.466667c-23.893333 0-42.666667 18.773333-42.666667 42.666667s18.773333 42.666667 42.666667 42.666666 42.666667-18.773333 42.666667-42.666666-18.773333-42.666667-42.666667-42.666667z m-148.48 6.826667l-42.666667 42.666666 203.093334 203.093334L904.533333 213.333333 701.44 11.946667z"  horiz-adv-x="1160" />

    
    <glyph glyph-name="XSMXB-" unicode="&#59033;" d="M527.36 131.413333c0 134.826667 109.226667 245.76 245.76 245.76 100.693333 0 189.44-61.44 225.28-150.186666v563.2c0 39.253333-32.426667 71.68-71.68 71.68H233.813333c-39.253333 0-71.68-32.426667-71.68-71.68v-812.373334c0-39.253333 32.426667-71.68 71.68-71.68h442.026667c-87.04 37.546667-148.48 124.586667-148.48 225.28zM703.146667 674.133333h143.36v-47.786666h-143.36V674.133333z m-194.56 0h143.36v-47.786666h-143.36V674.133333z m-51.2-493.226666h-143.36v47.786666h143.36v-47.786666z m0 226.986666h-143.36v47.786667h143.36v-47.786667z m0 218.453334h-143.36V674.133333h143.36v-47.786666z m51.2-170.666667h143.36v-47.786667h-143.36v47.786667zM942.08 131.413333l34.133333 66.56-66.56 34.133334-11.946666 73.386666-73.386667-11.946666-52.906667 52.906666-52.906666-52.906666-73.386667 11.946666-11.946667-71.68-66.56-34.133333 34.133334-64.853333-34.133334-66.56 66.56-34.133334 11.946667-73.386666 73.386667 11.946666 52.906666-52.906666 52.906667 51.2 73.386667-11.946667 11.946666 73.386667 66.56 34.133333-34.133333 64.853333z m-245.76 121.173334c23.893333 0 42.666667-18.773333 42.666667-42.666667s-18.773333-42.666667-42.666667-42.666667-42.666667 18.773333-42.666667 42.666667 20.48 42.666667 42.666667 42.666667z m153.6-247.466667c-23.893333 0-42.666667 18.773333-42.666667 42.666667s18.773333 42.666667 42.666667 42.666666 42.666667-18.773333 42.666667-42.666666-18.773333-42.666667-42.666667-42.666667z m-148.48 6.826667l-42.666667 42.666666 203.093334 203.093334L904.533333 213.333333 701.44 11.946667z"  horiz-adv-x="1160" />

    
    <glyph glyph-name="KCYEB-" unicode="&#59034;" d="M607.573333-20.48l-3.413333 249.173333 220.16 124.586667 165.546667-85.333333V790.186667C989.866667 829.44 959.146667 861.866667 918.186667 861.866667H225.28C186.026667 861.866667 153.6 829.44 153.6 790.186667v-812.373334c0-39.253333 32.426667-71.68 71.68-71.68h503.466667l-121.173334 73.386667z m-310.613333 716.8h532.48v-47.786667H296.96v47.786667z m0-223.573333H631.466667v-47.786667H296.96v47.786667z m143.36-269.653334h-143.36v47.786667h143.36v-47.786667zM1006.933333 197.973333c0 1.706667-1.706667 5.12-3.413333 6.826667l-170.666667 83.626667c-1.706667 1.706667-3.413333 1.706667-5.12 0l-167.253333-83.626667c-1.706667-1.706667-3.413333-3.413333-3.413333-5.12v-182.613333c0-1.706667 1.706667-5.12 3.413333-5.12l170.666667-102.4c1.706667 0 1.706667 0 3.413333-1.706667h1.706667c1.706667 0 3.413333 0 5.12 1.706667l163.84 93.866666c3.413333 1.706667 6.826667 6.826667 5.12 11.946667v1.706667L1006.933333 197.973333c0-1.706667 0-1.706667 0 0z m-238.933333-100.693333c-3.413333-5.12-8.533333-6.826667-11.946667-5.12l-56.32 34.133333c-3.413333 1.706667-5.12 6.826667-3.413333 11.946667l1.706667 1.706667c1.706667 3.413333 6.826667 5.12 11.946666 3.413333l56.32-34.133333c3.413333-3.413333 5.12-8.533333 1.706667-11.946667z m215.04-78.506667l-145.066667-83.626666V93.866667c0 1.706667 1.706667 5.12 3.413334 5.12l141.653333 80.213333v-160.426667z"  horiz-adv-x="1160" />

    
    <glyph glyph-name="KCMXB-" unicode="&#59035;" d="M918.186667 861.866667H225.28C186.026667 861.866667 153.6 829.44 153.6 790.186667v-812.373334c0-39.253333 32.426667-71.68 71.68-71.68h503.466667l-119.466667 73.386667-3.413333 249.173333 220.16 124.586667 165.546666-85.333333V790.186667C989.866667 829.44 959.146667 861.866667 918.186667 861.866667zM448.853333 203.093333h-143.36v47.786667h143.36v-47.786667z m0 226.986667h-143.36v47.786667h143.36v-47.786667z m0 218.453333h-143.36v47.786667h143.36v-47.786667z m194.56-218.453333h-143.36v47.786667h143.36v-47.786667z m0 218.453333h-143.36v47.786667h143.36v-47.786667z m194.56 0h-143.36v47.786667h143.36v-47.786667zM1006.933333 197.973333c0 1.706667-1.706667 5.12-3.413333 6.826667l-170.666667 83.626667c-1.706667 1.706667-3.413333 1.706667-5.12 0l-167.253333-83.626667c-1.706667-1.706667-3.413333-3.413333-3.413333-5.12v-182.613333c0-1.706667 1.706667-5.12 3.413333-5.12l170.666667-102.4c1.706667 0 1.706667 0 3.413333-1.706667h1.706667c1.706667 0 3.413333 0 5.12 1.706667l163.84 93.866666c3.413333 1.706667 6.826667 6.826667 5.12 11.946667v1.706667L1006.933333 197.973333c0-1.706667 0-1.706667 0 0z m-238.933333-100.693333c-3.413333-5.12-8.533333-6.826667-11.946667-5.12l-56.32 34.133333c-3.413333 1.706667-5.12 6.826667-3.413333 11.946667l1.706667 1.706667c1.706667 3.413333 6.826667 5.12 11.946666 3.413333l56.32-34.133333c3.413333-3.413333 5.12-8.533333 1.706667-11.946667z m215.04-78.506667l-145.066667-83.626666V93.866667c0 1.706667 1.706667 5.12 3.413334 5.12l141.653333 80.213333v-160.426667z"  horiz-adv-x="1160" />

    
    </font>
</defs>
</svg>
