<?xml version="1.0" standalone="no"?>
<!DOCTYPE svg PUBLIC "-//W3C//DTD SVG 1.1//EN" "http://www.w3.org/Graphics/SVG/1.1/DTD/svg11.dtd" >
<!--
2013-9-30: Created.
-->
<svg>
<metadata>
Created by iconfont
</metadata>
<defs>

<font id="iconfont" horiz-adv-x="1024" >
  <font-face
    font-family="iconfont"
    font-weight="500"
    font-stretch="normal"
    units-per-em="1024"
    ascent="896"
    descent="-128"
  />
    <missing-glyph />
    
    <glyph glyph-name="shenpidankongtai" unicode="&#59055;" d="M625.152 608.768c-2.56 1.024-6.144 1.024-8.704 0.512s-5.12-1.024-7.68-2.56c-6.656-3.584-10.24-8.192-11.264-13.312-1.024-5.12 0.512-10.752 3.584-16.384 0.512-1.024 1.024-2.048 1.536-3.584l0.512-1.024H499.2c-14.848 0-25.6-3.072-32.768-10.24-6.656-6.656-9.728-16.384-10.24-29.696v-20.992c0-7.68 2.048-12.8 5.632-16.384 3.584-3.072 9.216-4.608 16.384-4.608 6.144 0 11.264 2.048 15.36 5.632 4.096 3.584 5.632 8.704 6.144 14.848v1.536l-0.512 10.752c0 5.12 1.024 8.192 2.56 10.24 1.536 1.536 4.096 2.56 7.68 2.56h233.984c3.072 0 5.632-1.024 6.656-3.072 1.536-2.048 1.536-4.608 0-7.68-1.536-5.12-2.56-9.216-3.072-12.8-1.024-3.072-1.024-6.144-0.512-8.192 0.512-2.56 2.048-4.096 3.584-6.144 1.536-1.024 4.608-3.072 7.68-4.096l1.024-0.512c7.168-2.56 12.8-3.072 17.92-1.024 4.608 2.56 8.192 7.68 11.264 17.408 2.048 5.12 2.56 10.24 3.584 14.336s1.536 8.704 2.56 12.8c3.584 25.6-12.288 38.4-48.128 35.84H650.24l-1.536 4.096c-2.048 6.656-4.096 12.288-6.656 16.896-2.56 4.096-4.608 7.68-7.68 9.728-3.072 3.072-6.144 4.096-9.216 5.12z m-22.016-159.232v-31.232H532.48v18.432c0 8.192 4.096 12.288 11.776 12.8h58.88z m99.328 0c4.096 0 6.656-1.024 8.704-2.048l1.024-0.512c2.048-1.536 2.56-4.096 2.56-7.68v-20.992h-68.096v31.744h55.808z m-99.328-69.12v-31.232h-56.32c-4.608 0-8.192 0.512-10.752 2.56-2.048 1.536-3.584 4.608-3.584 9.216V380.416h70.656z m111.104 0v-15.36c0-3.584-0.512-6.656-0.512-8.192s-1.024-3.584-2.048-4.608c-1.024-1.536-2.56-2.048-4.608-2.56-1.024-0.512-2.56-0.512-4.096-0.512h-56.832v31.232h68.096z m-89.088 142.336c-6.656 0-11.776-1.536-15.872-4.608-4.096-3.072-5.632-8.192-6.144-15.36v-14.336h-77.824c-13.824 0-23.04-2.56-28.16-8.192-5.12-5.12-7.168-13.824-7.68-25.6V347.648c0-12.8 2.56-22.016 7.68-27.648 5.12-5.12 13.824-8.192 26.624-8.192h79.36v-36.864c0-8.192 2.048-13.824 5.632-16.896 3.584-2.56 9.216-4.096 16.384-4.096 7.68 0 12.8 1.536 16.384 4.096 3.072 2.56 4.608 7.68 4.608 15.36v38.4h74.752c13.312 0 23.04 2.56 28.16 8.192 5.12 5.12 7.68 13.824 8.192 25.6V452.608c0 12.8-2.56 22.016-7.68 27.648-5.12 5.12-13.824 8.192-26.624 8.192h-76.288v12.8c0 7.68-1.536 13.312-5.12 16.896-4.096 3.072-9.216 4.608-16.384 4.608z m236.032 226.304v-130.56c0-19.968 15.872-36.352 35.84-37.376H1024v-418.816c0-20.48-16.896-37.376-37.376-37.376H421.888v31.744c0 24.064-16.384 69.12-63.488 70.144h-49.152c3.072 11.264 10.752 18.432 20.992 42.496 10.24 24.064 10.24 72.192-3.072 105.984S265.216 458.752 197.632 458.752h-6.656V712.192c0 20.48 16.896 37.376 37.376 37.376h632.832zM888.832 749.056L1024 605.184h-97.792c-20.48 0-37.376 16.896-37.376 37.376V749.056zM371.712 64H14.848c-8.192 0-14.848 6.656-14.848 14.848v73.728c0 24.576 19.968 44.544 44.544 44.544h95.232c-3.072 17.92-11.776 34.816-24.576 49.664-17.408 19.456-26.624 44.032-26.624 69.12 0 28.16 11.264 54.784 31.744 74.752 20.48 19.968 47.616 29.696 76.8 28.672 53.76-2.56 99.328-48.64 99.84-101.888 0.512-26.624-9.728-52.736-27.648-72.192-12.8-13.312-19.968-29.696-23.04-48.128h95.232c24.576 0 44.544-19.968 44.544-44.544v-74.24c0.512-8.192-6.144-14.336-14.336-14.336z m0-59.392H14.848c-8.192 0-14.848 6.656-14.848 14.848s6.656 14.848 14.848 14.848h356.864c8.192 0 14.848-6.656 14.848-14.848s-6.656-14.848-14.848-14.848z"  horiz-adv-x="1024" />

    
    <glyph glyph-name="xiaji" unicode="&#59053;" d="M601.6 235.008h358.4c32.768 0 59.904 26.624 59.904 59.904v179.2c0 32.768-26.624 59.904-59.904 59.904h-358.4c-32.768 0-59.904-26.624-59.904-59.904v-59.904H273.408v179.2h149.504c32.768 0 59.904 26.624 59.904 59.904v179.2C482.816 865.28 456.192 892.416 422.912 892.416h-358.4C31.232 891.904 4.608 864.768 4.608 832v-179.2c0-32.768 26.624-59.904 59.904-59.904h149.504v-507.392c0-49.152 40.448-89.6 89.6-89.6h238.592v-59.904c0-32.768 26.624-59.904 59.904-59.904h358.4c32.768 0 59.904 26.624 59.904 59.904v179.2c0 32.768-26.624 59.904-59.904 59.904h-358.4c-32.768 0-59.904-26.624-59.904-59.904v-59.904H303.104c-16.384 0-29.696 13.312-29.696 29.696v268.8h268.8v-59.904c-0.512-32.256 26.624-58.88 59.392-58.88z m0 208.896l0.512 3.584c1.536 14.848 14.336 26.112 29.696 26.112h298.496l3.584-0.512c14.848-1.536 26.112-14.336 26.112-29.696v-119.296l-0.512-3.584c-1.536-14.848-14.336-26.112-29.696-26.112h-298.496l-3.584 0.512c-14.848 1.536-26.112 14.336-26.112 29.696V443.904z m0-358.4l0.512 3.584c1.536 14.848 14.336 26.112 29.696 26.112h298.496l3.584-0.512c14.848-1.536 26.112-14.336 26.112-29.696v-119.296l-0.512-3.584c-1.536-14.848-14.336-26.112-29.696-26.112h-298.496l-3.584 0.512c-14.848 1.536-26.112 14.336-26.112 29.696v119.296zM94.208 652.8l-3.584 0.512c-14.848 1.536-26.112 14.336-26.112 29.696V802.304l0.512 3.584c1.536 14.848 14.336 26.112 29.696 26.112h298.496l3.584-0.512c14.848-1.536 26.112-14.336 26.112-29.696v-119.296l-0.512-3.584c-1.536-14.848-14.336-26.112-29.696-26.112H94.208z"  horiz-adv-x="1024" />

    
    <glyph glyph-name="guanlian" unicode="&#59052;" d="M242.688 316.416H74.24v404.48h538.624v-403.968H512c-18.432 0-33.792-14.848-33.792-33.792 0-18.432 14.848-33.792 33.792-33.792h100.864c37.376 0 67.584 30.208 67.584 67.584V720.896c0 37.376-30.208 67.584-67.584 67.584H74.24C36.864 788.48 6.656 758.272 6.656 720.896v-403.968c0-37.376 30.208-67.584 67.584-67.584h168.448c18.432 0 33.792 14.848 33.792 33.792 0 18.432-15.36 33.28-33.792 33.28z m707.072 202.24h-168.448c-18.432 0-33.792-14.848-33.792-33.792 0-18.432 14.848-33.792 33.792-33.792h168.448v-403.968H411.136v404.48H512c18.432 0 33.792 14.848 33.792 33.792 0 18.432-14.848 33.792-33.792 33.792H411.136c-37.376 0-67.584-30.208-67.584-67.584v-403.968c0-37.376 30.208-67.584 67.584-67.584h538.624c37.376 0 67.584 30.208 67.584 67.584V451.584c0 36.864-30.208 67.072-67.584 67.072z"  horiz-adv-x="1024" />

    
    <glyph glyph-name="faqishenpi" unicode="&#59051;" d="M865.28 364.032l79.36-79.872 59.392 59.904-78.848 77.312-59.904-57.344z m-22.016-24.576l-163.328-164.864 78.336-76.8 160.768 164.352-75.776 77.312z m-210.432-214.528l-5.632-84.992L711.68 46.08l25.6 26.624-78.848 76.8-25.6-24.576z m316.928-43.52h-141.824c-10.752 0-18.944-8.704-18.944-18.944s8.704-18.944 18.944-18.944h141.824c10.752 0 18.944 8.704 18.944 18.944s-8.704 18.944-18.944 18.944zM204.288 410.624c-9.216 0-13.824-4.608-13.824-13.824v-20.48h77.824v34.304H204.288z m-13.824-75.776v-20.992c0.512-5.12 1.536-9.216 4.096-10.752 2.56-2.048 6.656-2.56 11.776-2.56h61.952v34.304H190.464z m196.096 72.704c-1.536 1.536-4.608 2.56-9.216 3.072H315.392v-34.816h74.752v22.016c0 4.608-1.024 8.192-3.584 9.728z m-71.168-73.216v-34.304h57.856c4.096 0 7.168 0 9.216 0.512 2.048 0.512 4.096 1.024 5.12 2.56 1.024 1.024 2.048 3.072 2.048 5.12s0.512 5.12 0.512 9.216v16.896H315.392z m71.68 73.728c-1.536 1.536-5.12 2.56-9.728 2.56H315.392v-34.816h74.752v22.016c0.512 5.12-0.512 8.192-3.072 10.24z m-71.68-108.032h57.856c4.096 0 7.168 0 9.216 0.512 2.048 0.512 4.096 1.024 5.12 2.56 1.024 1.024 2.048 3.072 2.048 5.12s0.512 5.12 0.512 9.216v16.896H315.392v-34.304z m-124.928 16.384v-2.56c0-5.632 1.536-9.728 4.096-11.264 2.56-2.048 6.656-2.56 11.776-2.56h61.952v34.816H190.464v-18.432z m0 80.384v-20.48h77.824v34.304H204.288c-9.216 0-13.824-4.608-13.824-13.824z m196.608 11.264c-1.536 1.536-5.12 2.56-9.728 2.56H315.392v-34.816h74.752v22.016c0.512 5.12-0.512 8.192-3.072 10.24z m-71.68-108.032h57.856c4.096 0 7.168 0 9.216 0.512 2.048 0.512 4.096 1.024 5.12 2.56 1.024 1.024 2.048 3.072 2.048 5.12s0.512 5.12 0.512 9.216v16.896H315.392v-34.304z m-124.928 16.384v-2.56c0-5.632 1.536-9.728 4.096-11.264 2.56-2.048 6.656-2.56 11.776-2.56h61.952v34.816H190.464v-18.432z m0 80.384v-20.48h77.824v34.304H204.288c-9.216 0-13.824-4.608-13.824-13.824z m13.824 13.824c-9.216 0-13.824-4.608-13.824-13.824v-20.48h77.824v34.304H204.288z m-13.824-75.776v-20.992c0.512-5.12 1.536-9.216 4.096-10.752 2.56-2.048 6.656-2.56 11.776-2.56h61.952v34.304H190.464z m196.608 73.216c-1.536 1.536-5.12 2.56-9.728 2.56H315.392v-34.816h74.752v22.016c0.512 5.12-0.512 8.192-3.072 10.24z m-71.68-73.728v-34.304h57.856c4.096 0 7.168 0 9.216 0.512 2.048 0.512 4.096 1.024 5.12 2.56 1.024 1.024 2.048 3.072 2.048 5.12s0.512 5.12 0.512 9.216v16.896H315.392z m0 0v-34.304h57.856c4.096 0 7.168 0 9.216 0.512 2.048 0.512 4.096 1.024 5.12 2.56 1.024 1.024 2.048 3.072 2.048 5.12s0.512 5.12 0.512 9.216v16.896H315.392z m71.68 73.728c-1.536 1.536-5.12 2.56-9.728 2.56H315.392v-34.816h74.752v22.016c0.512 5.12-0.512 8.192-3.072 10.24z m-196.608-73.728v-20.48c0-5.632 1.536-9.728 4.096-11.264 2.56-2.048 6.656-2.56 11.776-2.56h61.952v34.304H190.464z m13.824 76.288c-9.216 0-13.824-4.608-13.824-13.824v-20.48h77.824v34.304H204.288zM895.488 719.36H52.224c-17.92 0-32.256-14.336-32.256-32.256v-582.656c0-17.92 14.336-32.256 32.256-32.256h529.408l6.656 78.848 99.328 101.888H532.48v41.472h195.584l65.536 67.072h-261.12v41.472h301.568l82.944 84.992 10.752-10.24V687.104c0 17.92-14.336 32.256-32.256 32.256z m-457.216-421.888c-0.512-13.824-3.584-24.064-9.216-30.208-5.632-6.144-16.384-9.216-31.232-9.216H315.392v-40.448c0-9.216-1.536-15.36-5.12-18.432-3.584-3.072-9.728-4.608-17.92-4.608-7.68 0-13.824 1.536-17.92 4.608-4.096 3.072-6.144 9.216-6.144 18.432v40.448H182.784c-15.36 0-25.6 3.072-31.232 9.216-5.632 6.144-8.192 16.384-8.192 30.208V413.696c0 14.336 2.56 24.064 8.192 30.208 5.632 6.144 15.872 9.216 31.232 9.216h85.504v14.336c0 8.704 2.048 14.848 6.656 18.432 4.608 3.584 10.24 5.12 17.408 5.12 8.192 0 13.824-1.536 17.92-5.12 4.096-3.584 5.632-9.728 5.632-18.432v-14.336h82.432c15.36 0 25.6-3.072 31.232-9.216 5.632-6.144 8.704-16.384 8.704-30.208v-116.224zM477.184 501.76c-1.024-4.608-1.536-9.728-2.56-14.336s-2.048-10.24-4.096-15.872c-3.072-10.24-7.168-16.384-12.288-18.944s-11.776-2.048-19.456 1.024c-4.096 1.536-7.68 3.584-9.728 5.12-2.048 2.048-3.584 4.096-4.096 6.656s-0.512 5.632 0.512 9.216 2.048 8.192 3.584 13.824c1.536 3.584 1.536 6.656 0 8.704-1.024 2.56-3.584 3.584-7.168 3.584h-256c-4.608 0-8.192-1.024-9.728-3.072S153.6 492.032 153.6 486.4l0.512-11.776c0-7.68-2.048-13.824-6.656-17.92-4.608-4.096-10.24-6.144-16.896-6.144-7.68 0-13.824 1.536-17.92 5.12s-6.144 9.216-6.144 17.92v21.504c0 15.872 3.584 27.136 11.264 34.816s19.456 11.264 35.84 11.264h114.688c-1.024 2.048-1.536 3.584-2.048 4.608-3.584 6.144-5.12 12.288-4.096 17.92 1.024 5.632 5.12 10.752 12.288 14.848 2.56 1.536 5.12 2.048 8.192 2.56 3.072 0.512 6.656 0.512 9.728-0.512 3.584-1.024 6.656-2.56 9.728-5.12s5.632-6.144 8.192-10.752c3.072-6.144 5.632-13.824 8.704-23.552h103.424c40.448 3.072 58.88-10.752 54.784-39.424z m360.448-28.672H532.48v41.472h305.152v-41.472z"  horiz-adv-x="1024" />

    
    <glyph glyph-name="neibuhesuan" unicode="&#59048;" d="M610.304 572.416l-97.792-119.808-98.304 119.808c-4.608 6.144-13.312 7.168-19.456 3.072l-22.016-14.336c-6.144-4.096-7.68-12.288-3.584-18.432l83.456-101.888h-47.104c-7.168 0-13.312-5.632-13.312-12.8v-20.992c0-7.168 6.144-12.8 13.312-12.8h83.456v-67.072H405.504c-7.168 0-13.312-5.632-13.312-12.8v-20.48c0-7.168 6.144-12.8 13.312-12.8h83.456v-78.336c0-7.168 6.144-12.8 13.312-12.8h21.504c7.168 0 13.312 5.632 13.312 12.8V281.6h82.944c7.168 0 13.312 5.632 13.312 12.8v20.48c0 7.168-6.144 12.8-13.312 12.8h-82.944V394.752h82.944c7.168 0 13.312 5.632 13.312 12.8v20.992c0 7.168-6.144 12.8-13.312 12.8h-48.64L654.848 542.72c4.608 6.144 3.072 14.336-3.584 18.432l-22.016 14.336c-5.632 4.096-14.336 3.072-18.944-3.072z m-97.792 199.168c214.016 0 387.584-173.568 387.584-387.584s-173.568-387.584-387.584-387.584-388.096 173.568-388.096 387.584 173.568 387.584 388.096 387.584z m0 48.64c-240.64 0-436.224-195.072-436.224-436.224s195.072-436.224 436.224-436.224 436.224 195.072 436.224 436.224-195.584 436.224-436.224 436.224z m0 72.704c281.088 0 508.928-227.84 508.928-508.928 0-105.984-32.256-204.288-88.064-286.208l29.696 10.24c19.456 4.608 43.008-0.512 51.712-28.16 8.704-27.648-8.192-48.64-27.648-55.296l-44.032-15.36-47.616-18.432-22.016-8.192c-38.912-14.848-72.192-26.112-99.328-34.816-76.288-46.08-165.888-72.704-261.632-72.704C231.424-124.928 3.584 102.912 3.584 384 3.584 489.984 35.84 588.288 91.136 669.696l-34.304-12.8c-19.456-4.608-43.008 0.512-51.712 28.16-8.704 27.648 8.192 48.64 27.648 55.296l44.032 15.36 47.616 18.432 22.016 8.192c38.912 14.848 72.192 26.112 99.328 34.816C323.072 865.28 414.208 892.928 512.512 892.928z"  horiz-adv-x="1024" />

    
    <glyph glyph-name="zhichu" unicode="&#59049;" d="M615.424 480.768L512 354.304 408.576 480.768c-4.608 6.144-13.824 7.68-20.48 3.584l-23.04-15.36c-6.656-4.608-8.192-13.312-3.584-19.456l87.552-107.52H399.36c-7.68 0-14.336-6.144-14.336-13.312v-22.528c0-7.168 6.144-13.312 14.336-13.312h88.064v-70.656H399.36c-7.68 0-14.336-6.144-14.336-13.312v-21.504c0-7.168 6.144-13.312 14.336-13.312h88.064v-82.944c0-7.168 6.144-13.312 14.336-13.312h23.04c7.68 0 14.336 6.144 14.336 13.312V174.08h87.552c7.68 0 14.336 6.144 14.336 13.312v21.504c0 7.168-6.144 13.312-14.336 13.312h-87.552v70.656h87.552c7.68 0 14.336 6.144 14.336 13.312v22.528c0 7.168-6.144 13.312-14.336 13.312h-51.2l88.064 107.52c4.608 6.144 3.072 14.848-3.584 19.456l-23.04 15.36c-7.68 4.096-16.896 2.56-21.504-3.584zM512 895.488c14.336 0 26.624-5.12 36.864-14.848l407.552-325.632c15.36-14.848 23.552-38.912 3.584-62.464-19.968-23.552-48.128-19.968-65.024-6.144-11.264 9.216-24.064 19.456-38.4 30.72v-592.896c0-28.16-23.552-50.688-52.224-50.688H219.648c-28.672 0-52.224 23.04-52.224 50.688V517.12c-15.36-12.288-29.696-24.064-43.008-34.304-16.384-13.312-46.592-11.776-62.976 9.728-16.384 21.504-9.216 47.104 6.144 62.464L475.136 880.64c10.24 9.728 22.528 14.848 36.864 14.848z"  horiz-adv-x="1024" />

    
    <glyph glyph-name="shouru" unicode="&#59050;" d="M958.976 276.48c-19.968 23.552-47.616 19.968-64.512 6.144-11.264-9.216-24.064-19.456-38.4-30.72V843.776c0 28.16-23.552 50.688-52.224 50.688H220.16c-28.672 0-52.224-22.528-52.224-50.688v-591.872c-15.36 12.288-29.696 24.064-43.008 34.304-16.384 13.312-46.08 11.776-62.464-9.728-16.384-21.504-9.216-47.104 6.144-62.464l406.528-324.608c10.24-9.728 22.528-14.848 36.864-14.848s26.624 5.12 36.864 14.848l406.528 324.608c15.36 15.36 23.552 38.912 3.584 62.464z m-296.448 351.232l-87.552-107.008h51.2c7.68 0 13.824-6.144 13.824-13.312v-22.016c0-7.168-6.144-13.312-13.824-13.312h-87.552v-70.656h87.552c7.68 0 13.824-5.632 13.824-13.312v-21.504c0-7.168-6.144-13.312-13.824-13.312h-87.552v-82.944c0-7.168-6.144-13.312-13.824-13.312H501.76c-7.68 0-13.824 5.632-13.824 13.312V353.28H399.36c-7.68 0-14.336 5.632-14.336 13.312v21.504c0 7.168 6.144 13.312 14.336 13.312h87.552V472.064H399.36c-7.68 0-14.336 5.632-14.336 13.312v22.016c0 7.168 6.144 13.312 14.336 13.312h49.664l-87.04 107.008c-4.608 6.144-3.072 14.848 3.584 19.456l23.04 14.848c6.656 4.096 15.872 2.56 20.48-3.072L512 532.992l102.912 125.952c4.608 6.144 13.824 7.68 20.48 3.072l23.04-14.848c6.656-4.608 8.704-13.312 4.096-19.456z"  horiz-adv-x="1024" />

    
    <glyph glyph-name="yiheji" unicode="&#59047;" d="M334.336 650.752l18.944 15.36 24.576-2.048L368.64 686.08l9.728 22.016-25.088-2.048-18.944 15.36-5.632-23.04-20.992-12.288 20.992-12.288 5.632-23.04z m344.576 26.112l17.408-17.408 7.168 22.528 21.504 10.24-19.968 14.848-4.096 24.064-19.456-13.312-24.064 4.608 7.68-23.04-10.752-20.992 24.576-1.536z m-193.024 27.648l23.552 6.656 22.016-11.264v23.552l17.408 16.384-23.552 8.192-11.264 21.504-14.336-18.944-24.576-3.072 14.336-19.456-3.584-23.552zM230.912 562.176l16.896-16.896L256 568.32l22.016 10.752-19.456 13.824-2.56 24.064-20.48-14.336-24.064 3.584 6.656-22.528-11.776-21.504h24.576z m463.872-463.872l-18.944-15.36-24.576 2.048 9.216-22.016-9.216-22.016 24.576 2.048 18.944-15.36 5.632 23.04 20.992 12.288-20.992 12.288-5.632 23.04z m-150.016-41.984l-23.04-6.656-22.016 11.264v-23.552l-17.408-16.384 23.04-8.192 11.264-21.504 14.336 18.944 24.064 3.072-14.336 19.456 4.096 23.552zM363.52 82.944l-17.408 17.408-7.168-22.528-21.504-10.24 19.968-14.848 4.096-24.064 19.456 13.312 24.064-4.608-7.68 23.04 10.752 20.992-24.576 1.536zM512 896C229.888 896 0 666.112 0 384s229.888-512 512-512 512 229.888 512 512S794.112 896 512 896z m0-990.208c-263.68 0-478.208 214.528-478.208 478.208C33.792 647.68 248.32 862.208 512 862.208s478.208-214.528 478.208-478.208-214.528-478.208-478.208-478.208zM512 813.568c-236.544 0-429.568-192.512-429.568-429.568 0-236.544 192.512-429.568 429.568-429.568 236.544 0 429.568 192.512 429.568 429.568 0 236.544-193.024 429.568-429.568 429.568z m0-839.68c-225.792 0-410.112 183.808-410.112 410.112 0 225.792 183.808 410.112 410.112 410.112 225.792 0 410.112-183.808 410.112-410.112 0-80.896-24.064-160.256-69.12-227.328l-8.192 22.016 10.24 22.016-24.064-1.536-17.92 15.36-6.656-23.04-21.504-12.288 19.968-12.8 4.608-23.552 18.944 15.36 24.064-2.048c-73.216-109.568-198.656-182.272-340.48-182.272zM680.96 589.824c-47.616 38.912-107.52 60.416-168.96 60.416-127.488 0-237.568-91.136-261.632-216.064l16.896-3.072c22.528 117.248 125.44 202.24 244.736 202.24 57.344 0 113.664-19.968 158.208-56.32l10.752 12.8z m-168.96-455.168c-57.856 0-113.664 19.968-158.208 56.32l-10.752-13.312c47.616-38.912 107.008-60.416 168.96-60.416 127.488 0 237.568 91.136 261.632 216.064l-16.896 3.072c-22.016-116.736-125.44-201.728-244.736-201.728zM389.632 302.08l15.872-43.52c0.512-2.048 1.024-3.584 0.512-5.632-0.512-1.536-1.024-3.072-2.048-4.608-1.024-1.536-2.56-2.56-4.096-3.584s-3.072-2.048-4.608-2.56l-121.344-44.032c-1.536-0.512-3.072-1.024-5.12-1.024-1.536 0-3.584 0-5.12 0.512s-3.072 1.024-4.608 2.048c-1.536 1.024-2.048 2.56-3.072 4.096l-39.936 110.08 27.136 9.728 9.216-25.088 87.04 31.744-17.408 48.128-118.272-43.008-7.68 21.504L341.504 409.6l28.672-78.848c0.512-2.048 1.024-4.096 0.512-5.632-0.512-2.048-1.024-3.584-2.048-5.12-1.024-1.536-2.56-3.072-4.096-4.096-1.536-1.024-3.072-2.048-5.12-2.56l-99.328-35.84 18.944-52.736 95.232 34.816-11.776 32.768 27.136 9.728zM480.256 272.384L435.2 397.824l-20.48-7.68-7.68 21.504 20.48 7.68L419.84 440.32l24.064 8.704 7.68-20.992 21.504 7.68 7.68-21.504-21.504-7.68 45.056-125.44-24.064-8.704z m-19.968-7.168l-39.936 117.76 15.36 5.632 39.936-117.76-15.36-5.632z m49.664 17.92L465.408 399.36l15.872 5.632 44.544-116.224-15.872-5.632z m-4.608 75.264l16.896 6.144 10.24 24.576-26.112-9.216c-2.048-0.512-4.096-1.024-6.144-0.512-2.048 0.512-3.584 1.024-5.12 2.048-1.536 1.024-2.56 2.56-3.072 4.608-0.512 2.048-0.512 4.096 0 6.656l14.848 44.544-25.6-9.216-7.68 21.504 34.816 12.288-4.096 9.216 27.136 9.728 3.584-9.728 34.304 12.288 7.68-21.504-38.912-14.336-12.288-37.376 18.944 6.656 10.24 24.576 25.088-5.12-32.768-81.92c-1.536-4.608-5.12-7.68-9.728-9.216l-24.064-8.704-8.192 22.016z m16.896-47.104l16.384 6.144 36.352 90.112 25.6-5.12-16.896-41.984 44.032-34.816-28.672-10.24-25.088 20.48-11.264-28.672c-0.512-2.048-2.048-3.584-3.584-5.12-1.536-1.536-3.584-2.56-5.632-3.072l-23.04-8.192-8.192 20.48zM637.952 482.304l-14.848 29.696 27.136 9.728 14.336-30.208-26.624-9.216z m87.552-121.856l-25.6-9.216c-1.536-0.512-3.584-1.024-5.632-1.024-2.048 0-4.096 0-5.632 0.512s-3.584 1.536-5.12 2.56-2.56 3.072-3.072 4.608l-33.28 91.648-14.848-5.632-7.68 21.504 41.984 15.36 37.376-103.936 13.824 5.12 7.68-21.504z m94.72 89.088l12.8-35.84c0.512-2.048 1.024-4.096 0.512-5.632-0.512-2.048-1.024-3.584-2.048-5.12-1.024-1.536-2.56-3.072-4.096-4.096-1.536-1.024-3.072-2.048-5.12-2.56l-76.288-27.648c-1.536-0.512-3.584-1.024-5.632-1.024-2.048 0-4.096 0-6.144 0.512-2.048 0.512-3.584 1.536-5.12 2.56-1.536 1.024-2.56 3.072-3.584 5.12l-28.16 78.336c-0.512 2.048-1.024 3.584-0.512 5.632s1.024 3.584 2.048 5.12 2.56 3.072 4.096 4.096c1.536 1.024 3.072 2.048 5.12 2.56l60.928 22.016-14.336 39.424-78.336-28.16-7.68 21.504 105.472 37.888 25.088-70.144c0.512-2.048 1.024-3.584 0.512-5.632-0.512-2.048-1.024-3.584-2.048-5.12-1.024-1.536-2.048-3.072-3.584-4.096-1.536-1.024-3.072-2.048-5.12-2.56l-61.44-22.016 21.504-59.904 53.248 19.456-9.728 26.624 27.648 8.704z"  horiz-adv-x="1027" />

    
    <glyph glyph-name="shunxuqiehuan" unicode="&#59046;" d="M855.04 251.904l-341.504-375.808L168.96 248.32l62.976 69.632 281.088-304.128 278.528 306.688zM855.04 516.096l-63.488-69.12-278.528 306.688-281.088-303.616L168.96 519.168 513.536 891.392z"  horiz-adv-x="1024" />

    
    <glyph glyph-name="qingkong" unicode="&#59044;" d="M957.44 543.232h-318.464V798.208c0 52.736-42.496 95.744-95.744 95.744H479.744C427.008 893.952 384 850.944 384 798.208v-254.976H66.048C30.72 543.232 2.048 514.56 2.048 479.744V384c0-35.328 28.16-63.488 63.488-63.488H97.28v-382.464c0-35.328 28.16-63.488 63.488-63.488h700.928c35.328 0 63.488 28.16 63.488 63.488v382.464h31.744c35.328 0 63.488 28.16 63.488 63.488V479.744c1.024 34.816-27.648 63.488-62.976 63.488zM448 798.208c0 17.408 14.336 31.744 31.744 31.744h63.488c17.92 0 31.744-14.336 31.744-31.744v-254.976H448V798.208z m393.216-860.16h-107.008v190.976h-70.144v-190.976h-117.76v254.976H476.672v-254.976h-117.76v190.976H288.768v-190.976H181.76c-11.264 0-20.48 9.216-20.48 20.48l-0.512 361.984h700.928v-361.984c0-11.264-8.704-20.48-20.48-20.48zM936.96 384H86.528c-11.264 0-20.48 9.216-20.48 20.48V459.264c0 11.264 9.216 20.48 20.48 20.48H936.96c11.264 0 20.48-9.216 20.48-20.48V404.48c0-11.264-9.216-20.48-20.48-20.48z"  horiz-adv-x="1024" />

    
    <glyph glyph-name="xinzengzhanghu" unicode="&#59043;" d="M1022.464 85.504c0-7.68-3.072-15.36-8.704-20.48-5.12-5.12-12.288-8.704-20.48-8.704h-116.224v-116.736c0-15.872-13.312-29.184-28.672-29.184-15.872 0-28.672 13.312-28.672 29.184V56.32h-116.224c-15.872 0-28.672 13.312-28.672 29.184s13.312 29.184 28.672 29.184h116.224v116.736c0 15.872 13.312 29.184 28.672 29.184 7.68 0 15.36-3.072 20.48-8.704 5.12-5.12 8.704-12.8 8.704-20.48v-116.736H993.28c15.872 0 29.184-13.312 29.184-29.184M902.144 860.672H121.856C55.296 860.672 1.536 806.912 1.536 740.352v-600.576c0-66.56 53.76-120.32 120.32-120.32h432.64c16.384 0 30.208 13.312 30.208 30.208 0 16.384-13.312 30.208-30.208 30.208H121.856l-4.608 0.512c-30.72 2.048-55.296 28.16-55.296 59.904V515.584H962.56v-198.656c0-16.384 13.312-30.208 30.208-30.208 16.384 0 30.208 13.312 30.208 30.208V740.864c-0.512 66.048-54.272 119.808-120.832 119.808zM61.44 605.696V740.864l0.512 4.608c2.048 30.72 28.16 55.296 59.904 55.296h780.288l4.608-0.512c30.72-2.048 55.296-28.16 55.296-59.904v-135.168H61.44zM214.528 305.152c10.24 6.144 19.968 16.384 19.968 32.256 0 25.6-17.92 38.912-53.76 38.912H114.688v-15.36l5.632-0.512c15.872-0.512 15.872-0.512 16.384-17.92v-95.232c0-16.384 0-16.896-18.432-17.92l-5.632-0.512v-15.36h55.296c21.504 0 36.864 3.072 49.664 9.216 17.92 9.216 27.136 23.04 27.136 41.472 0.512 18.944-11.264 33.792-30.208 40.96z m-52.224 54.272h10.752c23.04 0 34.304-7.68 34.304-24.064 0-10.752-3.584-24.064-32.768-24.064h-11.776v48.128z m16.896-127.488c-16.896 0-16.896 2.56-16.896 14.336v47.616H174.08c19.456 0 42.496-5.632 42.496-32.256-0.512-7.168-0.512-29.696-37.376-29.696zM397.312 216.064v13.312l-1.024 0.512c-13.312 2.048-13.824 2.56-19.968 18.432-6.656 17.408-14.336 38.912-22.528 61.44l-24.576 68.608-10.752-4.608-51.2-121.344c-7.68-19.968-9.728-19.968-23.04-23.04l-4.608-1.024v-14.336h64v14.336l-5.12 1.024c-14.336 2.56-14.336 3.072-14.336 5.632 0 5.12 8.192 28.16 11.776 37.376h45.568c5.12-13.312 13.312-34.816 13.312-39.936-1.536-1.024-9.728-2.56-12.8-3.072l-5.12-0.512v-14.848h64.512v2.048h-4.096zM303.616 291.84c5.12 13.312 10.752 27.136 16.384 40.96l14.848-40.96h-31.232zM397.312 229.376v-13.312h4.096v12.8l-4.096 0.512zM582.656 361.472l-0.512-0.512c-15.36-1.024-16.896-6.144-17.92-8.192-2.048-6.656-2.048-19.968-2.048-39.936v-98.304h-11.264l-107.52 115.712v-48.128c0-22.016 0.512-35.84 2.048-41.984 0.512-2.048 2.048-7.168 20.992-8.192l5.632-0.512v-14.848H401.408v12.8l-4.096 0.512v2.048l5.632 0.512c7.68 0.512 16.896 2.048 18.432 8.192 2.048 6.144 2.56 18.944 2.56 42.496v51.2c0 16.384-0.512 17.408-2.56 19.968l-1.536 1.536c-2.56 2.56-5.632 5.632-18.944 6.656l-5.632 0.512v14.848h39.424l108.032-116.224v52.736c0 46.592-0.512 46.592-24.064 48.128l-5.632 0.512v14.848h68.096v-14.848h1.536zM397.312 229.376v-13.312h4.096v12.8l-4.096 0.512z m183.808 146.944v-14.848h2.048l4.096 0.512v14.848h-6.144zM581.12 376.32v-14.848h2.048l4.096 0.512v14.848h-6.144zM743.424 228.864v-14.848h-38.912l-14.336 14.336c-18.432 18.432-34.304 34.304-54.784 56.832-2.56 2.56-4.096 3.072-5.632 4.096v-38.912c0-18.432 0-19.456 18.432-19.968l5.632-0.512v-15.36h-71.68v15.36l5.632 0.512c15.872 0.512 16.384 1.536 16.384 19.968v91.136c0 17.92 0 19.456-18.432 19.968l-3.584 0.512 4.096 0.512v14.848h66.56v-14.848l-5.632-0.512c-17.408-1.024-17.408-2.56-17.408-19.968v-32.768c2.048 1.024 4.608 2.56 6.656 4.096 16.896 13.824 39.424 37.888 45.568 47.104-2.56 0.512-6.144 1.024-10.24 2.048l-5.12 1.024v14.336h71.68v-14.336l-5.12-1.024c-16.384-2.048-24.064-6.656-35.328-16.384-6.656-5.632-27.136-24.064-45.568-41.472 18.944-20.48 48.128-50.688 55.808-56.832 14.848-12.8 17.92-15.36 28.672-16.896l6.656-2.048z"  horiz-adv-x="1024" />

    
    <glyph glyph-name="piliangtianjia" unicode="&#58895;" d="M695.808 630.784H138.24c-34.816 0-63.488-28.16-63.488-63.488V10.24c0-34.816 28.16-63.488 63.488-63.488h557.568c34.816 0 63.488 28.16 63.488 63.488V567.808c-0.512 34.816-28.672 62.976-63.488 62.976z m6.144 70.144c70.144 0 126.464-56.832 126.464-126.464v-569.856c0-70.144-56.832-126.464-126.464-126.464H132.096C61.952-122.88 5.12-66.048 5.12 4.096V573.952c0 70.144 56.832 126.464 126.464 126.464h570.368zM670.208 288.768c0-19.456-15.36-34.816-34.816-34.816H451.584v-183.808c0-19.456-15.36-34.816-34.816-34.816s-34.816 15.36-34.816 34.816v183.808H198.656c-19.456 0-34.816 15.36-34.816 34.816s15.36 34.816 34.816 34.816h183.808V507.392c0 19.456 15.36 34.816 34.816 34.816s34.816-15.36 34.816-34.816v-183.808h183.808c18.944 0.512 34.304-15.36 34.304-34.816zM1018.88 763.904v-569.856c0-70.144-56.832-126.464-126.464-126.464h-3.584c-19.456 0-34.816 15.36-34.816 34.816s15.36 34.816 34.816 34.816c33.792 1.536 60.928 29.696 60.928 63.488V757.76c0 34.816-28.672 63.488-63.488 63.488h-558.08c-34.816 0-63.488-28.672-63.488-63.488v-1.024c0-18.944-15.36-34.816-34.816-34.816s-34.816 15.872-34.816 34.816v7.168C195.072 834.048 251.904 890.88 322.048 890.88h569.856C962.048 890.88 1018.88 834.048 1018.88 763.904z"  horiz-adv-x="1024" />

    
    <glyph glyph-name="bianjixiugai1" unicode="&#58894;" d="M313.344 643.072h358.912v-73.216H313.344zM313.344 479.744h358.912v-73.216H313.344zM313.344 304.64h164.864v-73.216H313.344zM817.664 892.416c57.344 0 103.424-45.568 103.424-101.376v-408.064c0-18.432-14.848-32.768-32.768-32.768-18.432 0-32.768 14.848-32.768 32.768V785.408c0 23.552-19.456 42.496-43.52 42.496H175.616c-24.064 0-43.52-18.944-43.52-42.496v-769.536c0-23.552 19.456-42.496 43.008-42.496h256.512c17.92 0 32.256-14.336 32.256-32.256s-14.336-32.256-32.256-32.256H169.984c-56.832 0-103.424 45.568-103.424 101.376V791.04C66.048 846.848 112.64 892.416 169.984 892.416h647.68zM887.296 287.744c-18.944 0-36.352-8.192-49.152-20.48l-103.936-103.936-190.464-191.488v-97.792H645.12l219.136 220.16 70.656 71.168v0.512c13.824 12.8 23.04 31.232 23.04 51.712-0.512 38.4-31.744 70.144-70.656 70.144zM584.192-87.04v39.936l39.936-39.936h-39.936z m154.112 114.176l-84.48-84.992-40.448 40.448 141.824 142.336 56.32 56.832 40.448-40.448-113.664-114.176z m179.712 180.736l-36.864-37.376-39.936 40.448 35.84 35.84c3.584 1.024 7.168 2.048 11.264 2.048 17.408 0 31.744-14.336 31.744-31.744-0.512-3.584-1.024-6.656-2.048-9.216z"  horiz-adv-x="1024" />

    
    <glyph glyph-name="yidong-sousuo" unicode="&#59042;" d="M1009.152-54.272l-240.128 239.104c61.952 74.752 99.328 169.984 99.328 274.432 0 238.08-193.536 430.592-432.128 430.592C197.632 890.368 4.608 697.344 4.608 459.776c0-238.08 193.536-430.592 432.128-430.592 102.912 0 197.632 35.84 271.36 95.744l178.688-177.152 61.952-61.952c16.384-16.384 43.52-16.384 59.904 0 16.896 16.384 16.896 43.52 0.512 59.904M436.224 113.152c-192 0-347.136 155.136-347.136 346.624 0 191.488 155.648 346.624 347.136 346.624S783.36 650.752 783.36 459.776c0-191.488-155.136-346.624-347.136-346.624"  horiz-adv-x="1024" />

    
    <glyph glyph-name="shaixuan" unicode="&#59041;" d="M944.128 888.832H76.8c-16.384 0-31.232-9.216-37.888-24.064C32.256 849.92 35.328 833.024 46.08 820.736l304.64-337.408v-353.28c0-12.288 5.632-24.064 15.36-31.744l76.8-61.44c7.168-5.632 16.384-9.216 26.112-9.216 12.288 0 24.064 5.632 32.256 15.36 7.168 8.704 10.24 18.944 9.216 29.696-1.024 10.752-6.656 20.48-15.36 27.648l-61.44 49.152V498.688c0 10.24-3.584 19.968-10.24 27.136L168.96 806.912h681.984l-253.44-281.088c-6.656-7.68-10.752-17.408-10.752-27.136v-582.144c0-22.528 18.432-40.96 41.472-40.96s41.472 18.432 41.472 40.96V482.816l305.152 337.408c10.752 11.776 13.824 29.184 7.168 44.032-7.168 14.848-21.504 24.576-37.888 24.576"  horiz-adv-x="1024" />

    
    <glyph glyph-name="yizuofei" unicode="&#59040;" d="M334.336 650.752l18.944 15.36 24.576-2.048L368.64 686.08l9.728 22.016-25.088-2.048-18.944 15.36-5.632-23.04-20.992-12.288 20.992-12.288 5.632-23.04z m344.576 26.112l17.408-17.408 7.168 22.528 21.504 10.24-19.968 14.848-4.096 24.064-19.456-13.312-24.064 4.608 7.68-23.04-10.752-20.992 24.576-1.536z m-193.024 27.648l23.552 6.656 22.016-11.264v23.552l17.408 16.384-23.552 8.192-11.264 21.504-14.336-18.944-24.576-3.072 14.336-19.456-3.584-23.552zM230.912 562.176l16.896-16.896L256 568.32l22.016 10.752-19.456 13.824-2.56 24.064-20.48-14.336-24.064 3.584 6.656-22.528-11.776-21.504h24.576z m463.872-463.872l-18.944-15.36-24.576 2.048 9.216-22.016-9.216-22.016 24.576 2.048 18.944-15.36 5.632 23.04 20.992 12.288-20.992 12.288-5.632 23.04z m-150.016-41.984l-23.04-6.656-22.016 11.264v-23.552l-17.408-16.384 23.04-8.192 11.264-21.504 14.336 18.944 24.064 3.072-14.336 19.456 4.096 23.552zM363.52 82.944l-17.408 17.408-7.168-22.528-21.504-10.24 19.968-14.848 4.096-24.064 19.456 13.312 24.064-4.608-7.68 23.04 10.752 20.992-24.576 1.536zM512 896C229.888 896 0 666.112 0 384s229.888-512 512-512 512 229.888 512 512S794.112 896 512 896z m0-990.208c-263.68 0-478.208 214.528-478.208 478.208C33.792 647.68 248.32 862.208 512 862.208s478.208-214.528 478.208-478.208-214.528-478.208-478.208-478.208zM512 813.568c-236.544 0-429.568-192.512-429.568-429.568 0-236.544 192.512-429.568 429.568-429.568 236.544 0 429.568 192.512 429.568 429.568 0 236.544-193.024 429.568-429.568 429.568z m0-839.68c-225.792 0-410.112 183.808-410.112 410.112 0 225.792 183.808 410.112 410.112 410.112 225.792 0 410.112-183.808 410.112-410.112 0-80.896-24.064-160.256-69.12-227.328l-8.192 22.016 10.24 22.016-24.064-1.536-17.92 15.36-6.656-23.04-21.504-12.288 19.968-12.8 4.608-23.552 18.944 15.36 24.064-2.048c-73.216-109.568-198.656-182.272-340.48-182.272zM680.96 589.824c-47.616 38.912-107.52 60.416-168.96 60.416-127.488 0-237.568-91.136-261.632-216.064l16.896-3.072c22.528 117.248 125.44 202.24 244.736 202.24 57.344 0 113.664-19.968 158.208-56.32l10.752 12.8z m-168.96-455.168c-57.856 0-113.664 19.968-158.208 56.32l-10.752-13.312c47.616-38.912 107.008-60.416 168.96-60.416 127.488 0 237.568 91.136 261.632 216.064l-16.896 3.072c-22.016-116.736-125.44-201.728-244.736-201.728zM389.632 302.08l15.872-43.52c0.512-2.048 1.024-3.584 0.512-5.632-0.512-1.536-1.024-3.072-2.048-4.608-1.024-1.536-2.56-2.56-4.096-3.584s-3.072-2.048-4.608-2.56l-121.344-44.032c-1.536-0.512-3.072-1.024-5.12-1.024-1.536 0-3.584 0-5.12 0.512s-3.072 1.024-4.608 2.048c-1.536 1.024-2.048 2.56-3.072 4.096l-39.936 110.08 27.136 9.728 9.216-25.088 87.04 31.744-17.408 48.128-118.272-43.008-7.68 21.504L341.504 409.6l28.672-78.848c0.512-2.048 1.024-4.096 0.512-5.632-0.512-2.048-1.024-3.584-2.048-5.12-1.024-1.536-2.56-3.072-4.096-4.096-1.536-1.024-3.072-2.048-5.12-2.56l-99.328-35.84 18.944-52.736 95.232 34.816-11.776 32.768 27.136 9.728zM476.672 273.408l-34.816 99.328-16.896-6.144 1.536 76.8 27.648 9.728-1.024-55.296 9.728 3.072 41.472-118.272-27.648-9.216z m71.68 25.088l-45.568 131.072-3.584-1.024 1.536-31.744-26.624-9.216-3.072 71.68 26.624 9.216 0.512-16.384 74.752 26.112 7.68-21.504-50.688-17.92 9.728-27.648 46.592 16.384 7.68-21.504-46.592-16.384 9.728-27.648 46.592 16.384 7.68-21.504-46.592-16.384 11.264-32.768-27.648-9.216zM672.768 342.528l-52.224 149.504c-0.512 1.536-0.512 3.584-0.512 5.12 0.512 1.536 1.024 3.072 2.048 4.608 1.024 1.536 2.048 2.56 3.584 3.584 1.536 1.024 3.072 1.536 4.608 2.56l60.928 21.504-2.56 7.168 26.624 9.216 2.56-7.168 64 22.528 7.68-21.504-138.24-48.128 48.128-138.752-26.624-10.24z m14.336 153.6l7.168-20.48 8.192 3.072v24.576l28.672 10.24v-24.576l65.536 23.04 7.68-21.504-73.728-25.6v-10.752l58.368 20.48c1.536 0.512 3.584 1.024 5.632 1.024 2.048 0 3.584 0 5.632-0.512s3.072-1.536 4.608-2.56c1.536-1.024 2.56-2.56 3.072-4.608l8.192-24.064c0.512-1.536 0.512-3.584 0.512-5.12s-1.024-3.584-2.048-4.608l-14.848-18.944 38.912-13.824-35.328-12.288-18.432 6.656-10.752-14.336c-2.56-2.56-5.12-4.608-8.192-5.632l-23.552-8.192-9.728 19.968 19.456 6.656 7.68 9.728-28.672 10.24-0.512-51.2-28.672-10.24 1.024 101.888-13.312-4.608c-4.096-1.536-7.68-1.536-10.752 0-3.072 1.536-5.632 4.096-6.656 7.68l-10.24 29.696 25.088 8.704z m63.488-65.024l23.552-8.192 13.312 17.408-3.072 9.216-53.76-19.456v-6.144l19.968 7.168z m8.192 72.704l-11.776 12.8 28.672 9.728 11.776-12.8-28.672-9.728z"  horiz-adv-x="1027" />

    
    <glyph glyph-name="yishoukuan" unicode="&#59039;" d="M334.336 650.752l18.944 15.36 24.576-2.048L368.64 686.08l9.728 22.016-25.088-2.048-18.944 15.36-5.632-23.04-20.992-12.288 20.992-12.288 5.632-23.04z m344.576 26.112l17.408-17.408 7.168 22.528 21.504 10.24-19.968 14.848-4.096 24.064-19.456-13.312-24.064 4.608 7.68-23.04-10.752-20.992 24.576-1.536z m-193.024 27.648l23.552 6.656 22.016-11.264v23.552l17.408 16.384-23.552 8.192-11.264 21.504-14.336-18.944-24.576-3.072 14.336-19.456-3.584-23.552zM230.912 562.176l16.896-16.896L256 568.32l22.016 10.752-19.456 13.824-2.56 24.064-20.48-14.336-24.064 3.584 6.656-22.528-11.776-21.504h24.576z m463.872-463.872l-18.944-15.36-24.576 2.048 9.216-22.016-9.216-22.016 24.576 2.048 18.944-15.36 5.632 23.04 20.992 12.288-20.992 12.288-5.632 23.04z m-150.016-41.984l-23.04-6.656-22.016 11.264v-23.552l-17.408-16.384 23.04-8.192 11.264-21.504 14.336 18.944 24.064 3.072-14.336 19.456 4.096 23.552zM363.52 82.944l-17.408 17.408-7.168-22.528-21.504-10.24 19.968-14.848 4.096-24.064 19.456 13.312 24.064-4.608-7.68 23.04 10.752 20.992-24.576 1.536zM512 896C229.888 896 0 666.112 0 384s229.888-512 512-512 512 229.888 512 512S794.112 896 512 896z m0-990.208c-263.68 0-478.208 214.528-478.208 478.208C33.792 647.68 248.32 862.208 512 862.208s478.208-214.528 478.208-478.208-214.528-478.208-478.208-478.208zM512 813.568c-236.544 0-429.568-192.512-429.568-429.568 0-236.544 192.512-429.568 429.568-429.568 236.544 0 429.568 192.512 429.568 429.568 0 236.544-193.024 429.568-429.568 429.568z m0-839.68c-225.792 0-410.112 183.808-410.112 410.112 0 225.792 183.808 410.112 410.112 410.112 225.792 0 410.112-183.808 410.112-410.112 0-80.896-24.064-160.256-69.12-227.328l-8.192 22.016 10.24 22.016-24.064-1.536-17.92 15.36-6.656-23.04-21.504-12.288 19.968-12.8 4.608-23.552 18.944 15.36 24.064-2.048c-73.216-109.568-198.656-182.272-340.48-182.272zM680.96 589.824c-47.616 38.912-107.52 60.416-168.96 60.416-127.488 0-237.568-91.136-261.632-216.064l16.896-3.072c22.528 117.248 125.44 202.24 244.736 202.24 57.344 0 113.664-19.968 158.208-56.32l10.752 12.8z m-168.96-455.168c-57.856 0-113.664 19.968-158.208 56.32l-10.752-13.312c47.616-38.912 107.008-60.416 168.96-60.416 127.488 0 237.568 91.136 261.632 216.064l-16.896 3.072c-22.016-116.736-125.44-201.728-244.736-201.728zM389.632 302.08l15.872-43.52c0.512-2.048 1.024-3.584 0.512-5.632-0.512-1.536-1.024-3.072-2.048-4.608-1.024-1.536-2.56-2.56-4.096-3.584s-3.072-2.048-4.608-2.56l-121.344-44.032c-1.536-0.512-3.072-1.024-5.12-1.024-1.536 0-3.584 0-5.12 0.512s-3.072 1.024-4.608 2.048c-1.536 1.024-2.048 2.56-3.072 4.096l-39.936 110.08 27.136 9.728 9.216-25.088 87.04 31.744-17.408 48.128-118.272-43.008-7.68 21.504L341.504 409.6l28.672-78.848c0.512-2.048 1.024-4.096 0.512-5.632-0.512-2.048-1.024-3.584-2.048-5.12-1.024-1.536-2.56-3.072-4.096-4.096-1.536-1.024-3.072-2.048-5.12-2.56l-99.328-35.84 18.944-52.736 95.232 34.816-11.776 32.768 27.136 9.728zM501.248 281.088l-13.824 39.424-27.136-9.728c-1.536-0.512-3.072-1.024-5.12-1.024-1.536 0-3.584 0-5.12 0.512-1.536 0.512-3.072 1.024-4.096 2.048-1.536 1.024-2.048 2.56-3.072 4.096L404.48 425.472l27.136 9.728 34.816-98.304 13.312 4.608-37.888 107.008 27.136 9.728 59.392-167.936-27.136-9.216z m18.432 195.072l2.048-19.968 53.76 18.944 7.68-21.504-4.608-1.536-2.048-81.408 51.2-44.544-27.648-9.728-24.064 20.992-0.512-20.992c0-2.56-0.512-5.12-2.56-7.168-2.048-2.048-4.096-3.584-6.144-4.096l-25.6-9.216-10.24 20.48 18.432 6.656 1.024 36.864-27.136 24.064-20.48-7.168-9.728 90.624 26.624 8.704z m18.944-72.704l11.776-10.752 1.024 49.664-27.648-9.728 3.584-32.768 11.264 3.584zM629.248 470.528l28.16 9.728-4.096 11.264-29.696-10.752-7.68 21.504 29.696 10.752-3.072 9.216 25.088 8.704 3.072-9.216 30.72 10.752 7.68-21.504-30.208-10.752 4.096-11.264 28.16 9.728 7.68-20.992-81.92-28.672-7.68 21.504z m9.728-28.16l81.92 28.672 7.68-20.992-81.92-28.672-7.68 20.992z m49.664-69.632l7.68 2.56-9.728 27.136-33.792-11.776-7.68 21.504 89.6 31.744 7.68-21.504-30.72-10.752 13.824-38.912c1.024-2.56 0.512-5.12-1.024-7.68-1.536-2.56-4.096-4.608-7.168-5.632l-17.92-6.144-10.752 19.456z m-19.456-30.72l-9.728 44.544 20.992 7.168 9.728-44.544-20.992-7.168z m112.128 141.824l-14.848 46.08-29.184-10.24 12.288-47.104-23.04-8.192-19.968 79.36 23.04 8.192 2.56-9.728 39.936 14.336c3.072 1.024 5.632 1.024 8.704 0 2.56-1.024 4.608-3.072 5.632-6.656l18.944-57.856-24.064-8.192z m-41.984-116.736l-20.48 40.96 20.992 7.168 20.48-40.96-20.992-7.168z m27.136 148.48l15.872-45.056 0.512-7.68 8.704 3.072 46.592-64-24.576-8.704-28.16 38.4 3.072-39.424c0.512-2.56-0.512-5.12-2.048-7.168-1.536-2.048-3.584-3.072-6.144-4.096l-16.384-5.632-9.728 20.992 7.68 2.56-4.608 68.608-14.336 40.96 23.552 7.168z"  horiz-adv-x="1027" />

    
    <glyph glyph-name="xiangzuo" unicode="&#59038;" d="M1013.95369 322.048H9.92169c-4.096 0-7.68 2.56-9.216 6.144-1.536 3.584-0.512 8.192 2.56 10.752l82.944 79.36c4.096 3.584 10.24 3.584 13.824-0.512 3.584-4.096 3.584-10.24-0.512-13.824L34.49769 342.016H1013.95369c5.632 0 9.728-4.608 9.728-9.728s-4.096-10.24-9.728-10.24z"  horiz-adv-x="1024" />

    
    <glyph glyph-name="yiguazhang" unicode="&#59035;" d="M334.336 650.752l18.944 15.36 24.576-2.048L368.64 686.08l9.728 22.016-25.088-2.048-18.944 15.36-5.632-23.04-20.992-12.288 20.992-12.288 5.632-23.04z m344.576 26.112l17.408-17.408 7.168 22.528 21.504 10.24-19.968 14.848-4.096 24.064-19.456-13.312-24.064 4.608 7.68-23.04-10.752-20.992 24.576-1.536z m-193.024 27.648l23.552 6.656 22.016-11.264v23.552l17.408 16.384-23.552 8.192-11.264 21.504-14.336-18.944-24.576-3.072 14.336-19.456-3.584-23.552zM230.912 562.1759999999999l16.896-16.896L256 568.3199999999999l22.016 10.752-19.456 13.824-2.56 24.064-20.48-14.336-24.064 3.584 6.656-22.528-11.776-21.504h24.576z m463.872-463.872l-18.944-15.36-24.576 2.048 9.216-22.016-9.216-22.016 24.576 2.048 18.944-15.36 5.632 23.04 20.992 12.288-20.992 12.288-5.632 23.04z m-150.016-41.984l-23.04-6.656-22.016 11.264v-23.552l-17.408-16.384 23.04-8.192 11.264-21.504 14.336 18.944 24.064 3.072-14.336 19.456 4.096 23.552zM363.52 82.94399999999996l-17.408 17.408-7.168-22.528-21.504-10.24 19.968-14.848 4.096-24.064 19.456 13.312 24.064-4.608-7.68 23.04 10.752 20.992-24.576 1.536zM512 896C229.888 896 0 666.112 0 384s229.888-512 512-512 512 229.888 512 512S794.112 896 512 896z m0-990.208c-263.68 0-478.208 214.528-478.208 478.208C33.792 647.6800000000001 248.32 862.208 512 862.208s478.208-214.528 478.208-478.208-214.528-478.208-478.208-478.208zM512 813.568c-236.544 0-429.568-192.512-429.568-429.568 0-236.544 192.512-429.568 429.568-429.568 236.544 0 429.568 192.512 429.568 429.568 0 236.544-193.024 429.568-429.568 429.568z m0-839.68c-225.792 0-410.112 183.808-410.112 410.112 0 225.792 183.808 410.112 410.112 410.112 225.792 0 410.112-183.808 410.112-410.112 0-80.896-24.064-160.256-69.12-227.328l-8.192 22.016 10.24 22.016-24.064-1.536-17.92 15.36-6.656-23.04-21.504-12.288 19.968-12.8 4.608-23.552 18.944 15.36 24.064-2.048c-73.216-109.568-198.656-182.272-340.48-182.272zM680.96 589.8240000000001c-47.616 38.912-107.52 60.416-168.96 60.416-127.488 0-237.568-91.136-261.632-216.064l16.896-3.072c22.528 117.248 125.44 202.24 244.736 202.24 57.344 0 113.664-19.968 158.208-56.32l10.752 12.8z m-168.96-455.168c-57.856 0-113.664 19.968-158.208 56.32l-10.752-13.312c47.616-38.912 107.008-60.416 168.96-60.416 127.488 0 237.568 91.136 261.632 216.064l-16.896 3.072c-22.016-116.736-125.44-201.728-244.736-201.728zM389.632 302.08000000000004l15.872-43.52c0.512-2.048 1.024-3.584 0.512-5.632-0.512-1.536-1.024-3.072-2.048-4.608-1.024-1.536-2.56-2.56-4.096-3.584s-3.072-2.048-4.608-2.56l-121.344-44.032c-1.536-0.512-3.072-1.024-5.12-1.024-1.536 0-3.584 0-5.12 0.512s-3.072 1.024-4.608 2.048c-1.536 1.024-2.048 2.56-3.072 4.096l-39.936 110.08 27.136 9.728 9.216-25.088 87.04 31.744-17.408 48.128-118.272-43.008-7.68 21.504L341.504 409.6l28.672-78.848c0.512-2.048 1.024-4.096 0.512-5.632-0.512-2.048-1.024-3.584-2.048-5.12-1.024-1.536-2.56-3.072-4.096-4.096-1.536-1.024-3.072-2.048-5.12-2.56l-99.328-35.84 18.944-52.736 95.232 34.816-11.776 32.768 27.136 9.728zM431.616 344.06399999999996l15.872 7.168-15.36 42.496-14.848-5.12-7.68 21.504 14.848 5.12-8.704 24.064 27.136 9.728 8.704-24.064 14.336 5.12 7.68-21.504-14.336-5.12 14.848-40.448 12.8 5.632 9.216-20.992-13.824-6.656 18.432-50.176c0.512-1.536 1.024-3.584 0.512-5.12s-1.024-3.072-2.048-4.608c-1.024-1.536-2.048-2.56-3.584-3.584-1.536-1.024-3.072-2.048-4.608-2.56l-25.088-9.216-7.68 21.504 11.776 4.096-13.312 37.376-14.336-6.656-10.752 22.016z m50.176 53.248l39.424 14.336-8.192 23.04-36.864-13.312-7.68 21.504 36.864 13.312-5.12 14.848 27.136 9.728 5.12-14.848 37.376 13.824 7.68-21.504-37.376-13.824 8.192-23.04 39.936 14.336 7.68-21.504-106.496-38.912-7.68 22.016z m31.744-87.552l39.424 14.336-8.192 22.528-36.864-13.312-7.68 21.504 36.864 13.312-6.144 16.384L558.08 394.24l6.144-16.384 37.376 13.824 7.68-21.504-37.376-13.824 8.192-22.528 39.936 14.336 7.68-21.504-106.496-38.912-7.68 22.016zM651.264 394.24l-36.352 102.4c-1.024 3.072-0.512 5.632 1.024 8.704 1.536 3.072 3.584 5.12 6.656 6.144l59.392 20.992 39.936-113.152-18.944-6.656-32.256 92.672-32.768-11.776 32.768-93.184-19.456-6.144z m65.536-34.304l-19.968 25.088-0.512-25.088c0-2.56-1.024-4.608-2.56-6.144-1.536-1.536-3.584-3.072-6.144-3.584l-16.896-6.144-8.704 18.432 8.704 3.072 1.536 43.52-27.136 75.776 25.088 7.168 27.136-76.288-0.512-11.776 13.824 5.12 31.232-39.424-25.088-9.728z m117.76 41.472l-17.408-6.144c-2.56-1.024-5.632-1.024-8.192-0.512-3.072 0.512-5.12 2.048-6.656 4.608l-38.912 69.632-11.264-4.096 21.504-60.928 12.288 4.608 7.68-21.504-26.112-9.216c-1.536-0.512-3.072-1.024-5.12-1.024-1.536 0-3.584 0-5.12 0.512-1.536 0.512-3.072 1.024-4.096 2.048-1.536 1.024-2.048 2.56-3.072 4.096l-25.6 71.68-8.704-3.072-7.68 21.504 8.704 3.072-21.504 61.44 27.136 9.728 21.504-61.44 54.784 19.456 7.68-21.504-16.896-6.144 31.744-57.344 7.68 2.56 5.632-22.016z m-82.432 97.28l-3.584 58.368 27.136 9.728 3.584-58.368-27.136-9.728z"  horiz-adv-x="1027" />

    
    <glyph glyph-name="yifukuan" unicode="&#59037;" d="M334.336 650.752l18.944 15.36 24.576-2.048L368.64 686.08l9.728 22.016-25.088-2.048-18.944 15.36-5.632-23.04-20.992-12.288 20.992-12.288 5.632-23.04z m344.576 26.112l17.408-17.408 7.168 22.528 21.504 10.24-19.968 14.848-4.096 24.064-19.456-13.312-24.064 4.608 7.68-23.04-10.752-20.992 24.576-1.536z m-193.024 27.648l23.552 6.656 22.016-11.264v23.552l17.408 16.384-23.552 8.192-11.264 21.504-14.336-18.944-24.576-3.072 14.336-19.456-3.584-23.552zM230.912 562.176l16.896-16.896L256 568.32l22.016 10.752-19.456 13.824-2.56 24.064-20.48-14.336-24.064 3.584 6.656-22.528-11.776-21.504h24.576z m463.872-463.872l-18.944-15.36-24.576 2.048 9.216-22.016-9.216-22.016 24.576 2.048 18.944-15.36 5.632 23.04 20.992 12.288-20.992 12.288-5.632 23.04z m-150.016-41.984l-23.04-6.656-22.016 11.264v-23.552l-17.408-16.384 23.04-8.192 11.264-21.504 14.336 18.944 24.064 3.072-14.336 19.456 4.096 23.552zM363.52 82.944l-17.408 17.408-7.168-22.528-21.504-10.24 19.968-14.848 4.096-24.064 19.456 13.312 24.064-4.608-7.68 23.04 10.752 20.992-24.576 1.536zM512 896C229.888 896 0 666.112 0 384s229.888-512 512-512 512 229.888 512 512S794.112 896 512 896z m0-990.208c-263.68 0-478.208 214.528-478.208 478.208C33.792 647.68 248.32 862.208 512 862.208c263.68 0 478.208-214.528 478.208-478.208 0-263.68-214.528-478.208-478.208-478.208zM512 813.568c-236.544 0-429.568-192.512-429.568-429.568 0-236.544 192.512-429.568 429.568-429.568 236.544 0 429.568 192.512 429.568 429.568 0 236.544-193.024 429.568-429.568 429.568z m0-839.68c-225.792 0-410.112 183.808-410.112 410.112 0 225.792 183.808 410.112 410.112 410.112 225.792 0 410.112-183.808 410.112-410.112 0-80.896-24.064-160.256-69.12-227.328l-8.192 22.016 10.24 22.016-24.064-1.536-17.92 15.36-6.656-23.04-21.504-12.288 19.968-12.8 4.608-23.552 18.944 15.36 24.064-2.048c-73.216-109.568-198.656-182.272-340.48-182.272zM680.96 589.824c-47.616 38.912-107.52 60.416-168.96 60.416-127.488 0-237.568-91.136-261.632-216.064l16.896-3.072c22.528 117.248 125.44 202.24 244.736 202.24 57.344 0 113.664-19.968 158.208-56.32l10.752 12.8z m-168.96-455.168c-57.856 0-113.664 19.968-158.208 56.32l-10.752-13.312c47.616-38.912 107.008-60.416 168.96-60.416 127.488 0 237.568 91.136 261.632 216.064l-16.896 3.072c-22.016-116.736-125.44-201.728-244.736-201.728zM394.752 302.08l15.872-43.52c0.512-2.048 1.024-3.584 0.512-5.632-0.512-1.536-1.024-3.072-2.048-4.608-1.024-1.536-2.56-2.56-4.096-3.584s-3.072-2.048-4.608-2.56l-121.344-44.032c-1.536-0.512-3.072-1.024-5.12-1.024-1.536 0-3.584 0-5.12 0.512-1.536 0.512-3.072 1.024-4.608 2.048-1.536 1.024-2.048 2.56-3.072 4.096l-39.936 110.08 27.136 9.728 9.216-25.088 87.04 31.744-17.408 48.128-118.272-43.008-7.68 21.504L346.624 409.6l28.672-78.848c0.512-2.048 1.024-4.096 0.512-5.632-0.512-2.048-1.024-3.584-2.048-5.12-1.024-1.536-2.56-3.072-4.096-4.096-1.536-1.024-3.072-2.048-5.12-2.56l-98.816-35.84 18.944-52.736 95.232 34.816-11.776 32.768 26.624 9.728zM474.112 268.288l-36.352 99.328-17.408-6.144 4.608 79.36 27.648 10.24-3.584-56.832 8.704 3.072 43.52-119.296-27.136-9.728z m-15.872 157.184l72.704 26.624L522.24 476.16l27.136 9.728 8.704-24.064 14.848 5.12 7.68-21.504-14.848-5.12 40.96-112.128c0.512-1.536 0.512-3.072 0.512-4.608-0.512-1.536-1.024-3.072-2.048-4.096-1.024-1.536-2.048-2.56-3.584-3.584-1.536-1.024-2.56-1.536-4.096-2.048l-38.4-13.824-7.68 21.504 24.064 8.704-36.352 100.352L465.92 403.968l-7.68 21.504z m47.616-22.016l46.592-67.072-27.136-9.728-46.592 67.072 27.136 9.728zM658.944 335.36l-10.24 44.544 20.992 7.68 10.24-44.544-20.992-7.68z m18.944 31.232l7.68 2.56-9.728 27.136-33.792-12.288-7.68 21.504 90.112 32.768 7.68-21.504-30.72-11.264 14.336-38.912c1.024-2.56 0.512-5.12-1.024-8.192-1.536-2.56-4.096-4.608-7.168-5.632l-17.92-6.656-11.776 20.48z m-60.928 97.28l28.16 10.24-4.096 11.264-29.696-10.752-7.68 21.504 29.696 10.752-3.584 9.216 25.088 9.216 3.584-9.216 30.208 10.752 7.68-21.504-30.208-10.752 4.096-11.264 28.16 10.24 7.68-20.992-81.92-29.696-7.168 20.992z m10.24-27.648l81.92 29.696 7.68-20.992-81.92-30.208-7.68 21.504z m101.376-75.264l-20.992 40.96 20.992 7.68 20.992-40.96-20.992-7.68z m41.472 117.76l-15.36 46.592-29.184-10.752 12.8-47.104-23.04-8.704-20.992 79.36 23.04 8.192 2.56-9.728 39.936 14.848c3.072 1.024 6.144 1.024 8.704 0s4.608-3.072 5.632-6.656l19.456-57.856-23.552-8.192z m-15.36 32.256l16.384-45.056 0.512-7.68 8.704 3.072 47.616-64-24.576-9.216-28.672 38.4 3.072-39.424c0.512-2.56-0.512-5.12-2.048-7.168-1.536-2.048-3.584-3.584-6.144-4.096l-16.384-6.144-9.728 20.992 7.68 3.072-5.632 68.608-14.848 41.472 24.064 7.168z"  horiz-adv-x="1027" />

    
    <glyph glyph-name="xiugaitiaozheng" unicode="&#59034;" d="M311.808-58.88H977.92c17.408 0 31.744-14.336 31.744-31.744 0-17.408-14.336-31.744-31.744-31.744H311.808c-17.408 0-31.744 14.336-31.744 31.744 0 17.92 13.824 31.744 31.744 31.744zM908.288 843.776c-61.952 61.952-162.304 61.952-224.256 0L11.776 171.008v-224.256h224.256L908.288 619.52c61.952 62.464 61.952 162.304 0 224.256zM75.264 10.24l-0.512 134.144L209.408 10.24H75.264z m179.2 45.056l-134.656 134.656 497.152 496.64 134.656-134.656-497.152-496.64z m609.28 609.28l-67.584-67.072L661.504 732.16l67.072 67.072c36.864 36.864 97.28 36.864 134.656 0 37.376-37.376 37.376-97.28 0.512-134.656z"  horiz-adv-x="1024" />

    
    <glyph glyph-name="guazhang" unicode="&#59033;" d="M818.176 891.392C875.52 891.392 921.6 845.824 921.6 790.016V291.84c-26.624 27.136-34.816 32.256-65.536 50.688V784.896c0 23.552-19.456 42.496-43.52 42.496h-634.88c-23.552 0-43.52-18.944-43.52-42.496v-767.488c0-23.552 19.456-42.496 43.008-42.496H481.28c13.312-30.208 21.504-43.52 50.688-64.512H172.032c-56.832 0-103.424 45.056-103.424 100.864V790.016C68.608 845.824 115.2 891.392 172.032 891.392h646.144zM728.576 328.704c-125.44 0-226.816-101.376-226.816-226.816s101.376-226.816 226.816-226.816c124.928 0 226.816 101.376 226.816 226.816s-101.376 226.816-226.816 226.816z m0-395.264c-92.672 0-168.448 75.264-168.448 168.448s75.264 168.448 168.448 168.448 168.448-75.264 168.448-168.448-75.264-168.448-168.448-168.448zM314.88 305.152h164.352v-72.704H314.88zM314.88 479.744h357.888v-72.704H314.88zM314.88 642.56h357.888v-72.704H314.88zM760.832 115.2l49.664-49.664c12.8-12.8 12.8-33.28 0-45.568-12.8-12.8-33.28-12.8-45.568 0L707.072 76.8c-1.024 1.024-1.536 2.048-2.56 2.56-5.12 5.632-8.704 13.312-8.704 22.016v64.512c0 17.92 14.336 32.256 32.256 32.256s32.256-14.336 32.256-32.256v-50.688z"  horiz-adv-x="1024" />

    
    <glyph glyph-name="zuofei" unicode="&#59032;" d="M954.88 195.584l-137.216-132.608 126.464-131.072c6.144-6.144 9.728-14.848 9.216-23.552-0.512-8.704-4.096-16.896-10.24-22.528-12.8-12.8-33.792-12.288-46.08 0.512l-126.976 131.584-137.216-132.608c-6.144-6.144-14.336-9.216-23.04-9.216-8.704 0-16.896 3.584-23.552 10.24-6.144 6.144-9.216 14.336-8.704 23.552 0.512 8.704 3.584 16.896 9.728 22.528l137.216 132.608-138.752 143.36c-6.144 6.144-9.216 14.848-8.704 23.552 0.512 8.704 3.584 16.384 9.728 22.528 12.8 12.288 33.792 11.776 46.08-0.512l138.752-143.872 137.216 132.608c12.8 12.288 33.792 11.776 46.08-0.512 6.144-6.656 9.216-14.848 8.704-23.552 0.512-9.216-3.072-17.408-8.704-23.04zM162.304 892.928h644.096c56.832 0 102.912-45.056 102.912-100.864v-471.04c0-17.92-14.848-32.768-32.768-32.768-17.92 0-32.768 14.848-32.768 32.768v465.92c0 23.04-19.456 41.984-43.008 41.984H167.936c-23.552 0-43.008-18.944-43.008-41.984v-764.928c0-23.04 19.456-41.984 43.008-41.984h207.36c17.92 0 32.256-14.336 32.256-32.256s-14.336-32.256-32.256-32.256H162.304c-56.832 0-102.912 45.056-102.912 100.864V792.064C59.392 847.872 105.472 892.928 162.304 892.928zM305.152 308.736h163.84v-72.704h-163.84zM305.152 482.816h356.864v-72.704H305.152zM305.152 645.12h356.864v-72.704H305.152z"  horiz-adv-x="1024" />

    
    <glyph glyph-name="shoufukuan" unicode="&#59031;" d="M205.312 891.392C148.48 891.392 101.888 845.824 101.888 790.016V10.24c0-55.808 46.592-101.376 103.424-101.376h214.016c17.92 0 32.256 14.336 32.256 32.256s-14.336 32.256-32.256 32.256H210.944c-24.064 0-43.008 18.944-43.008 42.496V784.896c0 23.552 19.456 42.496 43.52 42.496h635.904c24.064 0 43.52-18.944 43.52-42.496V317.44c0-17.92 14.848-32.768 32.768-32.768 17.92 0 32.768 14.848 32.768 32.768V790.016c0 55.808-46.592 101.376-103.424 101.376H205.312zM982.528 214.016c-12.288 13.312-32.768 13.312-45.056-0.512l-232.96-255.488-102.912 114.688c-12.288 13.824-32.768 13.824-45.056 0.512-12.8-13.312-12.8-35.328-0.512-49.152l125.952-140.288v-0.512c2.048-2.048 4.608-3.584 6.656-5.12 1.024-0.512 2.048-2.048 3.584-2.56 4.096-1.536 8.192-2.56 12.288-2.56 4.096 0 8.192 1.024 11.776 2.56 1.024 0.512 2.048 1.536 3.584 2.56 2.56 1.536 5.12 2.56 7.168 5.12v0.512h0.512l255.488 280.576c12.288 14.336 12.288 35.84-0.512 49.664M698.368 624.64l-98.304-201.728h30.72c17.408 0 31.744-14.336 31.744-31.744 0-8.704-3.584-16.896-9.216-22.528-5.632-5.632-13.824-9.216-22.528-9.216H558.08v-48.64h72.192c17.408 0 31.744-14.336 31.744-31.744 0-8.704-3.584-16.896-9.216-22.528-5.632-5.632-13.824-9.216-22.528-9.216H558.08V153.6c0-17.408-14.336-31.744-31.744-31.744-8.704 0-16.896 3.584-22.528 9.216-5.632 5.632-9.216 13.824-9.216 22.528v93.696H422.4c-17.408 0-31.744 14.336-31.744 31.744 0 8.704 3.584 16.896 9.216 22.528 5.632 5.632 13.824 9.216 22.528 9.216h72.192v48.64H422.4c-17.408 0-31.744 14.336-31.744 31.744 0 8.704 3.584 16.896 9.216 22.528 5.632 5.632 13.824 9.216 22.528 9.216h30.72L354.816 624.64c-2.048 4.608-3.072 9.216-3.072 13.824 0 11.776 6.656 23.04 17.92 28.672 15.872 7.68 34.816 1.024 42.496-14.848l111.616-228.864c0-0.512 0.512-0.512 0.512-1.024h5.12c0 0.512 0.512 0.512 0.512 1.024l111.616 228.864c7.68 15.872 26.624 22.528 42.496 14.848 11.264-5.632 17.92-16.896 17.92-28.672-0.512-4.096-1.536-9.216-3.584-13.824z"  horiz-adv-x="1024" />

    
    <glyph glyph-name="piliangjizhang" unicode="&#59030;" d="M885.248 287.744c-18.944 0-36.352-7.68-49.152-20.48L733.184 163.84l-189.44-190.464v-97.28h100.352l217.6 218.624 70.144 70.656v0.512c13.824 12.8 22.528 31.232 22.528 51.712 0.512 38.4-30.72 70.144-69.12 70.144zM583.68-84.992v39.424l39.424-39.424H583.68z m153.088 113.664l-83.968-84.48-39.936 39.936 140.8 141.312 55.808 56.32 39.936-39.936-112.64-113.152z m178.688 179.2l-36.864-36.864-39.936 39.936 35.328 35.84c3.584 1.024 7.168 2.048 11.264 2.048 17.408 0 31.744-14.336 31.744-31.744 0-3.072-0.512-6.144-1.536-9.216zM259.072 224.256h158.208v-63.488H259.072zM259.072 382.464h347.648v-63.488H259.072zM259.072 540.672h347.648v-63.488H259.072zM208.384 761.856v25.6c0 55.808 46.08 100.864 102.912 100.864h517.12c56.832 0 102.912-45.056 102.912-100.864v-279.04c0-17.92-14.848-32.768-32.768-32.768-17.92 0-32.768 14.848-32.768 32.768V782.336c0 23.04-19.456 41.984-43.008 41.984H316.928c-23.552 0-43.008-18.944-43.008-41.984V768c0-2.048-0.512-4.096-1.536-6.144h416.768c56.832 0 102.912-45.056 102.912-100.864v-279.04c0-17.92-14.848-32.768-32.768-32.768-17.92 0-32.768 14.848-32.768 32.768V655.872c0 23.04-19.456 41.984-43.008 41.984H177.664c-23.552 0-43.008-18.944-43.008-41.984v-637.952c0-23.04 19.456-41.984 43.008-41.984h254.464c17.92 0 32.256-14.336 32.256-32.256s-14.336-32.256-32.256-32.256H172.032c-56.832 0-102.912 45.056-102.912 100.864V660.992c0 55.808 46.08 100.864 102.912 100.864h36.352z"  horiz-adv-x="1024" />

    
    <glyph glyph-name="liushui" unicode="&#59029;" d="M891.904 790.016H132.096C61.952 790.016 5.12 733.184 5.12 663.04v-569.856c0-70.144 56.832-126.464 126.464-126.464h759.808c70.144 0 126.464 56.832 126.464 126.464V663.04c1.024 70.144-55.808 126.976-125.952 126.976z m63.488-696.832c0-34.816-28.672-63.488-63.488-63.488H132.096c-34.816 0-63.488 28.672-63.488 63.488V663.04c0 34.816 28.672 63.488 63.488 63.488h759.808c34.816 0 63.488-28.672 63.488-63.488v-569.856zM797.184 219.648h95.232v-63.488h-95.232zM132.096 219.648h95.232v-63.488H132.096zM290.304 219.648h443.392v-63.488H290.304zM797.184 409.6h95.232v-63.488h-95.232zM132.096 409.6h95.232v-63.488H132.096zM290.304 409.6h443.392v-63.488H290.304zM797.184 600.064h95.232v-63.488h-95.232zM132.096 600.064h95.232v-63.488H132.096zM290.304 600.064h443.392v-63.488H290.304z"  horiz-adv-x="1024" />

    
    <glyph glyph-name="riqi1" unicode="&#59028;" d="M897.536 805.376H125.44C60.416 805.376 7.168 749.568 7.168 680.96v-677.376c0-68.608 53.248-124.416 118.272-124.416h772.096c65.024 0 118.272 55.808 118.272 124.416V680.96c0 68.608-53.248 124.416-118.272 124.416z m46.592-801.792c0-29.184-20.992-53.248-47.104-53.248H125.44c-26.112 0-47.104 24.064-47.104 53.248V680.96c0 29.184 20.992 53.248 47.104 53.248h771.584c26.112 0 47.104-24.064 47.104-53.248v-677.376zM33.792 519.168h957.44v-71.168H33.792zM719.36 621.568c-19.456 0-35.84 15.872-35.84 35.84V852.992c0 19.456 15.872 35.84 35.84 35.84 19.456 0 35.84-15.872 35.84-35.84v-195.584c0-19.456-16.384-35.84-35.84-35.84zM304.128 621.568c-19.456 0-35.84 15.872-35.84 35.84V852.992c0 19.456 15.872 35.84 35.84 35.84 19.456 0 35.84-15.872 35.84-35.84v-195.584c-0.512-19.456-16.384-35.84-35.84-35.84z"  horiz-adv-x="1024" />

    
    <glyph glyph-name="cesuan" unicode="&#59027;" d="M210.944 676.352V842.24c0 24.064 20.992 45.056 45.056 45.056s45.056-20.992 45.056-45.056v-165.888h165.888c24.064 0 45.056-20.992 45.056-45.056s-20.992-45.056-45.056-45.056H301.056v-165.888c0-24.064-20.992-45.056-45.056-45.056s-45.056 20.992-45.056 45.056V586.24H45.056c-24.064 0-45.056 20.992-45.056 45.056s20.992 45.056 45.056 45.056h165.888zM1024 802.816c17.92-17.92 17.92-48.128 0-66.048L180.736-106.496c-17.92-17.92-48.128-17.92-66.048 0s-17.92 48.128 0 66.048L957.952 802.816c17.92 15.36 48.128 15.36 66.048 0z m-316.416-578.048h331.264c24.064 0 45.056-20.992 45.056-45.056s-20.992-45.056-45.056-45.056h-331.264c-24.064 0-45.056 20.992-45.056 45.056s20.992 45.056 45.056 45.056z m0-210.944h331.264c24.064 0 45.056-20.992 45.056-45.056s-20.992-45.056-45.056-45.056h-331.264c-24.064 0-45.056 20.992-45.056 45.056s20.992 45.056 45.056 45.056z"  horiz-adv-x="1083" />

    
    <glyph glyph-name="qiehuan3" unicode="&#59026;" d="M1017.344 575.488v-382.464c0-87.04-70.656-157.696-157.696-157.696h-125.952c-17.408 0-31.744 13.824-31.744 31.744 0 17.408 14.336 31.744 31.744 31.744h125.952c52.224 0 94.72 42.496 94.72 94.72V575.488c0 52.224-42.496 94.72-94.72 94.72h-303.104l41.472-41.472c12.288-12.288 12.288-32.256 0-44.544-6.144-6.144-14.336-9.216-22.528-9.216-8.192 0-15.872 3.072-22.528 9.216L458.24 679.424c-4.096 4.608-7.168 9.728-8.704 15.872-0.512 2.048-0.512 3.584-0.512 6.144 0 8.704 3.584 16.384 9.216 22.528l1.536 1.536L552.96 818.176c12.8 12.8 32.256 12.288 45.056 0 12.288-12.288 12.288-32.256 0-44.544l-40.448-39.936h302.08c87.04 0 157.696-70.656 157.696-158.208zM580.096 67.072c0-8.192-3.584-16.384-9.216-22.016L476.16-50.176c-6.144-6.144-14.336-9.216-22.528-9.216-8.192 0-15.872 3.072-22.528 9.216-12.288 12.288-12.288 32.256 0 44.544l40.448 40.96h-307.2c-87.04 0-157.696 70.656-157.696 157.696V575.488c0 87.04 70.656 157.696 157.696 157.696h125.952c17.408 0 31.744-14.336 31.744-31.744 0-17.408-14.336-31.744-31.744-31.744H165.376c-52.224 0-94.72-42.496-94.72-94.72v-382.464c0-52.224 42.496-94.72 94.72-94.72h307.2l-40.96 40.448c-12.288 12.288-12.288 32.256 0 44.544 12.288 12.288 32.256 12.8 44.544 0.512l94.72-94.208c5.632-5.632 9.216-13.312 9.216-22.016zM458.24 679.424c-4.608 4.096-7.168 9.728-8.704 15.872 1.536-6.144 4.608-11.264 8.704-15.872z"  horiz-adv-x="1024" />

    
    <glyph glyph-name="qiehuan2" unicode="&#59025;" d="M1006.08 207.872L730.112-66.56c-7.68-8.192-18.944-12.288-29.696-12.288-10.24 0-21.504 3.584-29.696 12.288-7.68 7.68-12.288 18.432-12.288 29.696 0 10.752 4.096 21.504 12.288 29.696l203.776 203.264H48.128c-23.04 0-41.472 18.944-41.472 41.472 0 23.552 18.944 41.984 41.472 41.984h928.768c1.024 0 2.56-0.512 4.096-0.512 9.728-1.024 18.944-5.12 25.6-12.288 15.872-15.872 15.872-42.496-0.512-58.88zM1018.368 533.504c0-23.552-18.944-41.984-41.472-41.984H48.128c-23.04 0-41.472 18.944-41.472 41.984 0 11.264 4.608 22.016 12.8 30.208l274.944 273.92c16.384 16.384 43.008 16.384 59.392 0 16.384-16.384 16.384-43.008 0-59.392L149.504 574.976h827.392c22.528 0 41.472-18.432 41.472-41.472z"  horiz-adv-x="1024" />

    
    <glyph glyph-name="shenpishezhi" unicode="&#59024;" d="M896-64H128c-17.408 0-31.744 13.824-31.744 30.72s14.336 30.72 31.744 30.72h768c17.408 0 31.744-13.824 31.744-30.72s-14.336-30.72-31.744-30.72zM515.072 770.56h4.608c82.944-3.584 154.112-76.288 155.136-158.72v-1.024c1.024-39.936-14.848-81.408-43.008-113.664-34.304-36.864-56.32-82.432-65.024-135.68-3.072-17.92 2.048-35.84 13.824-49.664 11.776-13.824 28.672-21.504 46.592-21.504h204.8c18.944 0 34.816-15.872 34.816-34.816v-130.56H157.696V256c0 18.944 15.872 34.816 34.816 34.816h204.8c17.92 0 35.328 8.192 47.104 21.504s16.896 31.744 13.824 49.664c-8.192 47.616-30.72 95.232-66.56 136.704l-1.024 1.024c-26.112 29.696-40.448 68.096-40.448 108.032 0 44.544 17.92 86.528 50.176 117.248 29.696 30.208 69.632 45.568 114.688 45.568m0 61.44c-59.904 0-114.688-20.992-158.208-62.464-45.056-43.008-68.608-100.864-68.608-161.792 0-54.272 19.456-107.008 55.808-148.992 27.136-31.744 46.592-68.608 52.736-107.008h-204.8c-52.736 0-96.256-43.008-96.256-96.256v-160.256c0-17.408 14.336-31.744 31.744-31.744h768c17.408 0 31.744 14.336 31.744 31.744V256c0 52.736-43.008 96.256-96.256 96.256h-204.8c6.144 39.936 22.528 75.264 49.664 103.936 38.4 43.008 60.928 99.328 59.392 156.672-1.536 115.2-99.328 214.528-214.528 219.136h-5.632z"  horiz-adv-x="1024" />

    
    <glyph glyph-name="zhankaixiajicaidan" unicode="&#59023;" d="M512-117.76c-276.48 0-501.76 225.28-501.76 501.76S235.52 885.76 512 885.76s501.76-225.28 501.76-501.76-225.28-501.76-501.76-501.76z m0 947.712C266.24 829.952 66.048 629.76 66.048 384S266.24-61.952 512-61.952s445.952 200.192 445.952 445.952S757.76 829.952 512 829.952zM428.544 160.768c-7.68 0-15.36 3.072-20.992 9.728-10.24 11.776-9.216 29.184 2.56 39.424l199.168 174.08-199.168 174.08c-11.776 10.24-12.8 27.648-2.56 39.424s27.648 12.8 39.424 2.56l223.232-195.072c6.144-5.12 9.728-12.8 9.728-20.992s-3.584-15.872-9.728-20.992l-223.232-195.072c-5.632-4.608-12.288-7.168-18.432-7.168z"  horiz-adv-x="1024" />

    
    <glyph glyph-name="xinzengxiangmu" unicode="&#59022;" d="M902.144 705.024H655.36C635.392 798.72 551.936 866.304 455.68 866.304H119.296c-60.928 0-110.08-49.664-110.08-110.08v-693.248c0-62.464 50.688-113.152 113.152-113.152H578.56c16.384 0 29.696 12.8 29.696 29.696 0 16.384-13.312 29.696-29.696 29.696H121.856c-29.696 0-53.76 24.064-53.76 53.76V646.144h834.048c29.696 0 54.272-24.064 54.272-53.76v-292.352c0-16.384 12.8-29.696 29.696-29.696 16.384 0 29.696 13.312 29.696 29.696V592.384c-0.512 62.464-51.2 112.64-113.664 112.64z m-834.048 0v50.688c0 28.16 23.04 50.688 50.688 50.688H455.68c64 0 119.808-41.984 138.752-101.888H68.096zM654.848 194.56H339.456c-3.072 0-5.12 2.048-5.12 5.12v49.152c0 3.072 2.048 5.12 5.12 5.12h315.392c3.072 0 5.12-2.048 5.12-5.12v-49.152c0-3.072-2.048-5.12-5.12-5.12zM802.816 342.528H339.456c-3.072 0-5.12 2.048-5.12 5.12v49.152c0 3.072 2.048 5.12 5.12 5.12h463.36c3.072 0 5.12-2.048 5.12-5.12v-49.152c0-3.072-2.048-5.12-5.12-5.12zM186.368 253.44H245.76v-59.392H186.368zM186.368 401.408H245.76v-59.392H186.368zM837.632-101.888c-16.384 0-29.696 13.312-29.696 29.696v295.936c0 16.384 13.312 29.696 29.696 29.696 16.384 0 29.696-13.312 29.696-29.696v-295.936c0-16.384-13.312-29.696-29.696-29.696zM659.968 75.776c0 16.384 13.312 29.696 29.696 29.696h295.936c16.384 0 29.696-13.312 29.696-29.696 0-16.384-13.312-29.696-29.696-29.696h-295.936c-16.384 0.512-29.696 13.312-29.696 29.696z"  horiz-adv-x="1024" />

    
    <glyph glyph-name="xinzengwanglaidanwei" unicode="&#59021;" d="M440.32-85.504c-165.888 0-369.152 4.608-396.288 26.112-2.048 1.536-3.584 3.072-5.12 5.12-52.224 70.656-28.672 187.392 26.112 236.544 7.68 7.168 25.6 22.528 197.12 66.048C209.92 318.464 177.152 418.816 177.152 517.12c0 138.24 27.136 322.048 261.632 322.048 234.496 0 261.632-183.808 261.632-322.048 0-99.84-31.744-198.144-84.992-268.288 24.576-6.144 53.248-13.824 81.408-22.016 14.336-4.096 22.528-18.944 18.432-32.768-4.096-14.336-18.944-22.016-32.768-18.432-46.592 13.312-96.256 25.6-121.856 32.256-9.216 2.56-16.896 9.728-19.456 18.944-2.56 9.216 0 19.456 7.168 26.112 59.904 58.88 98.816 162.816 98.816 264.704 0 190.976-60.416 268.8-207.872 268.8-147.968 0-207.872-77.824-207.872-268.8 0-102.4 38.912-206.336 99.328-265.216 7.168-6.656 9.728-16.896 7.168-26.112-2.56-9.216-10.24-16.384-19.456-18.944-184.832-45.056-213.504-61.952-217.088-65.024-31.744-28.672-54.272-107.008-23.04-158.208 18.944-4.096 95.232-15.872 362.496-15.872 70.656 0 133.12 1.024 186.368 2.56 14.848 0 27.136-11.264 27.648-26.112 0.512-14.848-11.264-27.136-26.112-27.648-53.76-2.048-117.248-2.56-188.416-2.56zM862.208 349.184c-4.608 0-9.216 1.024-13.312 3.584-12.8 7.68-16.896 24.064-9.216 36.352 31.744 53.248 49.664 122.368 49.664 188.928 0 192-61.44 229.376-167.936 229.376-15.872 0-30.72-1.024-44.032-3.072-14.336-2.56-28.16 7.68-30.72 22.016s7.68 28.16 22.016 30.72c15.872 2.56 33.792 3.584 52.224 3.584C876.032 861.696 942.08 777.216 942.08 578.56c0-75.776-20.992-154.624-56.832-216.064-5.12-8.704-13.824-13.312-23.04-13.312zM837.632-98.816c-16.384 0-29.696 13.312-29.696 29.696v296.448c0 16.384 13.312 29.696 29.696 29.696 16.384 0 29.696-13.312 29.696-29.696v-296.448c0-16.384-13.312-29.696-29.696-29.696zM659.456 79.36c0 16.384 13.312 29.696 29.696 29.696h296.448c16.384 0 29.696-13.312 29.696-29.696 0-16.384-13.312-29.696-29.696-29.696h-296.448c-16.384 0-29.696 13.312-29.696 29.696z"  horiz-adv-x="1024" />

    
    <glyph glyph-name="xinzengcunhuo" unicode="&#59019;" d="M508.928 271.872c-4.608 0-8.704 1.024-12.8 3.584L262.144 412.16c-7.68 4.608-12.8 12.8-12.8 22.016v261.12c0 9.216 5.12 17.408 12.8 22.016 7.68 4.608 17.408 4.608 25.6 0l233.984-136.704c7.68-4.608 12.8-12.8 12.8-22.016v-261.12c0-9.216-5.12-17.408-12.8-22.016-4.096-2.048-8.192-3.584-12.8-3.584zM300.032 448.512l183.296-107.008V544.256L300.032 651.264v-202.752zM508.928 271.872c-4.608 0-8.704 1.024-12.8 3.584-7.68 4.608-12.8 12.8-12.8 22.016v261.12c0 9.216 4.608 17.408 12.8 22.016l233.984 136.704c7.68 4.608 17.408 4.608 25.6 0 7.68-4.608 12.8-12.8 12.8-22.016v-261.12c0-9.216-4.608-17.408-12.8-22.016l-233.984-136.704c-4.096-2.048-8.192-3.584-12.8-3.584z m25.6 272.384v-202.24l183.296 107.008V651.264l-183.296-107.008zM508.928 533.504c-4.608 0-8.704 1.024-12.8 3.584L262.144 673.28c-7.68 4.608-12.8 12.8-12.8 22.016s4.608 17.408 12.8 22.016L496.128 854.016c7.68 4.608 17.92 4.608 25.6 0l233.984-136.704c7.68-4.608 12.8-12.8 12.8-22.016s-4.608-17.408-12.8-22.016l-233.984-136.704c-4.096-2.048-8.192-3.072-12.8-3.072zM325.12 695.296l183.808-107.008 183.808 107.008-183.808 107.52-183.808-107.52zM274.944-102.4c-4.608 0-8.704 1.024-12.8 3.584L28.16 37.888c-7.68 4.608-12.8 12.8-12.8 22.016v238.08c0 9.216 5.12 17.408 12.8 22.016s17.408 4.608 25.6 0l233.984-136.704c7.68-4.608 12.8-12.8 12.8-22.016V-76.8c0-9.216-5.12-17.408-12.8-22.016-4.096-2.56-8.704-3.584-12.8-3.584z m-208.896 176.64l183.296-107.008v179.2l-183.296 107.008v-179.2zM274.944 135.68c-4.608 0-8.704 1.024-12.8 3.584L28.16 275.456c-7.68 4.608-12.8 12.8-12.8 22.016s4.608 17.408 12.8 22.016l233.984 136.704c7.68 4.608 17.92 4.608 25.6 0l233.984-136.704c7.68-4.608 12.8-12.8 12.8-22.016s-4.608-17.408-12.8-22.016l-233.984-136.704c-4.096-2.048-8.704-3.072-12.8-3.072z m-183.808 161.792l183.808-107.008 183.808 107.008L274.944 404.48l-183.808-107.008zM274.944-102.4c-4.608 0-8.704 1.024-12.8 3.584-7.68 4.608-12.8 12.8-12.8 22.016v238.08c0 9.216 4.608 17.408 12.8 22.016l233.984 136.704c7.68 4.608 17.408 4.608 25.6 0 7.68-4.608 12.8-12.8 12.8-22.016v-238.08c0-9.216-4.608-17.408-12.8-22.016l-233.984-136.704c-4.096-2.56-8.704-3.584-12.8-3.584z m25.088 248.832v-179.2l183.296 107.008v179.2l-183.296-107.008zM626.176-34.304c-4.096 0-8.704 1.024-12.8 3.584l-117.248 68.096c-7.68 4.608-12.8 12.8-12.8 22.016v238.08c0 13.824 11.264 25.6 25.6 25.6s25.6-11.264 25.6-25.6v-223.232l104.448-60.928c12.288-7.168 16.384-22.528 9.216-34.816-5.12-8.192-13.312-12.8-22.016-12.8zM625.664 203.776c-4.096 0-8.704 1.024-12.8 3.584l-116.736 68.096c-7.68 4.608-12.8 12.8-12.8 22.016s4.608 17.408 12.8 22.016l233.984 136.704c7.68 4.608 17.92 4.608 25.6 0l233.984-136.704c12.288-7.168 16.384-22.528 9.216-34.816s-22.528-16.384-34.816-9.216L742.912 404.48l-183.808-107.008 79.36-46.08c12.288-7.168 16.384-22.528 9.216-34.816-4.608-8.192-13.312-12.8-22.016-12.8zM840.704-81.408c-15.36 0-28.16 12.8-28.16 28.16v282.624c0 15.36 12.8 28.16 28.16 28.16s28.16-12.8 28.16-28.16v-282.624c0-15.36-12.8-28.16-28.16-28.16zM671.232 88.064c0 15.36 12.8 28.16 28.16 28.16h282.624c15.36 0 28.16-12.8 28.16-28.16s-12.8-28.16-28.16-28.16h-282.624c-15.36 0-28.16 12.8-28.16 28.16z"  horiz-adv-x="1024" />

    
    <glyph glyph-name="duanwang" unicode="&#59018;" d="M17.92 562.176c24.576-28.16 49.664-55.808 74.24-83.968 243.712 207.36 576 220.672 837.632-1.024 25.088 29.184 50.176 58.368 74.752 87.04-326.656 298.496-737.792 238.592-986.624-2.048z m162.304-186.368c25.6-29.696 51.2-59.392 77.312-89.088 143.872 107.008 286.208 120.32 429.568 46.592h6.656c32.256 0 62.976-8.704 89.088-23.552 18.944 22.016 38.4 44.032 58.368 67.072-211.968 201.728-512 152.064-660.992-1.024z m332.288-223.232c0 36.864 11.264 71.68 30.208 100.352-72.192 11.264-145.92-11.776-198.144-67.584C399.36 122.88 453.632 60.928 509.952-3.584c13.312 15.36 26.624 30.72 39.936 45.568-23.552 30.72-37.376 68.608-37.376 110.592zM694.272 279.04c-69.632 0-124.928-56.832-124.928-126.976s56.832-126.976 124.928-126.976c69.632 0 124.928 56.832 124.928 126.976s-55.296 126.976-124.928 126.976z m50.688-158.208c4.608-4.608 4.608-14.336 0-18.944-4.608-4.608-14.336-4.608-18.944 0l-31.744 31.744-31.744-31.744c-4.608-4.608-14.336-4.608-18.944 0-4.608 4.608-4.608 14.336 0 18.944l31.744 31.744-31.744 31.744c-4.608 4.608-4.608 14.336 0 18.944 4.608 4.608 14.336 4.608 18.944 0l31.744-31.744 31.744 31.744c4.608 4.608 14.336 4.608 18.944 0 4.608-4.608 4.608-14.336 0-18.944l-31.744-31.744 31.744-31.744z"  horiz-adv-x="1024" />

    
    <glyph glyph-name="riqiqiehuan" unicode="&#59017;" d="M525.824-120.832H125.44c-65.024 0-118.272 55.808-118.272 124.416V680.96c0 68.608 53.248 124.416 118.272 124.416h772.096c65.024 0 118.272-55.808 118.272-124.416v-337.92c0-19.456-15.872-35.84-35.84-35.84-19.456 0-35.84 15.872-35.84 35.84V680.96c0 29.184-20.992 53.248-47.104 53.248H125.44c-26.112 0-47.104-24.064-47.104-53.248v-677.376c0-29.184 20.992-53.248 47.104-53.248h399.872c19.456 0 35.84-15.872 35.84-35.84s-15.872-35.328-35.328-35.328zM33.792 519.168h957.44v-71.168H33.792zM976.384 119.296h-355.84c-14.336 0-27.136 8.704-32.768 21.504s-2.56 28.16 7.168 38.4l114.688 118.784c13.824 14.336 36.352 14.336 50.176 1.024 14.336-13.824 14.336-36.352 1.024-50.176l-56.32-58.368h272.384c19.456 0 35.84-15.872 35.84-35.84-1.024-19.456-16.896-35.328-36.352-35.328zM861.696-118.272c-8.704 0-17.92 3.584-24.576 10.24-14.336 13.824-14.336 36.352-1.024 50.176l56.32 58.368h-272.384c-19.456 0-35.84 15.872-35.84 35.84 0 19.456 15.872 35.84 35.84 35.84h355.84c14.336 0 27.136-8.704 32.768-21.504 5.632-13.312 2.56-28.16-7.168-38.4L887.296-107.52c-7.168-7.168-16.384-10.752-25.6-10.752zM719.36 621.568c-19.456 0-35.84 15.872-35.84 35.84V852.992c0 19.456 15.872 35.84 35.84 35.84 19.456 0 35.84-15.872 35.84-35.84v-195.584c0-19.456-16.384-35.84-35.84-35.84zM304.128 621.568c-19.456 0-35.84 15.872-35.84 35.84V852.992c0 19.456 15.872 35.84 35.84 35.84 19.456 0 35.84-15.872 35.84-35.84v-195.584c-0.512-19.456-16.384-35.84-35.84-35.84z"  horiz-adv-x="1024" />

    
    <glyph glyph-name="shouxufei" unicode="&#59016;" d="M814.08 896H177.152c-56.32 0-101.888-45.568-101.888-101.888V10.24c0-56.32 45.568-101.888 101.888-101.888h354.816c-28.672 20.992-36.352 34.304-49.664 64.512H182.272c-23.552 0-42.496 18.944-42.496 42.496V788.48c0 23.552 18.944 42.496 42.496 42.496h626.176c23.552 0 42.496-18.944 42.496-42.496v-445.44c30.208-18.432 38.4-23.552 64.512-51.2V793.6C915.968 850.432 870.4 896 814.08 896zM317.952 645.632H670.72v-73.216H317.952zM317.952 481.28H670.72v-73.216H317.952zM317.952 305.664h161.792v-73.216H317.952zM730.112 250.88c86.528 0 156.672-70.144 156.672-156.672s-70.144-156.672-156.672-156.672c-86.528 0-156.672 70.144-156.672 156.672s70.144 156.672 156.672 156.672m0 64.512c-122.368 0-221.184-99.328-221.184-221.184s99.328-221.184 221.184-221.184c122.368 0 221.184 99.328 221.184 221.184s-98.816 221.184-221.184 221.184zM684.032 196.608l46.08-92.16 46.08 92.16h43.52l-58.88-106.496h38.912v-19.968h-50.688l-0.512-0.512v-25.6h50.688v-19.968h-50.688v-46.08h-38.4v46.08H660.48v19.968h50.688v25.6l-0.512 0.512H660.48v19.968h38.912l-58.88 106.496h43.52z"  horiz-adv-x="1024" />

    
    <glyph glyph-name="xin-kucunyuebiao" unicode="&#59008;" d="M571.392-123.904l-75.264 48.64v161.792s96.768 49.152 103.424 55.296l-0.512 117.76c5.632 5.12 142.848 78.336 142.848 78.336s136.192-67.584 142.336-72.704v-120.32l64.512-37.888V825.344c0 36.352-29.696 66.56-66.56 66.56H130.56c-36.352 0-66.56-29.696-66.56-66.56v-882.176c0-36.352 29.696-66.56 66.56-66.56M169.984 501.76H599.04v-79.36H169.984V501.76z m191.488-317.952H171.008v79.36h190.464v-79.36zM839.68 655.36H171.008V734.72H839.68V655.36zM644.096 240.128l100.352 53.76 96.768-52.736-98.304-55.808zM644.096 217.088l87.04-50.176v-86.528l-86.016 46.08zM841.216 217.088l-86.528-50.176v-86.528l86.528 45.568zM529.92 60.416l95.232 50.688 101.376-53.76-93.696-52.736zM529.92 36.352l91.648-50.176v-86.528l-90.624 46.08zM731.136 34.816l-86.528-48.64v-86.528l86.528 44.032zM755.712 53.76l101.376 53.248 94.72-51.712-98.816-55.296zM754.688 29.696l86.528-48.128v-86.528l-85.504 44.032zM951.808 31.744l-87.552-50.176v-86.528l87.552 45.568z"  horiz-adv-x="1024" />

    
    <glyph glyph-name="xin-xiangmuyuebiao" unicode="&#59009;" d="M887.808 891.392H135.68c-36.352 0-66.56-29.696-66.56-66.56v-882.176c0-36.352 29.696-66.56 66.56-66.56h388.096v352.768c0 13.312 10.752 23.552 23.552 23.552h407.04V825.344c0 36.352-29.696 66.048-66.56 66.048zM474.112 182.272H176.128v79.36h297.984v-79.36z m177.152 238.08H176.128V499.2h475.136v-78.848z m196.608 233.984H176.64V733.184h671.232v-78.848zM931.84 140.288h-112.64c-5.632 19.968-10.752 32.256-10.752 32.256l-2.048 4.608c-12.288 30.72-38.912 37.888-59.392 38.4h-155.648c-13.312 0-24.064-10.752-24.064-23.04v-288.768c0-12.8 10.752-23.552 24.064-23.552H931.84c13.312 0 24.064 10.752 24.064 23.552v213.504c0 12.288-10.752 23.04-24.064 23.04z m-331.776 35.84h155.648c7.68 0 14.336-4.608 17.408-11.776 3.584-10.24 5.12-15.872 7.168-24.064h-180.224v35.84z m59.904-218.112h-29.696v29.696h29.696v-29.696z m0 78.336h-29.696v29.696h29.696v-29.696z m228.352-74.24c-2.56-2.56-6.144-4.608-10.24-4.608h-156.672c-8.192 0-14.848 6.656-14.848 14.848 0 4.096 1.536 7.68 4.096 10.24s6.144 4.608 10.24 4.608h156.672c8.192 0 14.848-6.656 14.848-14.848 0.512-3.584-1.536-7.168-4.096-10.24z m0 78.336c-2.56-2.56-6.144-4.096-10.24-4.096h-156.672c-8.192 0-14.848 6.656-14.848 14.848 0 4.096 1.536 7.68 4.096 10.24s6.144 4.096 10.24 4.096h156.672c8.192 0 14.848-6.656 14.848-14.848 0.512-3.584-1.536-7.168-4.096-10.24z"  horiz-adv-x="1024" />

    
    <glyph glyph-name="xin-wanglaiyuebiao" unicode="&#59011;" d="M514.048-5.632c8.192 7.68 46.592 26.112 81.92 33.28-20.48 28.16-26.624 58.368-29.696 95.744-7.68 97.792 40.96 183.808 159.744 179.2 25.6 26.112 61.44 40.448 111.104 37.888 44.032-2.56 86.016-24.064 117.248-59.392V824.832c0 36.352-29.696 66.56-66.56 66.56H136.192c-36.352 0-66.56-29.696-66.56-66.56v-882.176c0-36.352 29.696-66.56 66.56-66.56h364.544c-13.312 34.304-14.848 92.672 5.12 110.592l8.192 7.68zM177.152 734.208h671.232v-79.36H177.152V734.208z m0-232.96h474.624v-79.36H177.152V501.248z m311.808-317.44H176.128v79.36h312.832v-79.36zM807.936 132.608c0-44.544-16.896-91.648-45.056-118.784 28.672-7.168 87.552-22.016 95.744-29.696 18.432-16.896 27.648-58.88 9.216-84.48 0 0-9.216-8.704-157.696-8.704s-159.232 8.704-159.232 8.704c-18.944 25.088-9.216 67.584 9.216 84.48 8.704 7.68 66.56 22.528 95.744 29.696-28.16 27.648-45.056 74.24-45.056 119.296 0 68.608 17.92 123.904 98.304 123.904 80.896-0.512 98.816-55.808 98.816-124.416zM971.776 26.624c-8.192 7.68-67.072 23.04-95.744 29.696 28.16 27.648 45.056 74.24 45.056 118.784 0 68.608-17.92 123.904-98.304 123.904-35.84 0-59.392-11.264-74.24-29.696 72.704-4.096 89.088-57.856 89.088-123.904 0-44.544-9.216-81.408-28.16-116.224 28.672-7.168 57.344-16.384 78.848-32.768 13.824-12.8 22.528-39.424 18.432-62.464 69.12 2.56 74.752 7.168 74.752 7.168 17.92 26.112 8.704 68.608-9.728 85.504z"  horiz-adv-x="1024" />

    
    <glyph glyph-name="xin_zhanghuyuebiao" unicode="&#59012;" d="M887.808 891.392H135.68c-36.352 0-66.56-29.696-66.56-66.56v-882.176c0-36.352 29.696-66.56 66.56-66.56H506.88v376.832h446.976V825.344c0.512 36.352-29.184 66.048-66.048 66.048zM474.112 182.272H176.128v79.36h297.984v-79.36z m177.152 238.08H176.128V499.2h475.136v-78.848z m196.608 233.984H176.64V733.184h671.232v-78.848zM542.208 214.016v-336.384h418.304v336.384h-418.304z m76.288-273.92h-31.744v86.528h31.744c10.24-0.512 18.944-9.216 18.944-20.48 0-8.192-4.608-15.36-11.776-18.944 9.728-3.072 16.384-12.288 16.384-23.04 0-13.312-10.752-24.064-23.552-24.064z m81.408 0l-10.752 27.648h-20.48l-10.24-27.648-17.92-0.512 32.256 85.504 12.8 3.584 27.648-88.064-13.312-0.512z m75.264-0.512l-44.544 53.248-0.512-53.248-12.8 0.512v88.064l44.544-47.104v47.616l13.824-0.512-0.512-88.576z m54.784 0l-29.696 33.28v-32.768h-14.848v88.576h14.848v-31.232l23.04 31.232h17.92l-32.768-43.52 40.448-45.056-18.944-0.512z m95.744 149.504h-348.672v51.712h348.672v-51.712zM686.08-18.944h-13.824l7.68 21.504zM627.2-34.816c0-8.192-6.656-14.336-14.336-14.336h-11.776V-20.48h11.776c7.68 0 14.336-6.656 14.336-14.336zM619.52 3.072c0-6.656-4.608-11.264-10.24-11.264h-8.192v23.04h8.192c5.632 0 10.24-5.12 10.24-11.776z"  horiz-adv-x="1024" />

    
    <glyph glyph-name="xin-chaxunshenpi" unicode="&#59013;" d="M214.528 394.24c-9.216 0-13.824-4.608-13.824-13.824v-20.48h77.824V394.24H214.528z m-13.824-76.288v-18.432c0-6.656 1.536-11.264 4.096-13.312 2.56-2.048 6.656-2.56 11.776-2.56h61.952v34.304H200.704z m196.608 73.728c-2.048 2.048-6.144 2.56-11.776 2.56H325.632v-34.816h74.752v22.016c0.512 5.12-0.512 8.192-3.072 10.24z m-71.68-73.728v-34.304h57.856c4.096 0 7.168 0 9.216 0.512 2.048 0.512 4.096 1.024 5.12 2.56 1.024 1.024 2.048 3.072 2.048 5.12s0.512 5.12 0.512 9.216v16.896H325.632z m0-34.304h57.856c4.096 0 7.168 0 9.216 0.512 2.048 0.512 4.096 1.024 5.12 2.56 1.024 1.024 2.048 3.072 2.048 5.12s0.512 5.12 0.512 9.216v16.896H325.632v-34.304z m71.68 108.032c-2.048 2.048-6.144 2.56-11.776 2.56H325.632v-34.816h74.752v22.016c0.512 5.12-0.512 8.192-3.072 10.24z m-196.608-91.648c0-6.656 1.536-11.264 4.096-13.312 2.56-2.048 6.656-2.56 11.776-2.56h61.952v34.304H200.704v-18.432z m0 80.384v-20.48h77.824V394.24H214.528c-9.216 0-13.824-4.608-13.824-13.824z m705.024 322.56H62.464c-17.92 0-32.256-14.336-32.256-32.256v-582.656c0-17.92 14.336-32.256 32.256-32.256h709.12c-92.16 0-166.4 74.752-166.4 166.4 0 4.608 0 9.728 0.512 14.336H542.72v41.472h71.68c9.216 25.6 24.576 48.64 44.544 67.072H542.72v41.472h200.192c9.216 1.536 18.944 2.56 28.672 2.56 9.728 0 19.456-1.024 28.672-2.56 16.896-3.072 33.28-8.192 47.616-15.872 53.76-27.648 90.112-83.456 90.112-147.968V670.72c0 17.92-14.336 32.256-32.256 32.256z m-457.728-421.888c0-13.824-3.072-24.064-8.704-30.208-5.632-6.144-16.384-9.216-31.232-9.216H325.632v-40.448c0-9.216-1.536-15.36-5.12-18.432-3.584-3.072-9.728-4.608-17.92-4.608-7.68 0-13.824 1.536-17.92 4.608-4.096 3.072-6.144 9.216-6.144 18.432v40.448H193.024c-15.36 0-25.6 3.072-31.232 9.216-5.632 6.144-8.192 16.384-8.192 30.208V397.312c0 14.336 2.56 24.064 8.192 30.208 5.632 6.144 15.872 9.216 31.232 9.216h85.504v14.336c0 8.704 2.048 14.848 6.656 18.432 4.608 3.584 10.24 5.12 17.408 5.12 8.192 0 13.824-1.536 17.92-5.12 4.096-3.584 5.632-9.728 5.632-18.432v-14.336h82.432c15.36 0 25.6-3.072 31.232-9.216 5.632-6.144 8.704-16.384 8.704-30.208v-116.224z m39.424 204.288c-1.024-4.608-1.536-9.728-2.56-14.336-1.024-4.608-2.048-10.24-4.096-15.872-3.072-10.24-7.168-16.384-12.288-18.944s-11.776-2.048-19.456 1.024c-4.096 1.536-7.68 3.584-9.728 5.12-2.048 2.048-3.584 4.096-4.096 6.656-0.512 2.56-0.512 5.632 0.512 9.216s2.048 8.192 3.584 13.824c1.536 3.584 1.536 6.656 0 8.704-1.024 2.56-3.584 3.584-7.168 3.584h-256c-4.608 0-8.192-1.024-9.728-3.072-1.536-2.048-2.56-5.632-2.56-11.264l0.512-11.776c0-7.68-2.048-13.824-6.656-17.92-4.608-4.096-10.24-6.144-16.896-6.144-7.68 0-13.824 1.536-17.92 5.12-4.096 3.584-6.144 9.216-6.144 17.92v21.504c0 15.872 3.584 27.136 11.264 34.816 7.68 7.68 19.456 11.264 35.84 11.264h114.688c-1.024 2.048-1.536 3.584-2.048 4.608-3.584 6.144-5.12 12.288-4.096 17.92 1.024 5.632 5.12 10.752 12.288 14.848 2.56 1.536 5.12 2.048 8.192 2.56 3.072 0.512 6.656 0.512 9.728-0.512 3.584-1.024 6.656-2.56 9.728-5.12 3.072-2.56 5.632-6.144 8.192-10.752 3.072-6.144 5.632-13.824 8.704-23.552h103.424c40.448 3.072 58.88-10.752 54.784-39.424z m360.448-28.672H542.72v41.472h305.152v-41.472z m-522.24-173.056h57.856c4.096 0 7.168 0 9.216 0.512 2.048 0.512 4.096 1.024 5.12 2.56 1.024 1.024 2.048 3.072 2.048 5.12s0.512 5.12 0.512 9.216v16.896H325.632v-34.304zM385.536 394.24H325.632v-34.816h74.752v22.016c0 4.608-1.024 8.192-3.584 9.728-1.536 2.048-5.632 3.072-11.264 3.072z m-184.832-94.208c0-6.656 1.536-11.264 4.096-13.312 2.56-2.048 6.656-2.56 11.776-2.56h61.952v34.304H200.704v-18.432z m0 80.384v-20.48h77.824V394.24H214.528c-9.216 0-13.824-4.608-13.824-13.824zM771.584 222.208m-129.024 0a129.024 129.024 0 1 1 258.048 0 129.024 129.024 0 1 1-258.048 0ZM985.088 26.624c-11.264-11.264-29.696-11.264-40.96 0l-67.584 66.56c14.848 12.288 27.648 27.136 37.888 43.52l70.656-69.632c11.264-11.264 11.264-29.184 0-40.448z"  horiz-adv-x="1024" />

    
    <glyph glyph-name="kucunmingxibiao" unicode="&#59002;" d="M535.552-123.392V81.92c-8.192 1.024-15.872 4.608-21.504 11.264s-8.192 14.848-7.68 23.04c0.512 8.704 4.608 16.384 11.264 22.016l198.144 159.232c5.632 5.12 13.312 7.68 20.992 7.68s15.36-2.56 20.992-7.68l181.248-144.896V825.344c0 36.352-29.696 66.56-66.56 66.56H120.32c-36.352 0-66.56-29.696-66.56-66.56v-882.176c0-36.352 29.696-66.56 66.56-66.56M638.976 734.72H829.44V655.36h-190.464V734.72z m-239.104 0h190.464V655.36H399.872V734.72zM159.744 501.76h190.464v-79.36H159.744V501.76z m191.488-317.44H160.768v79.36h190.464V184.32z m0 471.04H160.768V734.72h190.464V655.36z m47.616-153.6H588.8v-79.36H398.848V501.76zM922.624 97.28c-3.072 0-6.656 1.024-9.216 3.072l-177.664 151.04-177.664-151.04c-6.144-5.12-15.36-4.096-19.968 1.536s-4.096 15.36 1.536 19.968l186.88 158.72c5.632 4.096 13.824 4.096 18.432 0l186.88-158.72c6.144-5.12 6.656-14.336 1.536-19.968-2.56-2.56-6.144-4.608-10.752-4.608zM890.368-123.392h-307.2c-10.24 0-18.944 8.704-18.944 18.944v227.84c0 8.192 6.656 14.336 14.848 14.336 8.192 0 14.336-6.656 14.336-14.336v-218.112H880.64v218.112c0 8.192 6.656 14.336 14.336 14.336s14.336-6.656 14.336-14.336v-227.84c-0.512-10.752-8.704-18.944-18.944-18.944zM822.272-51.712h-172.544c-8.192 0-14.336 6.656-14.336 14.336 0 7.68 6.656 14.336 14.336 14.336h172.544c8.192 0 14.336-6.656 14.336-14.336 0.512-7.68-6.144-14.336-14.336-14.336z m0 57.344h-172.544c-8.192 0-14.336 6.656-14.336 14.336s6.656 14.336 14.336 14.336h172.544c8.192 0 14.336-6.656 14.336-14.336s-6.144-14.336-14.336-14.336z m0 57.344h-172.544c-8.192 0-14.336 6.656-14.336 14.336 0 7.68 6.656 14.336 14.336 14.336h172.544c8.192 0 14.336-6.656 14.336-14.336 0.512-7.68-6.144-14.336-14.336-14.336z"  horiz-adv-x="1024" />

    
    <glyph glyph-name="leixingmingxibiao" unicode="&#59003;" d="M487.936 243.2h466.432V825.344c0 36.352-29.696 66.56-66.56 66.56H135.68c-36.352 0-66.56-29.696-66.56-66.56v-882.176c0-36.352 29.696-66.56 66.56-66.56h352.256v366.592z m166.4 491.52H844.8V655.36h-190.464V734.72z m-239.104 0h190.464V655.36H415.232V734.72zM414.208 501.76H604.16v-79.36H414.208V501.76z m-239.104 0h190.464v-79.36H175.104V501.76z m190.976-317.44H176.128v79.36h190.464V184.32h-0.512z m0.512 471.04H176.128V734.72h190.464V655.36zM608.256 206.336H542.72c-9.216 0-16.384-7.168-16.384-16.384v-65.024c0-9.216 7.168-16.384 16.384-16.384h65.024c9.216 0 16.384 7.168 16.384 16.384v65.024c0 8.704-7.168 16.384-15.872 16.384zM608.256 93.184H542.72c-9.216 0-16.384-7.168-16.384-16.384v-65.024c0-9.216 7.168-16.384 16.384-16.384h65.024c9.216 0 16.384 7.168 16.384 16.384V76.8c0 9.216-7.168 16.384-15.872 16.384zM608.256-25.6H542.72c-9.216 0-16.384-7.168-16.384-16.384v-65.024c0-9.216 7.168-16.384 16.384-16.384h65.024c9.216 0 16.384 7.168 16.384 16.384v65.024c0 9.216-7.168 16.384-15.872 16.384zM933.888 206.336h-272.896c-11.264 0-19.968-7.168-19.968-16.384v-65.024c0-9.216 9.216-16.384 19.968-16.384h272.896c11.264 0 19.968 7.168 19.968 16.384v65.024c0.512 8.704-8.704 16.384-19.968 16.384zM933.888 90.112h-272.896c-11.264 0-19.968-7.168-19.968-16.384v-65.024c0-9.216 9.216-16.384 19.968-16.384h272.896c11.264 0 19.968 7.168 19.968 16.384v65.024c0.512 8.704-8.704 16.384-19.968 16.384zM933.888-25.6h-272.896c-11.264 0-19.968-7.168-19.968-16.384v-65.024c0-9.216 9.216-16.384 19.968-16.384h272.896c11.264 0 19.968 7.168 19.968 16.384v65.024c0.512 9.216-8.704 16.384-19.968 16.384z"  horiz-adv-x="1024" />

    
    <glyph glyph-name="leixingyuebiao" unicode="&#59004;" d="M887.808 891.392H135.68c-36.352 0-66.56-29.696-66.56-66.56v-882.176c0-36.352 29.696-66.56 66.56-66.56H512v366.592h441.856V825.344c0.512 36.352-29.184 66.048-66.048 66.048zM474.112 182.272H176.128v79.36h297.984v-79.36z m177.152 238.08H176.128V499.2h475.136v-78.848z m196.608 233.984H176.64V733.184h671.232v-78.848zM629.248 206.336h-65.536c-9.216 0-16.384-7.168-16.384-16.384v-65.024c0-9.216 7.168-16.384 16.384-16.384h65.024c9.216 0 16.384 7.168 16.384 16.384v65.024c0 8.704-7.168 16.384-15.872 16.384zM629.248 93.184h-65.536c-9.216 0-16.384-7.168-16.384-16.384v-65.024c0-9.216 7.168-16.384 16.384-16.384h65.024c9.216 0 16.384 7.168 16.384 16.384V76.8c0 9.216-7.168 16.384-15.872 16.384zM629.248-25.6h-65.536c-9.216 0-16.384-7.168-16.384-16.384v-65.024c0-9.216 7.168-16.384 16.384-16.384h65.024c9.216 0 16.384 7.168 16.384 16.384v65.024c0 9.216-7.168 16.384-15.872 16.384zM935.424 206.336h-257.024c-10.752 0-18.944-7.168-18.944-16.384v-65.024c0-9.216 8.704-16.384 18.944-16.384h257.024c10.752 0 18.944 7.168 18.944 16.384v65.024c0.512 8.704-8.192 16.384-18.944 16.384zM935.424 90.112h-257.024c-10.752 0-18.944-7.168-18.944-16.384v-65.024c0-9.216 8.704-16.384 18.944-16.384h257.024c10.752 0 18.944 7.168 18.944 16.384v65.024c0.512 8.704-8.192 16.384-18.944 16.384zM935.424-25.6h-257.024c-10.752 0-18.944-7.168-18.944-16.384v-65.024c0-9.216 8.704-16.384 18.944-16.384h257.024c10.752 0 18.944 7.168 18.944 16.384v65.024c0.512 9.216-8.192 16.384-18.944 16.384z"  horiz-adv-x="1024" />

    
    <glyph glyph-name="kucunyuebiao" unicode="&#59005;" d="M535.552-123.392V81.92c-8.192 1.024-15.872 4.608-21.504 11.264s-8.192 14.848-7.68 23.04c0.512 8.704 4.608 16.384 11.264 22.016l198.144 159.232c5.632 5.12 13.312 7.68 20.992 7.68s15.36-2.56 20.992-7.68l181.248-144.896V825.344c0 36.352-29.696 66.56-66.56 66.56H120.32c-36.352 0-66.56-29.696-66.56-66.56v-882.176c0-36.352 29.696-66.56 66.56-66.56M159.744 501.76H588.8v-79.36H159.744V501.76z m191.488-317.44H160.768v79.36h190.464V184.32zM829.44 655.36H160.768V734.72H829.44V655.36zM922.624 97.28c-3.072 0-6.656 1.024-9.216 3.072l-177.664 151.04-177.664-151.04c-6.144-5.12-15.36-4.096-19.968 1.536s-4.096 15.36 1.536 19.968l186.88 158.72c5.632 4.096 13.824 4.096 18.432 0l186.88-158.72c6.144-5.12 6.656-14.336 1.536-19.968-2.56-2.56-6.144-4.608-10.752-4.608zM890.368-123.392h-307.2c-10.24 0-18.944 8.704-18.944 18.944v227.84c0 8.192 6.656 14.336 14.848 14.336 8.192 0 14.336-6.656 14.336-14.336v-218.112H880.64v218.112c0 8.192 6.656 14.336 14.336 14.336s14.336-6.656 14.336-14.336v-227.84c-0.512-10.752-8.704-18.944-18.944-18.944zM822.272-51.712h-172.544c-8.192 0-14.336 6.656-14.336 14.336 0 7.68 6.656 14.336 14.336 14.336h172.544c8.192 0 14.336-6.656 14.336-14.336 0.512-7.68-6.144-14.336-14.336-14.336z m0 57.344h-172.544c-8.192 0-14.336 6.656-14.336 14.336s6.656 14.336 14.336 14.336h172.544c8.192 0 14.336-6.656 14.336-14.336s-6.144-14.336-14.336-14.336z m0 57.344h-172.544c-8.192 0-14.336 6.656-14.336 14.336 0 7.68 6.656 14.336 14.336 14.336h172.544c8.192 0 14.336-6.656 14.336-14.336 0.512-7.68-6.144-14.336-14.336-14.336z"  horiz-adv-x="1024" />

    
    <glyph glyph-name="chaxunshenpi" unicode="&#59006;" d="M299.008 300.032H378.88c2.56 0 4.096 2.048 4.096 5.632V343.04H299.008v-43.008zM189.44 305.152c0-3.584 1.024-5.632 3.584-5.632h79.872V343.04H189.44v-37.888zM378.88 409.088H299.008v-40.448h83.968v35.328c0 3.584-1.536 5.12-4.096 5.12zM189.44 403.968v-35.328h83.456v40.448H193.024c-2.56 0-3.584-1.536-3.584-5.12zM910.336 140.8l74.752-73.728c11.264-11.264 11.264-29.184 0-40.448s-29.696-11.264-40.96 0l-72.704 71.68 38.912 42.496zM906.24 702.976H61.44c-16.896 0-31.232-13.824-31.232-31.232V87.04c0-16.896 13.824-31.232 31.232-31.232h704c-90.624 2.048-163.84 75.264-163.328 165.376 0 5.632 0.512 10.752 1.024 15.872H542.72v41.472h69.632c9.728 26.112 26.112 48.64 46.592 66.56H542.72v41.472h232.96c90.112-3.072 162.304-75.776 162.304-165.376v450.56c-0.512 17.408-14.336 31.232-31.744 31.232z m-497.664-399.872c0-9.728-2.048-17.408-6.144-22.016-4.096-4.608-11.264-7.168-21.504-7.168h-81.92v-48.128c0-5.632-1.024-9.216-3.072-11.264-2.048-2.048-5.632-3.072-9.728-3.072-4.096 0-7.68 1.024-9.728 3.072-2.048 2.048-3.072 5.632-3.072 10.752v48.128H190.464c-10.24 0-17.408 2.56-21.504 7.168-3.584 4.608-5.632 11.776-5.632 22.016V406.528c0 10.24 2.048 17.408 5.632 21.504 3.584 4.096 10.752 6.656 21.504 6.656h82.432v24.576c0 5.12 1.024 8.192 3.072 10.24 2.048 2.048 5.12 3.072 9.728 3.072s7.68-1.024 9.728-3.072 3.072-5.12 3.072-10.24v-24.576h82.432c10.24 0 17.408-2.048 21.504-6.656 4.096-4.096 6.144-11.264 6.144-21.504v-103.424z m32.768 152.064c-1.024-5.632-2.56-12.288-4.608-18.944-1.536-5.632-4.096-9.216-6.656-11.264-3.072-2.048-6.656-2.048-11.776 0-3.584 1.536-6.144 3.584-6.656 6.656-0.512 3.072 0 8.192 2.048 15.36 3.584 13.312 5.12 22.016 3.072 26.624-1.536 4.608-7.168 6.656-16.384 6.656H168.96c-5.12 0-7.68-3.072-7.68-9.216v-29.184c0-4.608-1.024-7.68-3.584-9.728s-5.12-3.072-8.704-3.072c-4.096 0-7.68 1.024-9.728 3.072-2.56 2.048-3.584 5.12-3.584 9.728V471.04c0 11.264 2.56 19.968 7.68 25.6s13.824 8.704 25.6 8.704h105.472c-2.048 3.584-3.584 7.168-5.12 10.24-4.608 7.68-3.584 13.824 4.096 18.432 3.584 2.56 7.168 3.072 10.24 2.56 3.072-1.024 6.656-4.096 10.24-10.24 1.536-2.56 3.072-5.632 4.608-8.704 1.536-3.584 3.072-7.68 4.096-11.776h97.792c8.704 0 15.872-0.512 21.504-1.536 5.632-1.024 10.24-3.072 13.312-5.632s5.12-6.144 6.656-10.24c1.024-4.096 1.536-9.216 1.536-15.36s-0.512-11.776-2.048-17.92z m406.528 1.536H542.72v41.472h305.152v-41.472zM640.512 221.184c0-70.144 57.856-126.976 129.024-126.976 71.168 0 129.024 56.832 129.024 126.976 0 70.144-57.856 126.976-129.024 126.976-71.168 0.512-129.024-56.832-129.024-126.976z"  horiz-adv-x="1024" />

    
    <glyph glyph-name="cangkushezhi" unicode="&#59001;" d="M927.232 416.256c-7.168 0-14.848 2.56-20.48 7.68L511.488 759.296 116.224 423.936c-13.312-11.264-33.792-9.728-45.056 3.584s-9.728 33.792 3.584 45.056l415.744 352.768c11.776 10.24 29.696 10.24 41.472 0l415.744-352.768c13.312-11.264 14.848-31.744 3.584-45.056-5.632-7.168-14.848-11.264-24.064-11.264zM854.016-62.464H169.472c-23.04 0-41.984 18.944-41.984 41.984V486.912c0 17.92 14.336 31.744 32.256 31.744s31.744-14.336 31.744-31.744v-485.376h640.512V486.912c0 17.92 14.336 31.744 31.744 31.744s31.744-14.336 31.744-31.744V-20.48c0-23.552-18.432-41.984-41.472-41.984zM704 97.28H319.488c-17.92 0-31.744 14.336-31.744 31.744s14.336 31.744 31.744 31.744h384.512c17.92 0 31.744-14.336 31.744-31.744s-14.336-31.744-31.744-31.744z m0 127.488H319.488c-17.92 0-31.744 14.336-31.744 31.744s14.336 31.744 31.744 31.744h384.512c17.92 0 31.744-14.336 31.744-31.744s-14.336-31.744-31.744-31.744z m0 127.488H319.488c-17.92 0-31.744 14.336-31.744 31.744s14.336 31.744 31.744 31.744h384.512c17.92 0 31.744-14.336 31.744-31.744s-14.336-31.744-31.744-31.744z"  horiz-adv-x="1024" />

    
    <glyph glyph-name="gengduo-zhankai" unicode="&#58999;" d="M1664 761.6l-115.2 128L832 128 121.6 896 0 768l825.6-896z"  horiz-adv-x="1664" />

    
    <glyph glyph-name="gengduo-shoulong" unicode="&#59000;" d="M0 6.4l115.2-128L832 640l710.4-768 121.6 128L838.4 896z"  horiz-adv-x="1664" />

    
    <glyph glyph-name="qiehuan1" unicode="&#58995;" d="M675.711586 47.970272l-186.277248 105.922357c-29.21996 18.262475-51.134931 3.652495-51.134931-29.219961v-98.617366H146.099802c-51.134931 0-91.312376 40.177446-91.312376 91.312376V632.369481c0 51.134931 40.177446 91.312376 91.312376 91.312377h175.319763V774.816788H146.099802C69.397406 774.816788 3.652495 712.724373 3.652495 632.369481v-515.001803c0-76.702396 65.744911-142.447307 142.447307-142.447307h295.8521V-90.82454c0-32.872456 21.91497-47.482436 51.134931-29.219961l160.709782 94.964872h7.30499V-17.774639l18.262476 10.957485c25.567465 14.60998 25.567465 40.177446-3.652495 54.787426M1070.181052 774.816788h-255.674654V858.824175c0 32.872456-21.91497 47.482436-51.134931 29.21996l-186.277248-105.922356c-29.21996-18.262475-29.21996-43.829941 0-58.439921l186.277248-109.574852c29.21996-18.262475 51.134931-3.652495 51.134931 29.21996V727.334353h255.674654c51.134931 0 91.312376-40.177446 91.312376-91.312377v-515.001803c0-51.134931-40.177446-91.312376-91.312376-91.312376h-135.142317v-51.134931h135.142317c76.702396 0 142.447307 62.092416 142.447307 142.447307V639.674471c0 73.049901-62.092416 135.142317-142.447307 135.142317"  horiz-adv-x="1241" />

    
    <glyph glyph-name="unfold" unicode="&#58911;" d="M958.032 720.24l-80.477 76.671-364.489-347.234-364.49 347.234-80.477-76.671 444.967-423.898 444.966 423.898zM513.066 109.421l-364.49 347.235-80.477-76.665 444.967-423.898 444.966 423.898-80.477 76.665-364.489-347.235z"  horiz-adv-x="1024" />

    
    <glyph glyph-name="choose" unicode="&#58900;" d="M891.392 890.368H131.584C61.952 890.368 5.12 833.5360000000001 5.12 763.904v-759.808C5.12-66.048 61.952-122.88 131.584-122.88h759.808c70.144 0 126.464 56.832 126.464 126.464V763.904c0.512 69.632-56.32 126.464-126.464 126.464z m54.272-877.056c0-35.328-28.672-63.488-63.488-63.488H141.312c-34.816 0-63.488 28.16-63.488 63.488V754.1759999999999c0 34.816 28.672 63.488 63.488 63.488h740.864c34.816 0 63.488-28.672 63.488-63.488v-740.864zM754.688 518.144c14.336-13.824 14.336-36.864 0-51.2L465.408 174.08000000000004h-0.512v-0.512c-2.56-2.048-5.12-3.584-7.68-5.12-1.536-0.512-2.56-2.048-3.584-2.56-4.096-1.536-8.704-2.56-13.312-2.56-4.608 0-9.216 1.024-13.824 2.56-1.536 0.512-2.56 2.048-4.096 2.56-2.56 1.536-5.632 3.072-7.68 5.12v0.512h-0.512L271.36 321.024c-13.824 14.336-13.824 37.376 0.512 51.2 14.336 13.824 37.376 13.824 51.2-0.512l116.736-119.808 263.68 266.752c14.336 13.312 37.376 13.824 51.2-0.512z"  horiz-adv-x="1024" />

    
    <glyph glyph-name="qiehuan" unicode="&#59045;" d="M963.191564 197.074703M972.374714 225.956497 334.963423 225.956497 163.410232 225.956497 16.393877 225.956497l440.987666-332.592934-50.992371 204.687846 566.115502 0L972.374714 225.956497 972.374714 225.956497 972.374714 225.956497zM66.260611 486.662171l808.893874 0 147.080823 0L568.886103 819.252035l50.986231-204.687846L66.129628 614.564189 66.260611 486.662171 66.260611 486.662171 66.260611 486.662171zM66.260611 486.662171"  horiz-adv-x="1024" />

    
    <glyph glyph-name="settle" unicode="&#58902;" d="M513.988 17.236l-432.606 199.083-80.815-34.426 513.42-236.256 509.444 236.256-80.164 34.426zM513.988 224.172l-432.606 199.074-80.815-34.412 513.42-236.26 509.444 236.26-80.164 34.412zM1023.432 603.632l-509.444 218.731-513.42-218.731 513.421-236.256 509.443 236.256zM146.711 601.126l366.689 156.239 363.889-156.239-363.89-168.761-366.688 168.761z"  horiz-adv-x="1024" />

    
    <glyph glyph-name="close" unicode="&#58909;" d="M822.613 163.84l-242.347 240.64 228.693 228.693c20.48 20.48 20.48 52.907 0 71.68-20.48 20.48-52.907 20.48-71.68 0l-228.693-228.693-216.747 218.453c-20.48 20.48-52.907 20.48-71.68 0-20.48-20.48-20.48-52.907 0-71.68l216.747-216.747-230.4-230.4c-20.48-20.48-20.48-52.907 0-71.68 20.48-20.48 52.907-20.48 71.68 0l230.4 228.693 240.64-240.64c20.48-20.48 52.907-20.48 71.68 0 20.48 18.773 20.48 51.2 1.707 71.68z"  horiz-adv-x="1024" />

    
    <glyph glyph-name="fuzhi" unicode="&#58905;" d="M208.022 121.345h-37.988l0 670.863h531.907v-37.266h37.997l-0 37.266c0 0 0 37.275-37.997 37.275l-531.907-0c-37.997 0-37.997-37.275-37.997-37.275v-670.862c0 0 0-37.27 37.997-37.27h37.988l-0 37.269zM284.008-65.003c-37.989 0-37.989 37.266-37.989 37.266l-0 708.141c0 0 0 37.266 37.989 37.266h569.905c37.993 0 37.993-37.266 37.993-37.266v-484.515l-265.954-260.892h-341.944zM284.008-27.737h341.943l227.962 223.626v484.515h-569.905v-708.141zM622.155-59.467c-1.457 0-2.935 0.286-4.339 0.866-4.231 1.754-29.858 26.291-29.858 30.864l-0 223.626c0 0 0 37.266 37.992 37.266h265.954c0 0-27.153-26.581-30.392-29.81l-231.34-259.493c-2.165-2.171-5.060-3.319-8.018-3.319M625.951 195.889v-223.626l227.962 223.626h-227.962zM777.927 456.777h-303.951v37.274h303.951v-37.274zM777.927 344.967h-303.951v37.27h303.951v-37.27zM625.951 605.859h-113.978v-37.27h113.978v37.27zM360.004 494.050h75.984v-37.274h-75.984l0 37.274zM360.004 382.237h75.984v-37.27h-75.984l0 37.27z"  horiz-adv-x="1024" />

    
    <glyph glyph-name="quxiao" unicode="&#58896;" d="M512 896c-281.6 0-505.6-230.4-505.6-512s230.4-512 505.6-512c281.6 0 505.6 230.4 505.6 512S793.6 896 512 896zM716.8 256c19.2-19.2 19.2-57.6 0-76.8-19.2-19.2-57.6-19.2-76.8 0l-128 128-128-128c-19.2-19.2-57.6-19.2-76.8 0-19.2 19.2-19.2 57.6 0 76.8l128 128-128 128c-19.2 19.2-19.2 57.6 0 76.8 19.2 19.2 57.6 19.2 76.8 0l128-128 128 128c19.2 19.2 57.6 19.2 76.8 0 19.2-19.2 19.2-57.6 0-76.8l-128-128L716.8 256z"  horiz-adv-x="1024" />

    
    <glyph glyph-name="close-item" unicode="&#58927;" d="M0 896c0-565.54 458.46-1024 1024-1024v1024h-1024zM608.127 469.189l126.833-127.082c9.928-9.947 9.878-26.138-0.12-36.155-10.067-10.087-26.153-10.071-36.084-0.12l-126.833 127.082-126.833-127.082c-9.928-9.947-26.087-9.897-36.084 0.12-10.067 10.087-10.051 26.204-0.12 36.155l126.833 127.082-126.833 127.082c-9.928 9.947-9.878 26.138 0.12 36.155 10.067 10.087 26.153 10.071 36.084 0.12l126.833-127.082 126.833 127.082c9.928 9.947 26.087 9.897 36.084-0.12 10.067-10.087 10.051-26.204 0.12-36.155l-126.833-127.082z"  horiz-adv-x="1024" />

    
    <glyph glyph-name="xiayiye" unicode="&#58920;" d="M815.804768 382.717414 544.976162 111.877172l0.085333-0.080162-16.717576-16.718869c-12.889212-12.889212-33.781657-12.889212-46.661818 0-12.889212 12.880162-12.889212 33.772606 0 46.663111l241.060202 241.064081L480.501657 625.048566c-12.88404 12.878869-12.88404 33.773899 0 46.661818 12.887919 12.88404 33.777778 12.88404 46.660525 0l26.989899-26.989899-0.182303-0.166788L815.804768 382.717414 815.804768 382.717414zM551.83903 382.717414 281.006545 111.877172l0.085333-0.080162-16.716283-16.718869c-12.889212-12.889212-33.782949-12.889212-46.661818 0-12.889212 12.880162-12.889212 33.772606 0 46.663111l241.060202 241.064081L216.53204 625.048566c-12.88404 12.878869-12.88404 33.773899 0 46.661818 12.887919 12.88404 33.782949 12.88404 46.660525 0l26.995071-26.989899-0.186182-0.166788L551.83903 382.717414 551.83903 382.717414zM551.83903 382.717414"  horiz-adv-x="1024" />

    
    <glyph glyph-name="expenses" unicode="&#58924;" d="M338.174 240.396c0 51.122 10.289 99.84 28.904 144.201l-219.169-0c-3.391 0-6.14 2.749-6.14 6.14v72.314c0 3.391 2.749 6.14 6.14 6.14h242.864c3.391 0 6.14-2.749 6.14-6.14v-21.655c29.691 46.322 69.347 85.643 115.94 114.946h-364.944c-3.391 0-6.14 2.749-6.14 6.14v72.314c0 3.391 2.749 6.14 6.14 6.14h441.386c3.391 0 6.14-2.749 6.14-6.14v-39.725c36.429 11.878 75.321 18.301 115.715 18.301 8.599 0 17.128-0.298 25.582-0.871v199.070c0 15.26-12.37 27.629-27.629 27.629h-680.222c-15.26 0-27.629-12.37-27.629-27.629v-853.945c0-15.26 12.37-27.629 27.629-27.629h475.418c-100.154 66.876-166.125 180.932-166.125 310.399zM284.351 219.505c0-3.391-2.749-6.14-6.14-6.14l-130.302 0c-3.391 0-6.14 2.749-6.14 6.14v72.314c0 3.391 2.749 6.14 6.14 6.14h130.301c3.391 0 6.14-2.749 6.14-6.14l0-72.314zM711.151 551.993c-172.090 0-311.597-139.506-311.597-311.597s139.506-311.597 311.597-311.597 311.597 139.506 311.597 311.597-139.506 311.597-311.597 311.597zM834.815 257.953v-40.274h-98.363v-55.507h98.363v-40.791h-98.363v-80.808h-50.601v80.808l-101.979 0v40.791h101.979l-0 55.506h-101.979v40.274h84.957l-93.829 172.037h57.056c5.012-9.162 77.048-157.644 78.081-159.921l83.207 159.921h53.958l-96.908-172.037h84.421z"  horiz-adv-x="1024" />

    
    </font>
</defs>
</svg>
